<svg width="64" height="64" viewBox="0 0 64 64" fill="none" xmlns="http://www.w3.org/2000/svg">
<path d="M9.08188 41.1688C4.0661 36.153 4.0661 28.0208 9.08188 23.005L22.739 9.34787C27.7548 4.33209 35.887 4.33209 40.9028 9.34787L54.56 23.005C59.5757 28.0208 59.5757 36.153 54.56 41.1688L40.9028 54.826C35.887 59.8417 27.7548 59.8417 22.739 54.826L9.08188 41.1688Z" fill="#FF7A00"/>
<path d="M31.2126 49.8405C30.821 49.6148 30.4721 49.4132 30.1215 49.2125C29.2832 48.7326 28.4507 48.243 27.6042 47.7785C27.3678 47.649 27.2865 47.5058 27.2881 47.2411C27.2996 45.2584 27.293 43.2764 27.2963 41.2937C27.2963 41.0849 27.2832 40.9222 27.0574 40.7944C24.6074 39.4065 22.1649 38.0048 19.7198 36.608C19.6747 36.5821 19.6221 36.5691 19.5253 36.5319C19.5253 38.7226 19.5253 40.8834 19.5253 43.0887C19.4013 43.0409 19.3266 43.0215 19.2617 42.9843C18.1155 42.3304 16.9669 41.6814 15.8322 41.008C15.7066 40.9336 15.6007 40.7151 15.6007 40.5637C15.5868 36.2211 15.5876 31.8785 15.5868 27.5359C15.5868 26.241 15.5868 24.947 15.5859 23.6521C15.5859 23.5105 15.5859 23.3681 15.5859 23.1479C16.182 23.4846 16.6984 23.776 17.2149 24.0689C17.8774 24.4444 18.5343 24.8313 19.205 25.193C19.4399 25.3193 19.5195 25.4682 19.5179 25.7328C19.5055 27.7155 19.5138 29.6975 19.508 31.6802C19.5072 31.8971 19.5441 32.0468 19.7609 32.1698C22.2002 33.5505 24.6321 34.9424 27.0664 36.3312C27.1223 36.3627 27.1822 36.387 27.2857 36.4364C27.2857 34.227 27.2857 32.0638 27.2857 29.8472C27.4277 29.9079 27.5262 29.9386 27.6141 29.9888C28.7266 30.6201 29.8341 31.2578 30.9507 31.8825C31.1503 31.9942 31.2422 32.1116 31.2422 32.3519C31.2348 38.0833 31.2365 43.8154 31.2356 49.5468C31.234 49.6237 31.2233 49.7005 31.2126 49.8405Z" fill="white"/>
<path d="M45.5836 23.1342C44.4842 23.7606 43.4596 24.3457 42.4333 24.9292C39.0408 26.8602 35.6475 28.7895 32.2582 30.7253C32.0497 30.8443 31.8896 30.8742 31.6655 30.7472C26.6366 27.8969 21.6037 25.0547 16.5716 22.2109C16.4821 22.1607 16.3951 22.1048 16.2588 22.0223C17.3426 21.4048 18.4058 20.8545 19.4042 20.2087C19.9781 19.838 20.3886 19.8809 20.9682 20.2152C24.4773 22.2424 28.0168 24.2187 31.5398 26.2225C31.8182 26.3811 32.0226 26.3973 32.3141 26.2298C35.3207 24.5011 38.3388 22.7927 41.3479 21.069C41.5802 20.9362 41.7436 20.937 41.9743 21.0714C43.1468 21.7568 44.3323 22.4221 45.5836 23.1342Z" fill="white"/>
<path fill-rule="evenodd" clip-rule="evenodd" d="M48.2033 24.1653C48.2033 23.7062 47.7869 23.5111 47.3883 23.7391C44.7671 25.231 42.2699 26.6171 39.7656 28.0072C37.5032 29.2631 35.2349 30.5222 32.864 31.8655C32.607 32.0111 32.543 32.1714 32.543 32.4401C32.5484 37.1492 32.5482 41.8588 32.548 46.5681C32.5479 47.5095 32.5479 48.4508 32.5479 49.3921V49.8324C32.6038 49.8037 32.6532 49.779 32.6981 49.7566C32.7852 49.713 32.8554 49.6779 32.9231 49.639C33.2408 49.4572 33.5579 49.2746 33.8751 49.092C34.6425 48.6502 35.4099 48.2085 36.1842 47.7784C36.4223 47.6457 36.4979 47.5 36.4962 47.2378C36.4911 46.3719 36.4911 45.5059 36.491 44.6398C36.4908 43.5503 36.4907 42.4607 36.4806 41.3713C36.4774 41.0411 36.5939 40.8704 36.8731 40.7118C38.7064 39.6698 40.5377 38.6245 42.3689 37.5791C44.2003 36.5337 46.0317 35.4883 47.8651 34.4463C48.127 34.2982 48.2099 34.1315 48.2091 33.8409C48.2017 31.2905 48.2022 29.987 48.2029 28.0588C48.2031 27.4178 48.2033 26.7078 48.2033 25.86V24.1653ZM44.1938 29.9166C44.2159 29.9114 44.2428 29.9051 44.2763 29.8957C44.2763 29.8958 44.2763 29.8958 44.2763 29.8959C44.2766 29.8958 44.2768 29.8958 44.277 29.8957C44.277 30.0666 44.2776 30.2349 44.2781 30.4012C44.2797 30.876 44.2812 31.3348 44.2696 31.7927C44.2664 31.9035 44.1925 32.0613 44.1013 32.1139C41.992 33.3275 39.8779 34.5331 37.7196 35.7639C37.3132 35.9957 36.9051 36.2284 36.4953 36.4622C36.4953 36.4617 36.4953 36.4611 36.4953 36.4605C36.4948 36.4608 36.4943 36.4611 36.4938 36.4614C36.4938 36.296 36.4934 36.1336 36.4931 35.9735C36.492 35.4232 36.4909 34.9003 36.5036 34.3775C36.5061 34.3022 36.6251 34.2084 36.7114 34.159C39.1769 32.7508 41.6449 31.3467 44.113 29.9426C44.133 29.931 44.1568 29.9254 44.1938 29.9166Z" fill="white"/>
</svg>
