<svg width="617" height="617" viewBox="0 0 617 617" fill="none" xmlns="http://www.w3.org/2000/svg">
<rect y="308.5" width="436.285" height="436.285" rx="109" transform="rotate(-45 0 308.5)" fill="#3BC9A9"/>
<path d="M198.05 190.734L162.949 208.495C160.822 209.572 160.74 212.58 162.805 213.771L306.586 296.685C307.468 297.193 308.547 297.22 309.453 296.756L344.1 279.01C346.214 277.927 346.291 274.933 344.235 273.743L200.907 190.814C200.029 190.306 198.954 190.276 198.05 190.734Z" fill="white"/>
<path d="M363.102 267.216L217.883 185.74C215.794 184.568 215.853 181.542 217.985 180.452L323.886 126.325C324.878 125.818 326.07 125.903 326.981 126.545L355.505 146.68C357.334 147.971 357.155 150.738 355.175 151.783L301.777 179.978C299.695 181.077 299.633 184.036 301.666 185.222L361.592 220.179C362.47 220.691 363.548 220.724 364.455 220.266L417.865 193.325C418.869 192.818 420.072 192.916 420.981 193.577L454.038 217.618C455.85 218.936 455.63 221.704 453.632 222.719L365.929 267.274C365.036 267.728 363.976 267.706 363.102 267.216Z" fill="white"/>
<path fill-rule="evenodd" clip-rule="evenodd" d="M154.974 227.025C152.975 225.897 150.5 227.342 150.5 229.638V398.748C150.5 399.83 151.083 400.829 152.026 401.361L185.026 419.976C187.026 421.104 189.5 419.659 189.5 417.363V372.626C189.5 370.332 191.969 368.887 193.969 370.01L260.969 407.64C261.915 408.171 262.5 409.171 262.5 410.256V461.256C262.5 462.334 263.078 463.33 264.015 463.863L297.515 482.945C299.515 484.085 302 482.64 302 480.339V390.19C302 389.141 301.452 388.168 300.555 387.624L276.8 373.228C274.324 371.727 275.2 367.936 278.084 367.674L299.272 365.748C300.817 365.608 302 364.312 302 362.76V311.752C302 310.669 301.417 309.671 300.474 309.139L154.974 227.025ZM190.58 324.349C189.607 323.826 189 322.811 189 321.706V295.09C189 292.805 191.454 291.359 193.453 292.466L247.953 322.644C248.908 323.172 249.5 324.177 249.5 325.268V350.983C249.5 353.252 247.079 354.699 245.08 353.626L190.58 324.349Z" fill="white"/>
<path d="M314 475.074V310.323C314 309.203 314.624 308.176 315.618 307.66L401.118 263.275C403.115 262.238 405.5 263.687 405.5 265.938V303.154C405.5 304.286 404.863 305.322 403.852 305.832L355.648 330.168C354.637 330.678 354 331.714 354 332.846V410.931C354 413.211 356.444 414.658 358.444 413.56L400.556 390.44C402.556 389.342 405 390.789 405 393.069V431.173C405 432.295 404.374 433.323 403.377 433.838L318.377 477.74C316.38 478.771 314 477.321 314 475.074Z" fill="white"/>
<path d="M465.623 230.261L440.905 243.033C440.318 243.336 439.848 243.824 439.567 244.422L416.18 294.172C414.969 296.748 417.69 299.405 420.236 298.132L427.158 294.671C429.153 293.673 431.5 295.124 431.5 297.354V414.061C431.5 416.311 433.886 417.761 435.883 416.723L468.383 399.84C469.377 399.324 470 398.297 470 397.178V232.927C470 230.679 467.62 229.23 465.623 230.261Z" fill="white"/>
</svg>
