<svg width="26" height="24" viewBox="0 0 26 24" fill="none" xmlns="http://www.w3.org/2000/svg">
  <g clip-path="url(#clip0_374_309037)">
    <path
      d="M13.0078 23.9776C10.4954 23.9776 7.98413 23.9883 5.47173 23.9722C4.58578 23.9668 3.70317 23.8949 2.8483 23.6256C1.12748 23.0816 -0.662179 20.8949 0.241531 18.5215C0.590137 17.6052 1.02756 16.7136 1.49607 15.8467C3.60214 11.9507 5.72042 8.06232 7.86423 4.18679C8.36716 3.27799 8.93891 2.39494 9.56729 1.56232C11.1416 -0.523512 14.8019 -0.50098 16.4239 1.51941C17.1811 2.46254 17.7751 3.49902 18.3468 4.5473C20.6083 8.69537 22.8643 12.8477 25.1124 17.0022C25.5021 17.7222 25.8419 18.469 25.9595 19.2834C26.1361 20.5022 25.7131 21.5494 24.9026 22.4658C24.1366 23.3327 23.1363 23.7812 21.9794 23.867C20.9314 23.9454 19.8778 23.9797 18.8264 23.9904C16.8869 24.0087 14.9474 23.9958 13.0078 23.9958C13.0078 23.9894 13.0078 23.984 13.0078 23.9776ZM12.9756 21.6814C15.5247 21.6814 18.0737 21.6943 20.6217 21.6718C21.1978 21.6664 21.7885 21.601 22.3436 21.4582C23.2728 21.2179 23.8257 20.175 23.5337 19.2919C23.3916 18.8606 23.2162 18.4336 22.9986 18.0334C20.6006 13.6117 18.1981 9.19323 15.7778 4.78228C15.4336 4.1546 15.0018 3.57091 14.591 2.97971C13.9571 2.06554 12.0686 2.04945 11.4069 2.98185C11.0583 3.47434 10.6864 3.95717 10.3977 4.48185C7.97747 8.88207 5.57165 13.2898 3.17249 17.7007C2.9027 18.1954 2.66734 18.7147 2.48304 19.2447C2.14443 20.2168 2.77947 21.2941 3.82085 21.5097C4.33154 21.616 4.86333 21.6718 5.38513 21.675C7.91419 21.6911 10.4455 21.6814 12.9756 21.6814Z" />
    <path
      d="M14.2145 11.9732C14.2145 12.9281 14.2201 13.883 14.2123 14.838C14.2078 15.4131 13.8337 15.8519 13.2697 15.9764C12.7601 16.089 12.2028 15.839 11.9774 15.368C11.8953 15.1953 11.8475 14.9914 11.8464 14.8015C11.8309 12.9367 11.8264 11.0719 11.8242 9.206C11.8231 8.50321 12.3105 8.0118 12.9911 8.00751C13.6738 8.00321 14.1701 8.48926 14.1768 9.18884C14.1845 10.1169 14.179 11.0451 14.179 11.9732C14.1923 11.9732 14.2034 11.9732 14.2145 11.9732Z" />
    <path
      d="M11.8264 18.265C11.8375 17.633 12.3782 17.1255 13.0232 17.1406C13.6893 17.1566 14.1956 17.6792 14.1789 18.3315C14.1623 18.9657 13.6327 19.4485 12.9688 19.4356C12.316 19.4217 11.8142 18.9077 11.8264 18.265Z" />
  </g>
  <defs>
    <clipPath id="clip0_374_309037">
      <rect width="26" height="24" fill="white" />
    </clipPath>
  </defs>
</svg>