<svg width="6" height="13" viewBox="0 0 6 13" fill="none" xmlns="http://www.w3.org/2000/svg">
<path d="M2.63941 0.900818C2.73032 0.992478 2.8197 1.08556 2.9129 1.17509C3.02215 1.28025 3.13368 1.38327 3.24573 1.48583C3.38044 1.60899 3.51846 1.72883 3.65214 1.85318C3.76113 1.95431 3.86325 2.06208 3.97274 2.16274C4.25948 2.42635 4.55028 2.68593 4.836 2.95049C4.96409 3.06891 5.08377 3.19491 5.21975 3.32944C5.07231 3.46303 4.92589 3.59211 4.78405 3.72545C4.65978 3.84245 4.53755 3.96159 4.42092 4.08498C4.33587 4.17499 4.2936 4.1738 4.20727 4.08475C4.09472 3.96893 3.96994 3.86353 3.85281 3.7515C3.73236 3.63616 3.617 3.51608 3.49554 3.40145C3.43468 3.34413 3.36541 3.29439 3.2796 3.22452C3.2796 6.49395 3.2796 9.7442 3.2796 13.0001C2.83167 13.0001 2.40208 13.0001 1.95951 13.0001C1.95951 9.74562 1.95951 6.49608 1.95951 3.24655C1.94983 3.24134 1.94015 3.23636 1.93048 3.23115C1.60173 3.54663 1.27323 3.86188 0.932771 4.18825C0.615736 3.89385 0.314998 3.61437 0 3.32186C0.881842 2.50569 1.74917 1.70325 2.61624 0.900818C2.62388 0.900818 2.63177 0.900818 2.63941 0.900818Z" fill="white"/>
</svg>
