<svg width="31" height="31" viewBox="0 0 31 31" fill="none" xmlns="http://www.w3.org/2000/svg">
<path d="M16.771 19.375C16.771 20.0883 17.3493 20.6666 18.0627 20.6666C18.5243 20.6666 18.9294 20.4245 19.1578 20.0602L22.6293 16.5887C23.1338 16.0843 23.1338 15.2665 22.6293 14.762C22.1249 14.2576 21.3071 14.2576 20.8026 14.762L19.3544 16.2103L19.3544 6.45829C19.3544 5.74492 18.7761 5.16663 18.0627 5.16663C17.3493 5.16663 16.771 5.74493 16.771 6.45829L16.771 19.3111C16.7709 19.3229 16.7709 19.3347 16.771 19.3464V19.375Z" fill="#33B2EF"/>
<path d="M14.2288 11.625C14.2288 10.9116 13.6505 10.3333 12.9371 10.3333C12.4755 10.3333 12.0704 10.5755 11.842 10.9397L8.37051 14.4112C7.86608 14.9156 7.86608 15.7335 8.37051 16.2379C8.87493 16.7423 9.69277 16.7423 10.1972 16.2379L11.6455 14.7896L11.6455 24.5416C11.6455 25.255 12.2237 25.8333 12.9371 25.8333C13.6505 25.8333 14.2288 25.255 14.2288 24.5416L14.2288 11.6888C14.2289 11.6771 14.2289 11.6653 14.2288 11.6535V11.625Z" fill="#33B2EF"/>
</svg>
