<svg width="21" height="20" viewBox="0 0 21 20" fill="none" xmlns="http://www.w3.org/2000/svg">
<path d="M10.3428 20C15.7464 20 20.127 15.5228 20.127 10C20.127 4.47715 15.7464 2.06457e-07 10.3428 1.33002e-07C4.93913 5.95469e-08 0.558594 4.47715 0.558594 10C0.558594 15.5228 4.93913 20 10.3428 20Z" fill="#F7931A"/>
<path d="M14.7391 8.7625C14.9311 7.4525 13.9546 6.74812 12.6202 6.27812L13.0532 4.50312L11.9965 4.23438L11.5745 5.9625C11.2969 5.89125 11.012 5.825 10.7276 5.75875L11.1526 4.01938L10.0959 3.75L9.66296 5.52437C9.43303 5.47062 9.20678 5.41813 8.98785 5.36188L8.98908 5.35625L7.53123 4.98437L7.24994 6.13812C7.24994 6.13812 8.03451 6.32188 8.018 6.33312C8.44605 6.4425 8.5231 6.73187 8.51026 6.96187L8.01738 8.98375C8.04674 8.99125 8.08465 9.0025 8.12746 9.01937L8.01555 8.99125L7.32454 11.8237C7.27195 11.9562 7.13925 12.1556 6.83961 12.08C6.85062 12.0956 6.07155 11.8844 6.07155 11.8844L5.54688 13.1206L6.92278 13.4712C7.17839 13.5369 7.42911 13.6056 7.67555 13.67L7.23832 15.465L8.2944 15.7337L8.72735 13.9587C9.01598 14.0381 9.29606 14.1119 9.57001 14.1819L9.13829 15.9494L10.195 16.2181L10.6322 14.4269C12.4349 14.7756 13.7901 14.635 14.3606 12.9687C14.8205 11.6275 14.338 10.8531 13.3895 10.3487C14.0805 10.1862 14.6003 9.72187 14.7391 8.7625ZM12.3237 12.2237C11.9977 13.5656 9.7871 12.84 9.07041 12.6581L9.65134 10.28C10.368 10.4631 12.6655 10.825 12.3237 12.2237ZM12.6508 8.74313C12.353 9.96375 10.5136 9.34312 9.91735 9.19125L10.4433 7.035C11.0395 7.18687 12.9615 7.47 12.6508 8.74313Z" fill="white"/>
</svg>
