<svg width="40" height="28" viewBox="0 0 40 28" fill="none" xmlns="http://www.w3.org/2000/svg">
<path d="M40 -3.15087e-08C40 9.00848 40 18.0178 40 27.0262C26.674 27.0254 13.3472 27.0254 0.0211436 27.0246C0.0172286 26.9849 0.0101815 26.9444 0.0101815 26.9046C0.00861551 18.047 0.0109645 9.18926 2.42778e-06 0.331576C-0.000780581 -0.0389135 0.187924 0.00243209 0.411865 0.00243209C4.8758 0.00405348 9.33973 0.00405348 13.8029 0.00324278C22.5358 0.00243207 31.2679 0.00162137 40 -3.15087e-08ZM35.5282 13.507C35.4539 13.3433 35.3153 13.2882 35.2002 13.2111C30.2077 9.89944 25.2137 6.59017 20.2267 3.27036C19.9652 3.09606 19.7984 3.15362 19.5705 3.31008C15.4276 6.14671 11.28 8.97686 7.13399 11.8078C6.33063 12.3559 5.53196 12.9112 4.72468 13.4543C4.51796 13.593 4.45532 13.6984 4.71606 13.8338C4.78497 13.8702 4.84761 13.9213 4.91338 13.9643C9.85808 17.2281 14.8043 20.4896 19.7436 23.7632C20.0301 23.9529 20.2259 23.9456 20.5054 23.7543C23.4112 21.7632 26.3271 19.7875 29.2399 17.807C31.2287 16.4547 33.2168 15.1009 35.2049 13.747C35.3106 13.6749 35.4124 13.5938 35.5282 13.507Z" fill="#17A04A"/>
<path d="M35.5273 13.5071C35.4115 13.593 35.3097 13.6749 35.2032 13.747C33.2151 15.1009 31.2271 16.454 29.2382 17.807C26.3254 19.7875 23.4103 21.7632 20.5038 23.7543C20.2242 23.9456 20.0285 23.9529 19.7419 23.7632C14.8027 20.4896 9.8564 17.2282 4.9117 13.9643C4.84593 13.9205 4.78407 13.8695 4.71438 13.8338C4.45442 13.6976 4.51706 13.593 4.723 13.4544C5.53106 12.9112 6.32973 12.3559 7.1331 11.8078C11.2791 8.97608 15.4267 6.14674 19.5696 3.31011C19.7975 3.15364 19.9643 3.09608 20.2258 3.27038C25.2128 6.591 30.2076 9.89946 35.1993 13.2112C35.3144 13.2882 35.453 13.3433 35.5273 13.5071ZM26.1375 14.7645C26.3286 13.9262 26.3074 13.0831 26.1312 12.2513C25.4046 8.83015 22.3783 6.64613 19.016 7.2047C16.8189 7.56951 15.2224 8.84718 14.3062 10.9753C13.9155 11.8135 13.7636 12.702 13.773 13.6262C13.737 13.9781 13.7918 14.3283 13.8623 14.6647C14.4354 17.3846 16.0257 19.143 18.6402 19.8143C21.102 20.4466 23.6342 19.3919 25.1392 17.2168C25.6395 16.4726 25.9926 15.6635 26.1375 14.7645Z" fill="#FFDF30"/>
<path d="M25.1354 17.2171C23.6305 19.3922 21.0982 20.4478 18.6365 19.8146C16.022 19.1434 14.4325 17.3849 13.8585 14.6651C13.7873 14.3286 13.7333 13.9784 13.7693 13.6266C15.625 13.0372 17.4964 12.9812 19.3827 13.4531C21.7121 14.0351 23.607 15.3282 25.1354 17.2171Z" fill="#2C51B2"/>
<path d="M14.3027 10.9752C15.2189 8.84713 16.8154 7.56947 19.0125 7.20466C22.374 6.64609 25.4011 8.83011 26.1277 12.2513C26.3047 13.0838 26.3251 13.9262 26.134 14.7644C23.4444 11.9845 20.1933 10.6534 16.3942 10.7361C15.6902 10.7523 14.9988 10.8877 14.3027 10.9752Z" fill="#2C51B3"/>
<path d="M14.3081 10.9754C15.0041 10.8879 15.6963 10.7525 16.3995 10.7371C20.1986 10.6536 23.4497 11.9848 26.1393 14.7655C25.9945 15.6645 25.6413 16.4728 25.141 17.2178C23.6125 15.3289 21.7177 14.0358 19.3882 13.4537C17.5019 12.9819 15.6306 13.0379 13.7748 13.6272C13.7654 12.703 13.9165 11.8137 14.3081 10.9754Z" fill="#EEEEEE"/>
</svg>
