<svg width="15" height="16" viewBox="0 0 15 16" fill="none" xmlns="http://www.w3.org/2000/svg">
<g opacity="0.9" clip-path="url(#clip0_3191_329915)">
<path d="M10.7091 0.000976566C11.2275 0.000976566 11.7456 0.000976567 12.264 0.000976567C12.264 0.535049 12.264 1.06912 12.264 1.61258C12.542 1.61258 12.7947 1.61146 13.047 1.61296C13.891 1.61784 14.5765 2.32242 14.5772 3.19564C14.5791 6.93565 14.5791 10.6753 14.5772 14.4153C14.5769 15.2893 13.8921 15.9995 13.0492 15.9999C9.4403 16.0017 5.83139 16.0014 2.22248 15.9999C1.55399 15.9995 0.975402 15.5563 0.765864 14.8945C0.744113 14.8254 0.717648 14.7574 0.693359 14.6891C0.693359 10.7925 0.693359 6.89546 0.693359 2.99846C0.702422 2.98269 0.716198 2.96804 0.720186 2.95077C0.914498 2.07266 1.46916 1.61258 2.33595 1.61258C2.55636 1.61258 2.77641 1.61258 3.0077 1.61258C3.0077 1.05936 3.0077 0.530166 3.0077 0.000976563C3.52611 0.000976564 4.04416 0.000976564 4.56256 0.000976564C4.56256 0.534673 4.56256 1.06799 4.56256 1.60056C6.6235 1.60056 8.66197 1.60056 10.7095 1.60056C10.7091 1.05936 10.7091 0.530166 10.7091 0.000976566ZM2.25692 5.62376C2.25692 8.55589 2.25692 11.4685 2.25692 14.3804C5.85133 14.3804 9.43305 14.3804 13.0144 14.3804C13.0144 11.4546 13.0144 8.54237 13.0144 5.62376C9.42435 5.62376 5.84662 5.62376 2.25692 5.62376Z" fill="white" fill-opacity="0.7"/>
<path d="M7.65039 8.81689C8.93517 8.81689 10.2087 8.81689 11.4913 8.81689C11.4913 10.1464 11.4913 11.4658 11.4913 12.7984C10.2112 12.7984 8.93807 12.7984 7.65039 12.7984C7.65039 11.4782 7.65039 10.154 7.65039 8.81689Z" fill="white" fill-opacity="0.7"/>
</g>
<defs>
<clipPath id="clip0_3191_329915">
<rect width="13.885" height="16" fill="white" transform="translate(0.693359 0.000976562)"/>
</clipPath>
</defs>
</svg>
