<svg width="700" height="700" viewBox="0 0 700 700" fill="none" xmlns="http://www.w3.org/2000/svg">
<circle cx="350" cy="350" r="350" fill="#3C01B8"/>
<path d="M184.104 652.79C187.164 653.6 189.863 655.02 192.023 657.37C188.193 657.9 185.594 656.3 184.104 652.79Z" fill="#5A44AA"/>
<path d="M193.204 657.63C193.474 657.87 193.744 658.12 194.004 658.36C193.734 658.11 193.474 657.87 193.204 657.63Z" fill="#5A44AA"/>
<path d="M373.994 472.13C373.344 472 372.704 471.88 372.054 471.75C368.644 471.17 365.234 470.61 361.834 470C355.624 468.87 355.634 468.86 354.834 475.54C354.634 476.2 354.434 476.85 354.234 477.51C350.974 490.29 347.514 503.02 344.564 515.87C343.634 519.92 342.204 521.62 338.114 520.33C337.424 520.12 336.744 519.92 336.054 519.71C329.354 517.96 322.684 516.03 315.924 514.53C312.634 513.8 311.764 512.86 312.704 509.27C316.504 494.74 319.864 480.1 323.384 465.5C323.564 464.86 323.734 464.22 323.914 463.57C324.834 461.36 323.034 461.57 321.854 461.26C315.754 459.65 309.554 458.36 303.594 456.34C299.744 455.04 298.874 456.47 298.094 459.77C294.734 473.99 291.044 488.13 287.754 502.36C286.884 506.14 285.524 507.07 281.734 506C272.954 503.53 264.044 501.52 255.194 499.33L255.254 499.39C257.634 489.16 260.004 478.93 262.384 468.7L262.354 468.75C263.554 464.5 264.844 460.28 265.934 456C268.344 446.48 268.304 446.47 258.054 444.57L257.974 444.56C242.804 440.64 227.644 436.73 212.474 432.81C205.054 430.89 205.054 430.87 207.514 423.88L207.174 423.74L207.534 423.85C208.674 421.87 209.794 419.88 210.124 417.56L210.114 417.59C213.164 412.28 215.294 406.57 217.474 400.87L217.094 400.63L217.484 400.85C218.294 399.06 219.114 397.27 219.924 395.48L220.064 395.3C227.974 397.12 235.844 399.18 243.814 400.69C251.284 402.1 256.204 398.91 258.014 391.68C269.644 345.35 281.214 299 292.734 252.65C294.464 245.68 290.834 238.79 284.114 235.5L284.134 235.51C275.334 230.91 265.524 229.86 256.064 227.59L256.024 227.57C255.344 224.76 257.334 222.31 257.074 219.56V219.57C258.884 212.68 260.934 205.84 262.404 198.88C263.304 194.63 264.904 193.83 269.114 194.95C286.594 199.6 304.204 203.76 321.714 208.3C325.654 209.32 327.714 209.48 328.804 204.42C331.914 189.99 335.834 175.74 339.304 161.39C339.974 158.64 340.814 157.68 343.894 158.59C351.374 160.78 358.914 162.9 366.564 164.29C371.324 165.15 371.354 167.02 370.304 170.97C366.644 184.76 363.534 198.69 359.844 212.47C358.914 215.93 359.974 216.72 362.914 217.33C368.754 218.54 374.574 219.94 380.354 221.43C383.344 222.2 384.624 221.68 385.414 218.27C388.684 204.22 392.604 190.31 395.774 176.24C396.694 172.16 398.304 172.13 401.514 172.96C410.014 175.16 418.574 177.17 427.104 179.25C427.364 179.44 427.664 179.56 427.984 179.59C427.804 180.73 427.704 181.89 427.434 183.01C423.754 197.84 420.044 212.67 416.334 227.5C415.804 229.6 414.994 231.6 418.174 232.57C427.424 235.39 435.984 239.89 444.724 243.94L444.824 243.64L444.734 243.93C445.164 244.15 445.594 244.38 446.014 244.6H446.004C449.974 247.29 453.954 249.99 457.924 252.68L457.914 252.67C458.824 254.15 460.244 255.02 461.674 255.89L461.954 255.63L461.684 255.91C465.774 260.21 469.574 264.74 472.994 269.59L472.984 269.57C473.254 270.09 473.534 270.6 473.804 271.12L473.774 271.38L473.984 271.53C473.924 272.41 474.354 273.04 475.014 273.56C479.294 283.54 479.624 294 478.784 304.61C478.604 305.26 478.434 305.9 478.254 306.55C475.854 318.45 471.244 329.25 462.604 338.05L462.824 338.36L462.574 338.07C462.024 338.55 461.464 339.04 460.914 339.52C460.594 339.81 460.284 340.1 459.964 340.39C457.944 341.74 455.934 343.1 453.924 344.45L453.934 344.44C449.164 346.36 444.384 348.28 439.114 350.39C441.174 351.85 442.874 353.06 444.994 353.59C449.314 356.93 453.634 360.27 457.954 363.6L457.974 363.62C459.964 365.95 461.954 368.28 463.944 370.62V370.63C469.254 379.28 472.514 388.49 472.484 398.83C472.454 408.78 469.964 418.2 467.104 427.58L467.084 427.67C465.574 431.13 464.074 434.58 462.564 438.04L462.464 438.17C462.284 438.62 462.104 439.07 461.914 439.52L461.934 439.46C461.184 439.94 460.874 440.65 460.914 441.52L460.934 441.47C460.504 441.97 459.994 442.41 459.664 442.97C449.724 459.53 434.894 468.68 416.104 472.04C402.064 474.53 388.044 473.25 373.994 472.13ZM413.204 310.72C419.714 300.43 418.634 286.9 410.584 277.99C406.054 272.97 400.484 269.4 394.454 266.47C381.944 260.41 368.444 257.63 355.084 254.31C351.064 253.31 350.024 254.59 349.184 258.1C345.034 275.37 340.694 292.59 336.404 309.82C334.784 316.33 334.744 316.39 341.224 318.12C356.834 322.3 372.534 326.15 388.874 324.58C398.904 323.61 408.084 320.59 413.204 310.72ZM366.324 427.83C371.834 427.9 377.324 427.76 382.714 426.52C394.594 423.78 403.334 417.54 406.534 405.13C409.674 392.92 406.044 382.88 396.834 374.58C393.224 371.33 389.234 368.67 384.964 366.37C367.624 357 348.524 353.15 329.614 348.67C326.944 348.04 326.564 349.58 326.084 351.5C320.864 372.45 315.624 393.39 310.314 414.32C309.754 416.52 310.104 417.71 312.444 418.3C330.184 422.73 347.824 427.71 366.324 427.83Z" fill="#FDFCFD"/>
<path d="M636.891 323.656C635.221 323.656 633.561 323.656 631.891 323.656C621.531 323.656 621.521 323.656 620.411 313.626C614.221 257.876 592.581 208.826 556.331 166.166C542.721 150.146 527.281 136.066 510.271 123.686C473.331 96.7962 432.171 80.4362 387.041 73.9162C382.931 73.3262 378.771 72.8662 374.621 72.7662C370.711 72.6762 369.381 70.9462 369.471 67.1962C369.641 60.0362 369.701 52.8662 369.471 45.7062C369.341 41.7962 371.041 40.7262 374.561 41.0562C386.491 42.1962 398.361 43.7062 410.111 46.1062C456.071 55.4662 497.751 74.2262 534.831 102.996C583.461 140.726 617.931 188.656 637.681 247.016C645.611 270.446 650.611 294.486 652.301 319.206C652.531 322.586 651.721 323.806 648.401 323.696C644.561 323.556 640.731 323.656 636.891 323.656Z" fill="url(#paint0_linear_805_40470)"/>
<path d="M370.704 630.17C370.714 627.84 370.714 625.5 370.704 623.17C370.694 615.19 370.694 615.19 378.404 614.41C431.354 609.05 478.704 589.76 520.194 556.54C562.354 522.78 592.044 480.15 609.194 428.85C615.774 409.17 619.634 388.95 621.684 368.36C622.044 364.78 623.244 363.33 626.854 363.41C634.014 363.57 641.184 363.51 648.344 363.44C651.664 363.41 653.154 364.45 652.804 368.17C650.734 389.77 646.964 411.01 640.654 431.8C629.434 468.73 611.804 502.25 587.804 532.48C560.684 566.64 527.614 593.52 488.904 613.53C454.934 631.1 418.804 641.43 380.844 645.54C370.714 646.64 370.694 646.59 370.694 636.68C370.704 634.5 370.694 632.34 370.704 630.17Z" fill="#33B2EF"/>
<path d="M330.304 57.25C330.304 58.25 330.304 59.25 330.304 60.25C330.304 72.65 330.284 72.44 318.104 73.74C279.224 77.88 243.264 90.73 209.774 110.73C187.154 124.23 166.944 140.78 149.314 160.28C115.404 197.8 93.0643 241.31 83.2843 291.08C81.4243 300.55 79.8043 310.07 79.3243 319.72C79.1743 322.68 78.0043 323.86 75.0543 323.83C67.3943 323.73 59.7243 323.72 52.0643 323.84C48.6443 323.9 47.7543 322.34 48.0543 319.21C51.8143 280.21 61.7243 243.01 79.5343 207.93C108.714 150.46 151.684 106.62 208.374 76.11C242.074 57.98 278.064 47.23 315.964 42.57C317.284 42.41 318.624 42.42 319.954 42.34C330.314 41.76 330.314 41.76 330.314 52.24C330.314 53.91 330.314 55.58 330.304 57.25Z" fill="#33B2EF"/>
<path d="M427.084 179.24C418.554 177.16 409.994 175.16 401.494 172.95C398.294 172.12 396.674 172.15 395.754 176.23C392.584 190.3 388.664 204.21 385.394 218.26C384.604 221.67 383.314 222.19 380.334 221.42C374.554 219.93 368.744 218.54 362.894 217.32C359.954 216.71 358.894 215.92 359.824 212.46C363.514 198.68 366.634 184.75 370.284 170.96C371.334 167.01 371.304 165.14 366.544 164.28C358.894 162.89 351.354 160.77 343.874 158.58C340.794 157.67 339.954 158.63 339.284 161.38C335.814 175.73 331.894 189.98 328.784 204.41C327.694 209.47 325.624 209.31 321.694 208.29C304.184 203.75 286.574 199.59 269.094 194.94C264.884 193.82 263.284 194.62 262.384 198.87C260.914 205.83 258.864 212.67 257.054 219.56C256.164 212.99 259.434 207.23 260.704 201.09C262.564 192.09 262.564 192.14 271.464 194.39C286.414 198.17 301.374 201.89 316.334 205.65C318.434 206.18 320.514 206.66 322.724 206.6C325.234 206.53 326.354 205.52 327.184 202.97C331.354 190.05 333.174 176.55 337.124 163.58C338.974 157.51 339.544 155.19 347.084 157.85C354.024 160.3 361.344 161.87 368.764 162.64C372.264 163 373.804 165.75 372.714 169.59C370.274 178.18 367.144 186.65 365.594 195.4C364.574 201.13 363.434 206.7 361.474 212.15C360.724 214.23 361.734 215.26 363.704 215.72C368.524 216.84 373.314 218.2 378.184 219.06C382.064 219.74 384.074 216.69 384.884 213.76C388.194 201.75 391.224 189.65 394.094 177.52C395.854 170.08 396.124 170.08 403.724 172.05C409.804 173.62 416.014 174.71 422.014 176.65C423.834 177.24 426.034 177.11 427.084 179.24Z" fill="#4E1CB2"/>
<path d="M284.094 235.49C290.814 238.78 294.454 245.67 292.714 252.64C281.194 299 269.624 345.34 257.994 391.67C256.184 398.9 251.264 402.09 243.794 400.68C235.824 399.17 227.954 397.11 220.044 395.29C224.584 393.01 228.704 395.81 232.974 396.45C235.904 396.89 238.744 397.94 241.624 398.71C251.744 401.42 254.314 396.66 257.084 387.67C260.494 376.59 263.004 365.27 265.954 354.06C267.724 347.33 268.614 340.44 270.654 333.76C273.584 324.17 275.874 314.39 278.234 304.64C281.314 291.94 284.014 279.14 287.264 266.48C288.454 261.86 290.434 257.38 290.974 252.62C291.554 247.53 290.984 242.6 286.084 239.36C284.784 238.5 284.294 237.03 284.094 235.49Z" fill="#4E1CB2"/>
<path d="M255.204 499.33C264.054 501.53 272.964 503.54 281.744 506C285.534 507.06 286.894 506.14 287.764 502.36C291.054 488.13 294.744 473.98 298.104 459.77C298.884 456.47 299.754 455.04 303.604 456.34C309.564 458.36 315.764 459.65 321.864 461.26C323.044 461.57 324.854 461.36 323.924 463.57C317.274 462.82 311.254 459.77 304.774 458.36C301.134 457.57 299.624 458.64 298.984 462.25C297.214 472.34 294.634 482.25 291.804 492.1C290.624 496.21 289.834 500.43 288.744 504.57C288.094 507.05 286.524 509.21 283.804 508.25C275.364 505.25 266.474 504.21 257.894 501.88C256.564 501.51 255.394 500.93 255.204 499.33Z" fill="#4E1CB2"/>
<path d="M373.994 472.13C388.034 473.25 402.054 474.53 416.114 472.01C434.904 468.64 449.734 459.5 459.674 442.94C460.004 442.39 460.514 441.94 460.944 441.44C459.654 450.73 452.424 455.64 446.254 461.33C441.874 465.37 436.214 467.05 431.044 469.64C423.094 473.63 414.534 474.2 405.934 474.42C397.124 474.64 388.294 474.48 379.474 474.46C377.354 474.46 375.024 474.78 373.994 472.13Z" fill="#4E1CB2"/>
<path d="M444.704 243.92C435.964 239.87 427.404 235.37 418.154 232.55C414.964 231.58 415.784 229.58 416.314 227.48C420.024 212.65 423.724 197.83 427.414 182.99C427.694 181.87 427.784 180.71 427.964 179.57C431.114 181.19 429.254 184.03 428.724 185.64C424.854 197.41 423.024 209.7 419.324 221.5C418.644 223.68 418.914 226.02 417.814 228.24C416.894 230.09 418.544 231.16 420.444 231.53C428.734 233.16 435.354 238.63 443.114 241.52C443.834 241.8 444.184 243.1 444.704 243.92Z" fill="#4E1CB2"/>
<path d="M323.393 465.49C319.873 480.09 316.513 494.73 312.713 509.26C311.773 512.85 312.643 513.79 315.933 514.52C322.693 516.02 329.363 517.95 336.063 519.7C333.993 520.82 331.933 520.49 329.803 519.82C325.403 518.42 321.033 516.97 316.423 516.25C310.923 515.39 309.893 513.22 311.323 507.91C313.943 498.2 316.603 488.49 318.693 478.66C319.683 473.98 320.173 469.3 323.393 465.49Z" fill="#4E1CB2"/>
<path d="M467.104 427.55C469.964 418.17 472.444 408.75 472.484 398.8C472.514 388.46 469.254 379.25 463.944 370.6C467.124 370.94 468.354 373.58 469.354 375.88C474.944 388.73 474.894 402.05 472.144 415.53C471.754 417.46 471.084 419.39 471.044 421.33C470.974 424.33 469.914 426.43 467.104 427.55Z" fill="#4E1CB2"/>
<path d="M207.524 423.88C205.064 430.87 205.064 430.89 212.484 432.81C227.644 436.74 242.814 440.65 257.984 444.56C249.814 445.38 242.384 441.82 234.744 440.07C225.814 438.02 216.574 436.76 208.014 433.07C202.164 430.54 202.064 430.71 205.714 425.46C206.154 424.82 206.914 424.4 207.524 423.88Z" fill="#4E1CB2"/>
<path d="M338.114 520.32C342.204 521.61 343.634 519.91 344.564 515.86C347.504 503.01 350.974 490.28 354.234 477.5C355.014 478.69 355.134 480.01 354.804 481.33C351.724 493.65 348.794 506.02 345.454 518.27C343.944 523.8 342.444 524.01 338.114 520.32Z" fill="#4E1CB2"/>
<path d="M462.604 338.02C471.244 329.22 475.863 318.43 478.253 306.52C479.003 307.72 479.184 309.1 478.864 310.38C476.584 319.6 473.344 328.41 467.304 335.94C466.094 337.47 464.684 338.48 462.604 338.02Z" fill="#4E1CB2"/>
<path d="M262.394 468.7C260.014 478.93 257.644 489.16 255.264 499.39C251.584 496.27 254.984 492.8 255.594 490.11C256.824 484.67 258.744 479.38 259.434 473.75C259.654 471.91 260.774 470.01 262.394 468.7Z" fill="#4E1CB2"/>
<path d="M258.054 444.57C268.304 446.46 268.354 446.48 265.934 456C264.854 460.28 263.554 464.5 262.354 468.75C261.334 464.8 263.164 461.27 264.064 457.62C265.874 450.29 265.394 449.2 258.804 445.82C258.444 445.62 258.304 444.99 258.054 444.57Z" fill="#4E1CB2"/>
<path d="M478.793 304.59C479.643 293.99 479.303 283.53 475.023 273.54C480.193 279.8 480.783 287.39 480.863 294.97C480.893 298.19 482.613 302.09 478.793 304.59Z" fill="#4E1CB2"/>
<path d="M256.054 227.58C265.514 229.85 275.314 230.9 284.124 235.5C275.584 233.6 267.044 231.7 258.504 229.78C257.304 229.52 256.374 228.87 256.054 227.58Z" fill="#4E1CB2"/>
<path d="M444.994 353.57C442.874 353.04 441.164 351.83 439.114 350.37C444.384 348.25 449.164 346.33 453.934 344.42C453.594 347.32 451.354 348.05 449.044 348.47C446.104 349 444.734 350.59 444.994 353.57Z" fill="#4E1CB2"/>
<path d="M354.834 475.53C355.624 468.85 355.624 468.86 361.834 469.99C365.234 470.61 368.654 471.16 372.054 471.74C369.854 472.87 367.514 472.75 365.334 472.01C360.854 470.49 357.094 470.62 354.834 475.53Z" fill="#4E1CB2"/>
<path d="M473.004 269.58C469.584 264.73 465.784 260.2 461.694 255.9C466.874 257.43 472.384 264.08 473.004 269.58Z" fill="#4E1CB2"/>
<path d="M217.474 400.86C215.304 406.56 213.164 412.27 210.114 417.58C210.254 410.99 212.954 405.52 217.474 400.86Z" fill="#4E1CB2"/>
<path d="M457.914 252.67C453.944 249.98 449.964 247.28 445.994 244.59C451.434 245.12 456.364 246.4 457.914 252.67Z" fill="#4E1CB2"/>
<path d="M457.954 363.59C453.634 360.25 449.314 356.91 444.994 353.58C451.274 354.37 455.104 358.35 457.954 363.59Z" fill="#4E1CB2"/>
<path d="M462.574 438.01C464.084 434.55 465.584 431.1 467.094 427.64C466.644 431.56 467.564 436.07 462.574 438.01Z" fill="#4E1CB2"/>
<path d="M463.944 370.6C461.954 368.27 459.964 365.94 457.974 363.6C462.384 363.87 463.384 367.04 463.944 370.6Z" fill="#4E1CB2"/>
<path d="M210.124 417.56C209.794 419.88 208.674 421.87 207.534 423.85C207.374 421.33 205.654 418.17 210.124 417.56Z" fill="#4E1CB2"/>
<path d="M453.914 344.43C455.924 343.08 457.944 341.72 459.954 340.37C459.334 343.78 456.784 344.34 453.914 344.43Z" fill="#4E1CB2"/>
<path d="M219.914 395.48C219.104 397.27 218.284 399.06 217.474 400.85C216.974 398.46 216.914 396.27 219.914 395.48Z" fill="#4E1CB2"/>
<path d="M257.064 219.56C257.324 222.31 255.334 224.76 256.014 227.57C254.104 224.6 255.034 222.01 257.064 219.56Z" fill="#4E1CB2"/>
<path d="M461.674 255.88C460.244 255.01 458.814 254.14 457.914 252.66C460.144 252.59 461.834 253.15 461.674 255.88Z" fill="#4E1CB2"/>
<path d="M460.924 441.49C460.894 440.62 461.194 439.91 461.944 439.43C461.984 440.31 461.614 440.98 460.924 441.49Z" fill="#4E1CB2"/>
<path d="M460.904 339.5C461.454 339.02 462.014 338.54 462.564 338.05C462.404 338.98 461.784 339.39 460.904 339.5Z" fill="#4E1CB2"/>
<path d="M475.024 273.55C474.374 273.03 473.944 272.4 473.994 271.52C474.334 272.2 474.684 272.87 475.024 273.55Z" fill="#4E1CB2"/>
<path d="M461.924 439.49C462.104 439.04 462.284 438.59 462.474 438.14C462.294 438.59 462.114 439.04 461.924 439.49Z" fill="#4E1CB2"/>
<path d="M366.324 427.83C347.824 427.71 330.194 422.74 312.454 418.3C310.104 417.71 309.764 416.52 310.324 414.32C315.634 393.39 320.864 372.45 326.094 351.5C326.574 349.58 326.954 348.04 329.624 348.67C348.534 353.15 367.634 356.99 384.974 366.37C389.234 368.67 393.234 371.33 396.844 374.58C406.054 382.88 409.684 392.92 406.544 405.13C403.344 417.55 394.604 423.79 382.724 426.52C377.314 427.75 371.824 427.9 366.324 427.83Z" fill="#3C01B8"/>
<path d="M413.204 310.72C408.084 320.59 398.904 323.61 388.864 324.58C372.524 326.15 356.824 322.3 341.214 318.12C334.734 316.38 334.774 316.33 336.394 309.82C340.684 292.59 345.024 275.37 349.174 258.1C350.014 254.59 351.054 253.31 355.074 254.31C368.434 257.63 381.934 260.41 394.444 266.47C400.474 269.39 406.044 272.97 410.574 277.99C418.634 286.89 419.714 300.43 413.204 310.72C412.834 308.48 413.824 306.48 414.244 304.38C415.554 297.79 415.924 291.34 412.694 284.98C408.524 276.76 401.114 272.31 393.584 268.23C381.374 261.61 367.804 258.96 354.354 256.11C353.204 255.87 351.184 255.71 351.514 256.9C352.614 260.8 349.434 263.16 348.714 266.37C347.794 270.44 347.914 274.83 346.494 278.58C342.524 289.09 342.284 300.55 337.774 310.87C336.614 313.53 337.554 315.41 340.274 316.35C345.784 318.24 351.604 318.74 357.244 320.28C368.324 323.29 379.904 322.88 391.354 322.61C393.964 322.55 396.454 321.99 398.224 320.13C401.884 316.3 408.764 316.91 410.814 310.87C410.914 310.57 412.374 310.75 413.204 310.72Z" fill="#4E1CB2"/>
<path d="M413.204 310.72C412.374 310.76 410.914 310.58 410.814 310.86C408.764 316.9 401.884 316.3 398.224 320.12C396.454 321.98 393.964 322.54 391.354 322.6C379.904 322.87 368.324 323.28 357.244 320.27C351.604 318.74 345.784 318.23 340.274 316.34C337.554 315.41 336.604 313.53 337.774 310.86C342.284 300.54 342.534 289.08 346.494 278.57C347.904 274.82 347.794 270.43 348.714 266.36C349.434 263.16 352.614 260.8 351.514 256.89C351.184 255.7 353.204 255.85 354.354 256.1C367.804 258.94 381.374 261.59 393.584 268.22C401.114 272.3 408.524 276.74 412.694 284.97C415.924 291.34 415.554 297.78 414.244 304.37C413.814 306.48 412.834 308.48 413.204 310.72Z" fill="#3C01B8"/>
<path d="M63.91 364.047C65.58 364.047 67.24 364.047 68.91 364.047C79.27 364.047 79.28 364.047 80.39 374.077C86.58 429.827 108.22 478.877 144.47 521.537C158.08 537.557 173.52 551.637 190.53 564.017C227.47 590.907 268.63 607.267 313.76 613.787C317.87 614.377 322.03 614.837 326.18 614.937C330.09 615.027 331.42 616.757 331.33 620.507C331.16 627.667 331.1 634.837 331.33 641.997C331.46 645.907 329.76 646.977 326.24 646.647C314.31 645.507 302.44 643.997 290.69 641.597C244.73 632.237 203.05 613.477 165.97 584.707C117.34 546.977 82.87 499.047 63.12 440.687C55.19 417.257 50.1901 393.217 48.5001 368.497C48.2701 365.117 49.08 363.897 52.4 364.007C56.24 364.147 60.07 364.047 63.91 364.047Z" fill="url(#paint1_linear_805_40470)"/>
<defs>
<linearGradient id="paint0_linear_805_40470" x1="510.9" y1="41" x2="510.9" y2="323.703" gradientUnits="userSpaceOnUse">
<stop stop-color="#FDAE3F"/>
<stop offset="1" stop-color="#F15A23"/>
</linearGradient>
<linearGradient id="paint1_linear_805_40470" x1="189.9" y1="646.703" x2="189.9" y2="364" gradientUnits="userSpaceOnUse">
<stop stop-color="#FF077A"/>
<stop offset="1" stop-color="#5E20AB"/>
</linearGradient>
</defs>
</svg>
