<svg width="17" height="18" viewBox="0 0 17 18"  xmlns="http://www.w3.org/2000/svg">
<path opacity="1" d="M15.8803 2.32031L14.0527 0.527344C13.7302 0.210938 13.3002 -1.79668e-09 12.8344 -1.73197e-09L6.67099 -8.75941e-10C5.70348 -7.41564e-10 4.95098 0.773438 4.95098 1.6875L4.95098 3.375L2.08428 3.375C1.11677 3.375 0.364258 4.14844 0.364258 5.0625L0.364258 16.3125C0.364258 17.2617 1.11677 18 2.08428 18L10.111 18C11.0427 18 11.8311 17.2617 11.8311 16.3125L11.8311 14.625L14.6978 14.625C15.6294 14.625 16.4178 13.8867 16.4178 12.9375L16.4178 3.51563C16.4178 3.05859 16.2028 2.63672 15.8803 2.32031ZM9.89603 16.3125L2.29928 16.3125C2.15594 16.3125 2.08428 16.2422 2.08428 16.1016L2.08428 5.27344C2.08428 5.16797 2.15594 5.0625 2.29928 5.0625L4.95098 5.0625L4.95098 12.9375C4.95098 13.8867 5.70348 14.625 6.67099 14.625L10.111 14.625L10.111 16.1016C10.111 16.2422 10.0035 16.3125 9.89603 16.3125ZM14.4827 12.9375L6.886 12.9375C6.74266 12.9375 6.67099 12.8672 6.67099 12.7266L6.67099 1.89844C6.67099 1.79297 6.74266 1.6875 6.886 1.6875L10.6844 1.6875L10.6844 4.78125C10.6844 5.27344 11.0427 5.625 11.5444 5.625L14.6978 5.625L14.6978 12.7266C14.6978 12.8672 14.5902 12.9375 14.4827 12.9375ZM14.6978 3.9375L12.4044 3.9375L12.4044 1.6875L12.7269 1.6875C12.7986 1.6875 12.8344 1.72266 12.8702 1.75781L14.6261 3.48047C14.6619 3.51563 14.6978 3.55078 14.6978 3.62109L14.6978 3.9375Z"/>
</svg>
