<svg width="17" height="19" viewBox="0 0 17 19" fill="none" xmlns="http://www.w3.org/2000/svg">
<path opacity="0.6" d="M15.8808 3.20703L14.0532 1.41406C13.7307 1.09766 13.3007 0.886719 12.8349 0.886719L6.67148 0.886719C5.70397 0.886719 4.95146 1.66016 4.95146 2.57422L4.95146 4.26172L2.08477 4.26172C1.11725 4.26172 0.364746 5.03516 0.364746 5.94922L0.364746 17.1992C0.364746 18.1484 1.11725 18.8867 2.08477 18.8867L10.1115 18.8867C11.0432 18.8867 11.8315 18.1484 11.8315 17.1992L11.8315 15.5117L14.6982 15.5117C15.6299 15.5117 16.4183 14.7734 16.4183 13.8242L16.4183 4.40234C16.4183 3.94531 16.2033 3.52344 15.8808 3.20703ZM9.89652 17.1992L2.29977 17.1992C2.15643 17.1992 2.08477 17.1289 2.08477 16.9883L2.08477 6.16016C2.08477 6.05469 2.15643 5.94922 2.29977 5.94922L4.95146 5.94922L4.95146 13.8242C4.95146 14.7734 5.70397 15.5117 6.67148 15.5117L10.1115 15.5117L10.1115 16.9883C10.1115 17.1289 10.004 17.1992 9.89652 17.1992ZM14.4832 13.8242L6.88649 13.8242C6.74315 13.8242 6.67148 13.7539 6.67148 13.6133L6.67148 2.78516C6.67148 2.67969 6.74315 2.57422 6.88649 2.57422L10.6849 2.57422L10.6849 5.66797C10.6849 6.16016 11.0432 6.51172 11.5449 6.51172L14.6982 6.51172L14.6982 13.6133C14.6982 13.7539 14.5907 13.8242 14.4832 13.8242ZM14.6982 4.82422L12.4049 4.82422L12.4049 2.57422L12.7274 2.57422C12.7991 2.57422 12.8349 2.60938 12.8707 2.64453L14.6266 4.36719C14.6624 4.40234 14.6982 4.4375 14.6982 4.50781L14.6982 4.82422Z" fill="#1B183F"/>
</svg>
