<svg width="12" height="13" viewBox="0 0 12 13" fill="none" xmlns="http://www.w3.org/2000/svg">
<path d="M11.5982 1.67578L10.2321 0.380859C9.99107 0.152344 9.66964 3.40267e-08 9.32143 3.28014e-08L4.71429 1.65892e-08C3.99107 1.40443e-08 3.42857 0.558594 3.42857 1.21875L3.42857 2.4375L1.28571 2.4375C0.5625 2.4375 8.15271e-09 2.99609 9.94907e-09 3.65625L3.20581e-08 11.7812C3.39236e-08 12.4668 0.5625 13 1.28571 13L7.28571 13C7.98214 13 8.57143 12.4668 8.57143 11.7813L8.57143 10.5625L10.7143 10.5625C11.4107 10.5625 12 10.0293 12 9.34375L12 2.53906C12 2.20898 11.8393 1.9043 11.5982 1.67578ZM7.125 11.7813L1.44643 11.7813C1.33929 11.7813 1.28571 11.7305 1.28571 11.6289L1.28571 3.80859C1.28571 3.73242 1.33929 3.65625 1.44643 3.65625L3.42857 3.65625L3.42857 9.34375C3.42857 10.0293 3.99107 10.5625 4.71429 10.5625L7.28571 10.5625L7.28571 11.6289C7.28571 11.7305 7.20536 11.7813 7.125 11.7813ZM10.5536 9.34375L4.875 9.34375C4.76786 9.34375 4.71429 9.29297 4.71429 9.19141L4.71429 1.37109C4.71429 1.29492 4.76786 1.21875 4.875 1.21875L7.71429 1.21875L7.71429 3.45312C7.71429 3.80859 7.98214 4.0625 8.35714 4.0625L10.7143 4.0625L10.7143 9.19141C10.7143 9.29297 10.6339 9.34375 10.5536 9.34375ZM10.7143 2.84375L9 2.84375L9 1.21875L9.24107 1.21875C9.29464 1.21875 9.32143 1.24414 9.34821 1.26953L10.6607 2.51367C10.6875 2.53906 10.7143 2.56445 10.7143 2.61523L10.7143 2.84375Z" fill="#6F6C99"/>
</svg>
