<svg width="20" height="17" viewBox="0 0 20 17" fill="none" xmlns="http://www.w3.org/2000/svg">
<path d="M19.9826 9.56722C19.9652 8.83901 19.5826 8.2782 18.887 7.94339C18.8522 7.92665 18.8435 7.91828 18.8435 7.91828C18.8435 7.91828 18.8348 7.90154 18.8348 7.85968C18.8435 6.98081 18.8435 6.11867 18.8348 5.25653C18.8348 5.08076 18.7652 4.82965 18.6 4.67899C18.4609 4.55343 18.2261 4.46973 17.9826 4.45299C17.8957 4.44462 17.8261 4.44462 17.7739 4.44462C17.7652 4.44462 17.7565 4.44462 17.7478 4.44462C17.7391 4.42788 17.7304 4.40277 17.7304 4.38603C17.713 4.34417 17.6957 4.29395 17.6783 4.23536C17.4522 3.64944 17.2348 3.06352 17.0087 2.47761C16.7652 1.84147 16.5217 1.20533 16.2783 0.560817C16.0957 0.0753417 15.6783 -0.108804 15.1739 0.0669715L13.6696 0.585928C12.2 1.09651 10.6783 1.63221 9.18261 2.1428C9.02609 2.19302 8.85217 2.2265 8.68696 2.2265C7.37391 2.2265 6.04348 2.2265 4.74783 2.2265C3.84348 2.2265 2.93913 2.2265 2.02609 2.2265C0.817391 2.23487 0 3.02167 0 4.19351C0 7.80946 0 11.4254 0 15.033C0 15.1669 0 15.3092 0.026087 15.4431C0.191304 16.389 0.973913 16.9916 2.01739 17C3.15652 17 4.29565 17 5.44348 17C6.1913 17 6.93913 17 7.68696 17H12.1043C14.0348 17 15.9652 17 17.8957 17C18.5478 17 18.8435 16.7154 18.8435 16.0793V15.5101C18.8435 14.8823 18.8435 14.2295 18.8435 13.5849C18.8435 13.5347 18.8522 13.5264 18.8522 13.518C18.8522 13.518 18.8609 13.5096 18.9043 13.4845C19.6 13.1497 19.9739 12.5973 19.9913 11.869C20.0087 11.1157 20.0087 10.3373 19.9826 9.56722ZM17.2435 7.75087C17.2348 7.75087 17.2261 7.75087 17.2174 7.75087C16.9217 7.75087 16.6261 7.75087 16.3304 7.75087C15.7652 7.75087 15.1826 7.75087 14.6087 7.75087C13.7565 7.75924 12.9739 8.07731 12.4 8.64649C11.8261 9.21567 11.513 9.98573 11.5304 10.806C11.5652 12.3964 12.9217 13.6603 14.6348 13.6854C15.2261 13.6938 15.8261 13.6938 16.4087 13.6854C16.6696 13.6854 16.9391 13.6854 17.2 13.6854H17.2522V15.4683C17.2435 15.4683 17.2348 15.4683 17.2261 15.4683C12.1739 15.4683 7.12174 15.4683 2.06957 15.4683C1.67826 15.4683 1.57391 15.3678 1.57391 14.9995V5.93452C1.62609 5.93452 1.67826 5.93452 1.73043 5.94289C1.9913 5.95127 2.26957 5.96801 2.53913 5.96801C6.42609 5.96801 10.313 5.96801 14.2 5.96801H17.2522V7.75087H17.2435ZM16.487 12.162L16.2696 12.1536C16.087 12.1536 15.9043 12.1536 15.7217 12.1536C15.3217 12.1536 14.9043 12.162 14.4957 12.1453C13.8957 12.1201 13.3739 11.7184 13.1826 11.1492C13 10.5968 13.1826 9.97736 13.6435 9.60907C13.9304 9.38307 14.2522 9.26589 14.6522 9.26589C15.9478 9.26589 17 9.26589 17.9739 9.26589C18.2783 9.26589 18.4 9.38307 18.4 9.67603C18.4 10.421 18.4 11.099 18.4 11.7435C18.4 12.0197 18.2696 12.1453 17.9826 12.1453C17.5826 12.1453 17.1739 12.1453 16.7826 12.1453C16.687 12.162 16.5913 12.162 16.487 12.162ZM4.08696 3.92566C3.66956 4.06796 3.23478 4.21862 2.81739 4.37766C2.51304 4.48647 2.1913 4.46136 1.85217 4.42788H1.84348C1.67826 4.41114 1.57391 4.23536 1.58261 4.09307C1.5913 3.92566 1.73043 3.78337 1.90435 3.775C2 3.76663 2.10435 3.76663 2.2087 3.76663C2.26087 3.76663 2.31304 3.76663 2.36522 3.76663C2.41739 3.76663 2.46957 3.76663 2.52174 3.76663C3.2 3.76663 3.88696 3.76663 4.56522 3.76663C4.4 3.81685 4.24348 3.87544 4.08696 3.92566ZM14.5913 1.89169L15.0435 1.73265L15.2087 2.15954C14.9652 2.11769 14.7739 2.02561 14.5913 1.89169ZM12.9739 2.44413C12.9826 2.4525 12.9826 2.46087 12.9913 2.46924C13.687 3.36485 14.6261 3.78337 15.7739 3.70803C15.8696 3.9424 15.9565 4.17677 16.0522 4.42788H7.28696L8.30435 4.07633C9.86087 3.53226 11.4087 2.98819 12.9652 2.44413C12.9652 2.4525 12.9739 2.4525 12.9739 2.44413Z" fill="white"/>
<path d="M6.51371 9.23241C6.66154 9.22404 6.83545 9.26589 7.00067 9.31611C7.02676 9.32448 7.07893 9.36633 7.11371 9.39981C7.1485 9.42492 7.17458 9.45003 7.20937 9.47514C7.55719 9.73462 8.03545 9.69277 8.31371 9.3747C8.59198 9.065 8.55719 8.60464 8.24415 8.32842C8.22676 8.31168 8.20067 8.28657 8.18328 8.26983C8.04415 8.14427 7.89632 8.01035 7.69632 7.95176C7.40067 7.85968 7.31371 7.73413 7.3485 7.40769C7.36589 7.21517 7.30502 7.0394 7.16589 6.8971C7.01806 6.73807 6.79198 6.646 6.55719 6.646C6.1398 6.65437 5.80937 6.9557 5.77458 7.37421C5.76589 7.54161 5.76589 7.67554 5.77458 7.80946C5.78328 7.86805 5.78328 7.86805 5.70502 7.90991C5.02676 8.25309 4.65284 8.80552 4.63545 9.50863C4.60937 10.5633 5.42676 11.417 6.5485 11.484C6.80067 11.5007 6.87024 11.5677 6.91371 11.6765C6.95719 11.7853 6.90502 11.9276 6.80067 12.0113C6.68763 12.1034 6.53111 12.1118 6.38328 12.0281C6.31371 11.9946 6.25284 11.936 6.18328 11.8774C6.12241 11.8272 6.06154 11.777 5.99198 11.7267C5.87893 11.6514 5.76589 11.5928 5.68763 11.5426C5.66154 11.5259 5.63545 11.5175 5.61806 11.5091L5.56589 11.4756H5.49632C5.11371 11.4924 4.87024 11.6179 4.72241 11.8774C4.56589 12.162 4.59198 12.455 4.79198 12.6977C4.92241 12.8567 5.07893 13.0074 5.26154 13.1413C5.3485 13.1999 5.43545 13.2501 5.52241 13.3004C5.62676 13.3506 5.7398 13.4092 5.76589 13.4678C5.80067 13.5347 5.79198 13.6603 5.78328 13.7858C5.77458 13.8779 5.76589 13.9616 5.77458 14.0537C5.80067 14.4722 6.13111 14.7903 6.56589 14.7903C6.56589 14.7903 6.56589 14.7903 6.57458 14.7903C7.00067 14.7903 7.3398 14.4638 7.36589 14.0453C7.37458 13.8361 7.37458 13.6686 7.36589 13.518C7.36589 13.4761 7.36589 13.4594 7.36589 13.4594C7.36589 13.4594 7.37458 13.4426 7.42676 13.4175C8.13111 13.0911 8.56589 12.3545 8.49632 11.5844C8.43545 10.8646 7.89632 10.2452 7.15719 10.0443C7.01806 10.0025 6.87893 9.9941 6.7485 9.97736C6.68763 9.96899 6.61806 9.96062 6.55719 9.95225C6.37458 9.92714 6.20937 9.74299 6.20937 9.55048C6.20067 9.41655 6.3398 9.24078 6.51371 9.23241Z" fill="white"/>
<path d="M14.6268 9.96069C14.6181 9.96069 14.6181 9.96069 14.6094 9.96069C14.1833 9.96069 13.8355 10.2871 13.8268 10.6973C13.8181 10.9065 13.8964 11.099 14.0529 11.2497C14.2007 11.392 14.392 11.4757 14.6094 11.4757H14.6181C14.8268 11.4757 15.0181 11.4004 15.1747 11.2581C15.3312 11.1158 15.4094 10.9233 15.4094 10.714C15.4094 10.3122 15.0616 9.96906 14.6268 9.96069Z" fill="white"/>
</svg>
