<svg width="17" height="4" viewBox="0 0 17 4" fill="none" xmlns="http://www.w3.org/2000/svg">
    <path
        d="M4.17383 2C4.17383 3.10457 3.2784 4 2.17383 4C1.06926 4 0.173828 3.10457 0.173828 2C0.173828 0.895431 1.06926 -1.90812e-09 2.17383 -4.26191e-09C3.2784 -6.6157e-09 4.17383 0.895431 4.17383 2Z"
        fill="white" fill-opacity="0.7" />
    <path
        d="M10.1738 2C10.1738 3.10457 9.2784 4 8.17383 4C7.06926 4 6.17383 3.10457 6.17383 2C6.17383 0.895431 7.06926 -1.46939e-08 8.17383 -1.70476e-08C9.2784 -1.94014e-08 10.1738 0.895431 10.1738 2Z"
        fill="white" fill-opacity="0.7" />
    <path
        d="M14.1738 4C15.2784 4 16.1738 3.10457 16.1738 2C16.1738 0.895431 15.2784 -3.21872e-08 14.1738 -2.98334e-08C13.0693 -2.74796e-08 12.1738 0.895431 12.1738 2C12.1738 3.10457 13.0693 4 14.1738 4Z"
        fill="white" fill-opacity="0.7" />
</svg>