<svg width="32" height="32" viewBox="0 0 32 32" fill="none" xmlns="http://www.w3.org/2000/svg">
<g clip-path="url(#clip0_495_13284)">
<path d="M16.3423 31.5215C24.7769 31.5215 31.6144 24.5991 31.6144 16.0599C31.6144 7.52075 24.7769 0.598389 16.3423 0.598389C7.90783 0.598389 1.07031 7.52075 1.07031 16.0599C1.07031 24.5991 7.90783 31.5215 16.3423 31.5215Z" fill="#627EEA"/>
<path d="M16.8184 4.46375L16.8184 13.0352L23.9743 16.2725L16.8184 4.46375Z" fill="white" fill-opacity="0.602"/>
<path d="M16.818 4.46375L9.66113 16.2725L16.818 13.0352L16.818 4.46375Z" fill="white"/>
<path d="M16.8184 21.8271L16.8184 27.6512L23.979 17.6215L16.8184 21.8271Z" fill="white" fill-opacity="0.602"/>
<path d="M16.818 27.6512L16.818 21.8261L9.66113 17.6215L16.818 27.6512Z" fill="white"/>
<path d="M16.8184 20.479L23.9743 16.2725L16.8184 13.0372L16.8184 20.479Z" fill="white" fill-opacity="0.2"/>
<path d="M9.66113 16.2725L16.818 20.479L16.818 13.0372L9.66113 16.2725Z" fill="white" fill-opacity="0.602"/>
</g>
<g clip-path="url(#clip1_495_13284)">
<path d="M16.3423 31.5215C24.7769 31.5215 31.6144 24.5991 31.6144 16.0599C31.6144 7.52075 24.7769 0.598389 16.3423 0.598389C7.90783 0.598389 1.07031 7.52075 1.07031 16.0599C1.07031 24.5991 7.90783 31.5215 16.3423 31.5215Z" fill="#26A17B"/>
<path fill-rule="evenodd" clip-rule="evenodd" d="M24.1688 10.2155L24.1689 10.2158C24.9344 11.8423 25.7 13.4687 26.4264 15.1123L26.4618 15.0559L26.4618 15.1046C24.9086 16.6474 23.343 18.1775 21.7775 19.7076L21.777 19.7081L21.777 19.7081C19.9705 21.4738 18.164 23.2394 16.3764 25.0245L16.3131 25.0245C14.1491 22.9101 11.9892 20.7904 9.82948 18.6708L9.82837 18.6698L9.82818 18.6696C8.62653 17.4903 7.42491 16.311 6.22266 15.1328L6.22266 15.0828C6.80143 13.8547 7.37482 12.6245 7.94816 11.3943C8.61661 9.96003 9.28501 8.52589 9.96184 7.09546L22.7125 7.09546C23.1911 8.13846 23.68 9.17699 24.1688 10.2155ZM17.7856 16.2682L17.7856 21.2978L15.2533 21.2978L15.2533 16.2686C12.4081 16.1337 10.267 15.5557 10.267 14.8634C10.267 14.171 12.4071 13.593 15.2533 13.459L15.2533 11.8902L11.7511 11.8902L11.7511 9.49786L21.2865 9.49786L21.2865 11.8902L17.7848 11.8902L17.7848 13.4602L17.7856 13.4607C20.6267 13.5951 22.7625 14.1727 22.7625 14.8644C22.7625 15.5562 20.6267 16.1337 17.7856 16.2682ZM17.7851 15.3858L17.7851 13.6327C20.2947 13.7473 22.1674 14.1967 22.1674 14.7321C22.1674 15.2674 20.2939 15.717 17.7851 15.8316L17.7847 15.8327L17.7847 15.8314C17.7132 15.8361 17.3462 15.8587 16.5288 15.8587C15.8754 15.8587 15.4157 15.8397 15.2536 15.831L15.2536 15.8331C12.739 15.7189 10.8621 15.2699 10.8621 14.7327C10.8621 14.1955 12.7393 13.7471 15.2536 13.6327L15.2536 15.3858C15.4183 15.3974 15.8894 15.4259 16.5395 15.4259C17.3204 15.4259 17.713 15.3926 17.7851 15.3858Z" fill="white"/>
</g>
<g clip-path="url(#clip2_495_13284)">
<path d="M16.3423 31.5215C24.7769 31.5215 31.6144 24.5991 31.6144 16.0599C31.6144 7.52075 24.7769 0.598389 16.3423 0.598389C7.90783 0.598389 1.07031 7.52075 1.07031 16.0599C1.07031 24.5991 7.90783 31.5215 16.3423 31.5215Z" fill="#005EEC"/>
<path fill-rule="evenodd" clip-rule="evenodd" d="M11.0232 19.1658L9.66113 19.7011L10.3178 17.035L11.6961 16.4745L13.6825 8.32916L18.5781 8.32916L17.1282 14.3166L18.4741 13.7649L17.825 16.4223L16.4629 16.9741L15.6535 20.3399L23.0242 20.3399L22.1909 23.7907L9.90167 23.7907L11.0232 19.1658Z" fill="white"/>
</g>
<g clip-path="url(#clip3_495_13284)">
<path d="M16.3423 31.5215C24.7769 31.5215 31.6144 24.5991 31.6144 16.0599C31.6144 7.52075 24.7769 0.598389 16.3423 0.598389C7.90783 0.598389 1.07031 7.52075 1.07031 16.0599C1.07031 24.5991 7.90783 31.5215 16.3423 31.5215Z" fill="#2A5ADA"/>
<path d="M16.3428 6.39648L14.6256 7.41598L9.9476 10.2087L8.22949 11.2282L8.22949 20.8917L9.94664 21.9112L14.6686 24.7039L16.3857 25.7234L18.1029 24.7039L22.7389 21.9112L24.456 20.8917L24.456 11.2282L22.7389 10.2087L18.0599 7.41598L16.3428 6.39648ZM11.6638 18.8527L11.6638 13.2672L16.3428 10.4745L21.0217 13.2672L21.0217 18.8527L16.3428 21.6454L11.6638 18.8527Z" fill="white"/>
</g>
<g clip-path="url(#clip4_495_13284)">
<path d="M16.3423 31.5215C24.7769 31.5215 31.6144 24.5991 31.6144 16.0599C31.6144 7.52075 24.7769 0.598389 16.3423 0.598389C7.90783 0.598389 1.07031 7.52075 1.07031 16.0599C1.07031 24.5991 7.90783 31.5215 16.3423 31.5215Z" fill="#201A2D"/>
<path d="M22.8496 9.86149L22.2769 10.4413C23.6434 11.9543 24.4012 13.9302 24.4012 15.9804C24.4012 18.0306 23.6434 20.0065 22.2769 21.5195L22.8496 22.0993C24.3693 20.4304 25.2131 18.2436 25.2131 15.9736C25.2131 13.7037 24.3693 11.5169 22.8496 9.84796L22.8496 9.86149V9.86149ZM10.8057 9.91173C12.3001 8.52822 14.2518 7.76099 16.2769 7.76099C18.3019 7.76099 20.2536 8.52822 21.7481 9.91173L22.3208 9.33193C20.6723 7.79331 18.5123 6.93909 16.2702 6.93909C14.0281 6.93909 11.8681 7.79331 10.2196 9.33193L10.8057 9.91173V9.91173ZM10.2692 21.5253C8.90428 20.0126 8.14745 18.0379 8.14745 15.9891C8.14745 13.9403 8.90428 11.9655 10.2692 10.4529L9.69652 9.87308C8.17676 11.542 7.33301 13.7288 7.33301 15.9987C7.33301 18.2687 8.17676 20.4555 9.69652 22.1244L10.2692 21.5253ZM21.7404 22.0606C20.246 23.4441 18.2943 24.2114 16.2692 24.2114C14.2442 24.2114 12.2924 23.4441 10.798 22.0606L10.2253 22.6404C11.8738 24.1791 14.0338 25.0333 16.2759 25.0333C18.518 25.0333 20.678 24.1791 22.3265 22.6404L21.7404 22.0606ZM19.8868 14.0535C19.7722 12.8436 18.7414 12.4378 17.4375 12.3141L17.4375 10.6481L16.4296 10.6481L16.4296 12.2831L15.624 12.2831L15.624 10.6481L14.6237 10.6481L14.6237 12.3257L12.5791 12.3257L12.5791 13.4176C12.5791 13.4176 13.3236 13.4041 13.3122 13.4176C13.4464 13.4027 13.5811 13.4411 13.688 13.5247C13.7948 13.6084 13.8654 13.7307 13.8849 13.866L13.8849 18.4581C13.882 18.5058 13.8697 18.5525 13.8487 18.5953C13.8277 18.6381 13.7985 18.6762 13.7627 18.7074C13.7276 18.7392 13.6865 18.7634 13.6419 18.7787C13.5972 18.794 13.55 18.8 13.5031 18.7963C13.5164 18.8079 12.77 18.7963 12.77 18.7963L12.5791 20.0158L14.6046 20.0158L14.6046 21.7205L15.6125 21.7205L15.6125 20.041L16.4181 20.041L16.4181 21.7128L17.428 21.7128L17.428 20.0274C19.1308 19.9231 20.3182 19.4979 20.4671 17.8841C20.5874 16.5853 19.9841 16.0055 19.0201 15.7717C19.6062 15.4798 19.9689 14.9387 19.8868 14.0535V14.0535ZM18.4741 17.6831C18.4741 18.9509 16.3284 18.806 15.645 18.806L15.645 16.5563C16.3284 16.5583 18.4741 16.3592 18.4741 17.6831ZM18.0064 14.5135C18.0064 15.6731 16.2158 15.532 15.6469 15.532L15.6469 13.4872C16.2158 13.4872 18.0064 13.3055 18.0064 14.5135Z" fill="white"/>
<path d="M16.2707 26.5467C10.5113 26.5457 5.84375 21.8184 5.84375 15.9874C5.84375 10.1575 10.5132 5.43011 16.2717 5.43011C22.0312 5.43011 26.7006 10.1555 26.7015 15.9865C26.7018 17.3733 26.4322 18.7467 25.908 20.028C25.3839 21.3093 24.6156 22.4736 23.647 23.4543C22.6783 24.4349 21.5284 25.2128 20.2627 25.7434C18.9971 26.274 17.6406 26.547 16.2707 26.5467V26.5467ZM16.2707 6.25344C10.9647 6.25731 6.66653 10.6146 6.66844 15.9865C6.67035 21.3584 10.9732 25.7118 16.2784 25.7118C21.5844 25.7118 25.8864 21.3584 25.8883 15.9865C25.8888 14.7078 25.6403 13.4417 25.1571 12.2603C24.674 11.079 23.9655 10.0056 23.0723 9.10168C22.179 8.19773 21.1186 7.4809 19.9515 6.99218C18.7845 6.50346 17.5337 6.25243 16.2707 6.25344V6.25344Z" fill="white"/>
</g>
<g clip-path="url(#clip5_495_13284)">
<path d="M16.3423 31.5215C24.7769 31.5215 31.6144 24.5991 31.6144 16.0599C31.6144 7.52075 24.7769 0.598389 16.3423 0.598389C7.90783 0.598389 1.07031 7.52075 1.07031 16.0599C1.07031 24.5991 7.90783 31.5215 16.3423 31.5215Z" fill="black"/>
<path d="M23.1475 9.57768L20.8567 10.7605L9.78635 16.4687C9.62863 15.242 9.81063 13.9951 10.3121 12.867C10.8135 11.7389 11.6146 10.7741 12.6261 10.0801C13.6376 9.38606 14.8196 8.9902 16.0403 8.93664C17.2611 8.88308 18.4725 9.17393 19.5395 9.77675L20.8509 9.10031L21.0466 8.99884C19.8024 8.08477 18.3259 7.55022 16.7913 7.45832C15.2567 7.36643 13.7282 7.72102 12.3863 8.48023C11.0443 9.23944 9.94499 10.3716 9.21808 11.7429C8.49117 13.1143 8.16704 14.6676 8.28397 16.2194C8.30585 16.5113 8.24194 16.8032 8.10028 17.0584C7.95863 17.3135 7.74556 17.5206 7.48791 17.6534L6.7959 18.011L6.7959 19.677L8.83281 18.6256L9.49237 18.2845L10.1424 17.9491L21.8121 11.9288L23.1236 11.2533L25.8344 9.85503L25.8344 8.19001L23.1475 9.57768ZM25.8354 11.522L10.8067 19.2682L9.49523 19.9446L6.79685 21.3391L6.79685 23.0041L9.47709 21.6222L11.7689 20.4394L22.8506 14.7225C23.0108 15.9511 22.83 17.2005 22.3286 18.331C21.8272 19.4615 21.0249 20.4283 20.0115 21.1234C18.9981 21.8184 17.8137 22.2143 16.5907 22.2665C15.3678 22.3188 14.1546 22.0254 13.087 21.4193L13.0059 21.4628L11.5837 22.1972C12.8281 23.1118 14.305 23.6467 15.84 23.7386C17.3751 23.8306 18.904 23.4758 20.2463 22.7162C21.5885 21.9565 22.6879 20.8238 23.4146 19.4519C24.1413 18.0799 24.465 16.526 24.3473 14.9738C24.3256 14.6822 24.3896 14.3906 24.531 14.1356C24.6725 13.8807 24.8852 13.6737 25.1424 13.5407L25.8354 13.1831L25.8354 11.5229L25.8354 11.522Z" fill="white"/>
</g>
<g clip-path="url(#clip6_495_13284)">
<path d="M16.3423 31.5215C24.7769 31.5215 31.6144 24.5991 31.6144 16.0599C31.6144 7.52075 24.7769 0.598389 16.3423 0.598389C7.90783 0.598389 1.07031 7.52075 1.07031 16.0599C1.07031 24.5991 7.90783 31.5215 16.3423 31.5215Z" fill="#23292F"/>
<path d="M23.0902 8.32916L25.8487 8.32916L20.1074 14.0857C19.1036 15.0869 17.751 15.6482 16.3419 15.6482C14.9328 15.6482 13.5802 15.0869 12.5764 14.0857L6.83028 8.32916L9.59357 8.32916L13.9556 12.6999C14.5909 13.3347 15.4475 13.6906 16.34 13.6906C17.2325 13.6906 18.0891 13.3347 18.7243 12.6999L23.0902 8.32916ZM9.56016 24.3347L6.79687 24.3347L12.5764 18.5434C13.5802 17.5422 14.9328 16.9809 16.3419 16.9809C17.751 16.9809 19.1036 17.5422 20.1074 18.5434L25.8869 24.3338L23.1236 24.3338L18.7282 19.9253C18.0929 19.2906 17.2363 18.9346 16.3438 18.9346C15.4513 18.9346 14.5947 19.2906 13.9595 19.9253L9.5592 24.3347L9.56016 24.3347Z" fill="white"/>
</g>
<g clip-path="url(#clip7_495_13284)">
<path d="M16.3423 31.5215C24.7769 31.5215 31.6144 24.5991 31.6144 16.0599C31.6144 7.52075 24.7769 0.598389 16.3423 0.598389C7.90783 0.598389 1.07031 7.52075 1.07031 16.0599C1.07031 24.5991 7.90783 31.5215 16.3423 31.5215Z" fill="#67B2E8"/>
<path fill-rule="evenodd" clip-rule="evenodd" d="M6.93918 12.1498C6.84986 11.4065 6.80365 10.6586 6.80078 9.90983C8.05358 9.18737 9.38306 8.61066 10.7639 8.1907C12.7013 7.60048 14.7182 7.32231 16.741 7.36641C17.2831 7.37703 18.0677 7.43791 18.6633 7.50266C17.9076 7.91299 17.2524 8.48979 16.746 9.19055C16.2397 9.89131 15.8952 10.6982 15.7378 11.5516C15.6805 11.8551 15.649 12.1701 15.6385 12.5064C15.6232 13.0244 15.5736 13.4322 15.4667 13.8139C15.2264 14.6742 14.7316 15.4393 14.0489 16.0065C13.3662 16.5736 12.5284 16.9155 11.6481 16.9863C10.7677 17.057 9.88712 16.8531 9.12464 16.4021C8.36216 15.951 7.75438 15.2744 7.38303 14.4632C7.34104 14.3704 7.30904 14.2732 7.28758 14.1733C7.1364 13.5055 7.02011 12.8301 6.93918 12.1498V12.1498ZM22.7963 20.4217C22.5692 20.7793 22.3286 21.1272 22.0785 21.4702C22.0863 20.4943 21.8464 19.5326 21.3818 18.6775C20.9038 17.7766 20.1966 17.0216 19.3334 16.4906L19.2475 16.4375C19.1997 16.4091 19.1523 16.3801 19.1053 16.3505C18.02 15.6519 17.3585 14.6739 17.1256 13.4119C16.9235 12.3125 17.1457 11.1765 17.7465 10.2381C18.3474 9.29975 19.2809 8.63055 20.3547 8.36851C21.1374 8.17717 21.9105 8.20423 22.6808 8.44871C23.2717 8.63715 23.8692 8.88357 24.5975 9.22855C25.0175 9.42859 25.4412 9.65085 25.8918 9.90886C25.8856 11.2565 25.741 12.5999 25.4603 13.9173C24.9705 16.2313 24.0681 18.4355 22.7973 20.4217L22.7963 20.4217ZM19.8975 23.9711C18.8198 25.0109 17.6285 25.9229 16.3468 26.6895C16.0155 26.4962 15.6917 26.2902 15.376 26.072C12.3145 23.9874 9.90178 21.0642 8.41962 17.6435C9.1257 18.0639 9.91411 18.3228 10.7295 18.4021C11.9283 18.5249 13.1349 18.2637 14.1791 17.6551C14.681 17.3655 15.2343 17.1787 15.8075 17.1052C16.8237 16.9753 17.8524 17.2156 18.7097 17.7832C19.5669 18.3508 20.1967 19.2087 20.4864 20.2033C20.8062 21.2866 20.7126 22.3506 20.2163 23.399C20.1743 23.4879 20.138 23.5595 20.0521 23.7305L20.0101 23.8146C19.9818 23.873 19.9437 23.9259 19.8975 23.9711V23.9711Z" fill="white"/>
</g>
<g clip-path="url(#clip8_495_13284)">
<path d="M16.3423 31.5215C24.7769 31.5215 31.6144 24.5991 31.6144 16.0599C31.6144 7.52075 24.7769 0.598389 16.3423 0.598389C7.90783 0.598389 1.07031 7.52075 1.07031 16.0599C1.07031 24.5991 7.90783 31.5215 16.3423 31.5215Z" fill="#FF6600"/>
<path d="M16.314 5.65723C22.0267 5.65723 26.6465 10.3343 26.6465 16.117C26.6426 17.244 26.4628 18.3633 26.1138 19.4335L23.0346 19.4335L23.0346 10.6455L16.3149 17.4486L9.59523 10.6455L9.59523 19.4335L6.51506 19.4335C6.16639 18.3632 5.98696 17.2439 5.9834 16.117C5.9834 10.3343 10.6032 5.65723 16.3149 5.65723L16.314 5.65723ZM14.7753 18.9783L16.3426 20.539L17.8822 18.9793L20.7944 16.0029L20.7944 21.5304L25.1345 21.5304C24.214 23.0633 22.9188 24.3302 21.374 25.209C19.8293 26.0877 18.0869 26.5488 16.3149 26.5477C12.5905 26.5477 9.31461 24.5358 7.49533 21.5304L11.8345 21.5304L11.8345 16.0029L14.7744 18.9793L14.7753 18.9783Z" fill="white"/>
</g>
<g clip-path="url(#clip9_495_13284)">
<path d="M16.3423 31.5215C24.7769 31.5215 31.6144 24.5991 31.6144 16.0599C31.6144 7.52075 24.7769 0.598389 16.3423 0.598389C7.90783 0.598389 1.07031 7.52075 1.07031 16.0599C1.07031 24.5991 7.90783 31.5215 16.3423 31.5215Z" fill="#F3BA2F"/>
<path fill-rule="evenodd" clip-rule="evenodd" d="M16.3378 6.78333L10.7082 12.4831L12.779 14.5797L16.3378 10.9767L19.8988 14.5816L21.9696 12.4852L16.3378 6.78333ZM7.1748 16.0599L9.24551 18.1563L11.3165 16.0597L9.24565 13.9634L7.1748 16.0599ZM12.779 17.5406L16.3378 21.1436L19.8986 17.5387L21.9705 19.6341L21.9696 19.6354L16.3378 25.3368L10.708 19.6371L10.705 19.6342L12.779 17.5406ZM21.3596 16.0608L23.4303 18.1572L25.5012 16.0608L23.4303 13.9643L21.3596 16.0608ZM14.7849 15.5037L16.3379 13.9315L18.4393 16.059L18.4384 16.059L18.4403 16.06L18.4393 16.0612L16.3379 18.1886L14.2384 16.0631L14.2355 16.06L14.2384 16.0571L14.6064 15.6844L14.7848 15.5037L14.7849 15.5037Z" fill="white"/>
</g>
<path d="M16.3492 31.5215C24.7837 31.5215 31.6212 24.5991 31.6212 16.0599C31.6212 7.52075 24.7837 0.598389 16.3492 0.598389C7.91467 0.598389 1.07715 7.52075 1.07715 16.0599C1.07715 24.5991 7.91467 31.5215 16.3492 31.5215Z" fill="#0D1E30"/>
<g filter="url(#filter0_d_495_13284)">
<path d="M16.0804 6.45418C16.5376 6.2155 17.096 6.76728 16.8535 7.22243C16.7113 7.59351 16.1758 7.69207 15.9028 7.40893C15.6136 7.13836 15.7081 6.60107 16.0804 6.45322L16.0804 6.45418ZM11.1599 6.98181C11.4377 6.86778 11.7899 7.12096 11.7612 7.42343C11.7899 7.75005 11.389 7.99164 11.1055 7.83606C10.7304 7.69111 10.7733 7.08424 11.1599 6.98181V6.98181ZM21.2375 7.84476C20.8032 7.79257 20.7345 7.11227 21.1516 6.97504C21.4762 6.8185 21.774 7.11323 21.8217 7.41956C21.753 7.68048 21.5334 7.92013 21.2375 7.84476V7.84476ZM12.2795 9.06718C12.7444 8.77438 13.4068 9.2102 13.3352 9.74846C13.3114 10.2906 12.5878 10.6056 12.1793 10.2384C11.7841 9.95042 11.8443 9.28944 12.2795 9.06718ZM19.3715 9.37835C19.5786 8.84686 20.4186 8.82946 20.6543 9.34742C20.8882 9.75039 20.6009 10.25 20.1857 10.3872C19.6349 10.4896 19.1128 9.89631 19.3715 9.37835ZM15.4876 10.3573C15.4828 9.89921 15.9009 9.55905 16.3371 9.52716C16.6273 9.58514 16.9423 9.70787 17.0664 9.99874C17.2983 10.4007 17.0921 10.9525 16.675 11.1371C16.4841 11.2434 16.2569 11.2038 16.0489 11.1912C15.731 11.0366 15.4628 10.7303 15.4876 10.3573ZM8.1704 11.024C8.59516 10.7631 9.16786 11.2366 9.00655 11.6966C8.91873 12.0938 8.3823 12.2552 8.07591 12.002C7.74851 11.7643 7.80006 11.1931 8.17136 11.0231L8.1704 11.024ZM23.8834 11.0221C24.2433 10.7438 24.8379 11.0637 24.794 11.5159C24.8188 11.9285 24.3043 12.2407 23.9474 12.0281C23.5541 11.8512 23.5131 11.2482 23.8834 11.0231L23.8834 11.0221ZM17.5455 11.8445C18.1392 11.6319 18.8456 11.886 19.1834 12.4146C19.6302 13.0592 19.3934 14.041 18.6995 14.4111C17.9817 14.8488 16.9327 14.4787 16.6664 13.6786C16.3658 12.9635 16.8048 12.0687 17.5446 11.8445L17.5455 11.8445ZM14.0587 11.915C14.7173 11.6058 15.6041 11.8648 15.9219 12.5354C16.2961 13.1886 16.0069 14.098 15.3378 14.4352C14.6677 14.815 13.7218 14.527 13.3982 13.8264C13.0345 13.1481 13.3572 12.2271 14.0587 11.915V11.915ZM10.5681 13.1026C10.6187 12.6804 11.0186 12.4049 11.4224 12.376C11.633 12.3985 11.8297 12.4926 11.9806 12.6431C12.1314 12.7935 12.2274 12.9913 12.2528 13.2041C12.2242 13.639 11.8872 14.0622 11.4253 14.0603C10.9165 14.1038 10.4708 13.5993 10.5681 13.1026V13.1026ZM20.8786 12.4687C21.4008 12.1663 22.1252 12.6059 22.1023 13.2031C22.1376 13.8361 21.3358 14.2816 20.8166 13.9105C20.2764 13.6013 20.3184 12.7316 20.8786 12.4687ZM12.6413 14.6981C13.2503 14.5309 13.949 14.8169 14.2477 15.3755C14.5751 15.9379 14.4415 16.7187 13.9327 17.1323C13.2789 17.7372 12.0753 17.4937 11.7278 16.6685C11.3279 15.9118 11.8137 14.8971 12.6403 14.6971L12.6413 14.6981ZM19.2531 14.6952C19.8459 14.5261 20.5427 14.7532 20.8615 15.2914C21.2834 15.907 21.082 16.826 20.4548 17.2222C19.7962 17.6831 18.7787 17.4415 18.416 16.7206C17.977 15.9756 18.4189 14.9223 19.2531 14.6952V14.6952ZM8.71542 15.3967C9.24231 15.1986 9.82646 15.7775 9.61265 16.2983C9.48284 16.7719 8.81183 16.9477 8.46534 16.5979C8.05968 16.2694 8.20954 15.5398 8.71542 15.3967V15.3967ZM23.0034 16.1524C22.9935 15.9397 23.0669 15.7316 23.2078 15.5735C23.3486 15.4153 23.5455 15.3198 23.7555 15.3078C24.1163 15.3658 24.4676 15.6557 24.4389 16.0471C24.4723 16.5641 23.8471 16.9149 23.4043 16.6723C23.1971 16.567 23.0912 16.3554 23.0034 16.1524ZM6.12395 15.6538C6.44084 15.5156 6.83314 15.7891 6.7606 16.1399C6.74342 16.537 6.15449 16.6907 5.93878 16.3583C5.74788 16.1273 5.86242 15.7727 6.12395 15.6528L6.12395 15.6538ZM26.1198 15.6451C26.3432 15.4876 26.7021 15.6006 26.7899 15.8606C26.9397 16.1447 26.6648 16.5332 26.3441 16.4858C25.8936 16.5264 25.7485 15.8432 26.1198 15.6451ZM14.3632 17.5517C15.1974 17.3362 16.0947 18.0291 16.1004 18.8853C16.1539 19.7501 15.27 20.5164 14.4167 20.3174C13.7561 20.2111 13.2379 19.5772 13.2598 18.9133C13.2579 18.2774 13.739 17.686 14.3632 17.5517V17.5517ZM17.6677 17.5507C18.5143 17.3149 19.4383 18.0204 19.4249 18.8959C19.4698 19.7443 18.6136 20.4855 17.7775 20.3164C16.99 20.2159 16.4097 19.3549 16.6292 18.5934C16.7399 18.0871 17.1656 17.6754 17.6677 17.5498L17.6677 17.5507ZM11.2954 18.0774C11.8815 17.9779 12.4313 18.6282 12.1936 19.1829C12.0199 19.7743 11.157 19.9337 10.7752 19.4515C10.3285 18.9877 10.6626 18.1412 11.2954 18.0774V18.0774ZM20.9875 18.1035C21.5105 17.8851 22.1519 18.3354 22.1119 18.9007C22.1329 19.5221 21.3406 19.9511 20.83 19.5878C20.2506 19.2621 20.3565 18.3026 20.9875 18.1035V18.1035ZM23.6963 20.8093C23.4921 20.4295 23.8634 19.926 24.2881 19.9966C24.4981 19.9927 24.6461 20.1579 24.7806 20.2971C24.8083 20.5222 24.8551 20.7909 24.6671 20.9639C24.4122 21.2857 23.8347 21.1939 23.6963 20.8093V20.8093ZM8.16849 20.1019C8.56461 19.84 9.13445 20.2314 9.04473 20.6914C8.997 21.1001 8.48157 21.333 8.14272 21.1011C7.7781 20.8914 7.79146 20.2932 8.16849 20.1019V20.1019ZM15.9887 20.9552C16.507 20.7281 17.1675 21.1774 17.1179 21.7456C17.1561 22.3738 16.34 22.8086 15.8331 22.4317C15.27 22.108 15.3645 21.1552 15.9887 20.9552V20.9552ZM12.3673 21.7969C12.8083 21.5659 13.4001 21.965 13.36 22.4578C13.3734 22.8618 12.9782 23.2058 12.5773 23.1459C12.2461 23.1391 12.0304 22.8424 11.9235 22.5612C11.9292 22.2549 12.0562 21.9138 12.3673 21.7978L12.3673 21.7969ZM19.7037 21.8046C20.158 21.5243 20.8032 21.9263 20.7603 22.452C20.7717 23.0029 20.0425 23.3546 19.6197 22.9932C19.2111 22.7101 19.2608 22.0297 19.7037 21.8046ZM20.9798 24.9452C20.7775 24.6418 21.0151 24.2755 21.3425 24.206C21.6069 24.2591 21.8866 24.4572 21.8303 24.7606C21.7921 25.1733 21.1869 25.2989 20.9798 24.9462L20.9798 24.9452ZM10.8516 24.6814C10.9318 24.4398 11.1265 24.2011 11.4119 24.2639C11.8271 24.2929 11.9502 24.9172 11.5866 25.1095C11.2601 25.3289 10.8802 25.0283 10.8516 24.6814ZM15.7386 24.9587C15.8179 24.6012 16.2808 24.4282 16.5862 24.6176C16.7886 24.7046 16.8478 24.9288 16.8993 25.1201C16.8721 25.2195 16.8466 25.3194 16.823 25.4197C16.6979 25.5666 16.5366 25.7144 16.3285 25.7096C15.942 25.755 15.5926 25.3192 15.7377 24.9587L15.7386 24.9587Z" fill="black"/>
</g>
<path d="M16.0804 6.45418C16.5376 6.2155 17.096 6.76728 16.8535 7.22243C16.7113 7.59351 16.1758 7.69207 15.9028 7.40893C15.6136 7.13836 15.7081 6.60107 16.0804 6.45322L16.0804 6.45418ZM11.1599 6.98181C11.4377 6.86778 11.7899 7.12096 11.7612 7.42343C11.7899 7.75005 11.389 7.99164 11.1055 7.83606C10.7304 7.69111 10.7733 7.08424 11.1599 6.98181V6.98181ZM21.2375 7.84476C20.8032 7.79257 20.7345 7.11227 21.1516 6.97504C21.4762 6.8185 21.774 7.11323 21.8217 7.41956C21.753 7.68048 21.5334 7.92013 21.2375 7.84476V7.84476ZM12.2795 9.06718C12.7444 8.77438 13.4068 9.2102 13.3352 9.74846C13.3114 10.2906 12.5878 10.6056 12.1793 10.2384C11.7841 9.95042 11.8443 9.28944 12.2795 9.06718ZM19.3715 9.37835C19.5786 8.84686 20.4186 8.82946 20.6543 9.34742C20.8882 9.75039 20.6009 10.25 20.1857 10.3872C19.6349 10.4896 19.1128 9.89631 19.3715 9.37835ZM15.4876 10.3573C15.4828 9.89921 15.9009 9.55905 16.3371 9.52716C16.6273 9.58514 16.9423 9.70787 17.0664 9.99874C17.2983 10.4007 17.0921 10.9525 16.675 11.1371C16.4841 11.2434 16.2569 11.2038 16.0489 11.1912C15.731 11.0366 15.4628 10.7303 15.4876 10.3573ZM8.1704 11.024C8.59516 10.7631 9.16786 11.2366 9.00655 11.6966C8.91873 12.0938 8.3823 12.2552 8.07591 12.002C7.74851 11.7643 7.80006 11.1931 8.17136 11.0231L8.1704 11.024ZM23.8834 11.0221C24.2433 10.7438 24.8379 11.0637 24.794 11.5159C24.8188 11.9285 24.3043 12.2407 23.9474 12.0281C23.5541 11.8512 23.5131 11.2482 23.8834 11.0231L23.8834 11.0221ZM17.5455 11.8445C18.1392 11.6319 18.8456 11.886 19.1834 12.4146C19.6302 13.0592 19.3934 14.041 18.6995 14.4111C17.9817 14.8488 16.9327 14.4787 16.6664 13.6786C16.3658 12.9635 16.8048 12.0687 17.5446 11.8445L17.5455 11.8445ZM14.0587 11.915C14.7173 11.6058 15.6041 11.8648 15.9219 12.5354C16.2961 13.1886 16.0069 14.098 15.3378 14.4352C14.6677 14.815 13.7218 14.527 13.3982 13.8264C13.0345 13.1481 13.3572 12.2271 14.0587 11.915V11.915ZM10.5681 13.1026C10.6187 12.6804 11.0186 12.4049 11.4224 12.376C11.633 12.3985 11.8297 12.4926 11.9806 12.6431C12.1314 12.7935 12.2274 12.9913 12.2528 13.2041C12.2242 13.639 11.8872 14.0622 11.4253 14.0603C10.9165 14.1038 10.4708 13.5993 10.5681 13.1026V13.1026ZM20.8786 12.4687C21.4008 12.1663 22.1252 12.6059 22.1023 13.2031C22.1376 13.8361 21.3358 14.2816 20.8166 13.9105C20.2764 13.6013 20.3184 12.7316 20.8786 12.4687ZM12.6413 14.6981C13.2503 14.5309 13.949 14.8169 14.2477 15.3755C14.5751 15.9379 14.4415 16.7187 13.9327 17.1323C13.2789 17.7372 12.0753 17.4937 11.7278 16.6685C11.3279 15.9118 11.8137 14.8971 12.6403 14.6971L12.6413 14.6981ZM19.2531 14.6952C19.8459 14.5261 20.5427 14.7532 20.8615 15.2914C21.2834 15.907 21.082 16.826 20.4548 17.2222C19.7962 17.6831 18.7787 17.4415 18.416 16.7206C17.977 15.9756 18.4189 14.9223 19.2531 14.6952V14.6952ZM8.71542 15.3967C9.24231 15.1986 9.82646 15.7775 9.61265 16.2983C9.48284 16.7719 8.81183 16.9477 8.46534 16.5979C8.05968 16.2694 8.20954 15.5398 8.71542 15.3967V15.3967ZM23.0034 16.1524C22.9935 15.9397 23.0669 15.7316 23.2078 15.5735C23.3486 15.4153 23.5455 15.3198 23.7555 15.3078C24.1163 15.3658 24.4676 15.6557 24.4389 16.0471C24.4723 16.5641 23.8471 16.9149 23.4043 16.6723C23.1971 16.567 23.0912 16.3554 23.0034 16.1524ZM6.12395 15.6538C6.44084 15.5156 6.83314 15.7891 6.7606 16.1399C6.74342 16.537 6.15449 16.6907 5.93878 16.3583C5.74788 16.1273 5.86242 15.7727 6.12395 15.6528L6.12395 15.6538ZM26.1198 15.6451C26.3432 15.4876 26.7021 15.6006 26.7899 15.8606C26.9397 16.1447 26.6648 16.5332 26.3441 16.4858C25.8936 16.5264 25.7485 15.8432 26.1198 15.6451ZM14.3632 17.5517C15.1974 17.3362 16.0947 18.0291 16.1004 18.8853C16.1539 19.7501 15.27 20.5164 14.4167 20.3174C13.7561 20.2111 13.2379 19.5772 13.2598 18.9133C13.2579 18.2774 13.739 17.686 14.3632 17.5517V17.5517ZM17.6677 17.5507C18.5143 17.3149 19.4383 18.0204 19.4249 18.8959C19.4698 19.7443 18.6136 20.4855 17.7775 20.3164C16.99 20.2159 16.4097 19.3549 16.6292 18.5934C16.7399 18.0871 17.1656 17.6754 17.6677 17.5498L17.6677 17.5507ZM11.2954 18.0774C11.8815 17.9779 12.4313 18.6282 12.1936 19.1829C12.0199 19.7743 11.157 19.9337 10.7752 19.4515C10.3285 18.9877 10.6626 18.1412 11.2954 18.0774V18.0774ZM20.9875 18.1035C21.5105 17.8851 22.1519 18.3354 22.1119 18.9007C22.1329 19.5221 21.3406 19.9511 20.83 19.5878C20.2506 19.2621 20.3565 18.3026 20.9875 18.1035V18.1035ZM23.6963 20.8093C23.4921 20.4295 23.8634 19.926 24.2881 19.9966C24.4981 19.9927 24.6461 20.1579 24.7806 20.2971C24.8083 20.5222 24.8551 20.7909 24.6671 20.9639C24.4122 21.2857 23.8347 21.1939 23.6963 20.8093V20.8093ZM8.16849 20.1019C8.56461 19.84 9.13445 20.2314 9.04473 20.6914C8.997 21.1001 8.48157 21.333 8.14272 21.1011C7.7781 20.8914 7.79146 20.2932 8.16849 20.1019V20.1019ZM15.9887 20.9552C16.507 20.7281 17.1675 21.1774 17.1179 21.7456C17.1561 22.3738 16.34 22.8086 15.8331 22.4317C15.27 22.108 15.3645 21.1552 15.9887 20.9552V20.9552ZM12.3673 21.7969C12.8083 21.5659 13.4001 21.965 13.36 22.4578C13.3734 22.8618 12.9782 23.2058 12.5773 23.1459C12.2461 23.1391 12.0304 22.8424 11.9235 22.5612C11.9292 22.2549 12.0562 21.9138 12.3673 21.7978L12.3673 21.7969ZM19.7037 21.8046C20.158 21.5243 20.8032 21.9263 20.7603 22.452C20.7717 23.0029 20.0425 23.3546 19.6197 22.9932C19.2111 22.7101 19.2608 22.0297 19.7037 21.8046ZM20.9798 24.9452C20.7775 24.6418 21.0151 24.2755 21.3425 24.206C21.6069 24.2591 21.8866 24.4572 21.8303 24.7606C21.7921 25.1733 21.1869 25.2989 20.9798 24.9462L20.9798 24.9452ZM10.8516 24.6814C10.9318 24.4398 11.1265 24.2011 11.4119 24.2639C11.8271 24.2929 11.9502 24.9172 11.5866 25.1095C11.2601 25.3289 10.8802 25.0283 10.8516 24.6814ZM15.7386 24.9587C15.8179 24.6012 16.2808 24.4282 16.5862 24.6176C16.7886 24.7046 16.8478 24.9288 16.8993 25.1201C16.8721 25.2195 16.8466 25.3194 16.823 25.4197C16.6979 25.5666 16.5366 25.7144 16.3285 25.7096C15.942 25.755 15.5926 25.3192 15.7377 24.9587L15.7386 24.9587Z" fill="white"/>
<g clip-path="url(#clip10_495_13284)">
<path d="M16.3423 31.5215C24.7769 31.5215 31.6144 24.5991 31.6144 16.0599C31.6144 7.52075 24.7769 0.598389 16.3423 0.598389C7.90783 0.598389 1.07031 7.52075 1.07031 16.0599C1.07031 24.5991 7.90783 31.5215 16.3423 31.5215Z" fill="#3E73C4"/>
<path d="M20.1842 18.1127C20.1842 16.0602 18.9624 15.3567 16.5189 15.0629C14.7741 14.8281 14.4257 14.3594 14.4257 13.538C14.4257 12.7166 15.0079 12.189 16.1705 12.189C17.2176 12.189 17.7999 12.5407 18.09 13.4211C18.1203 13.5062 18.1755 13.5799 18.2484 13.6322C18.3213 13.6846 18.4083 13.7131 18.4976 13.7139L19.4282 13.7139C19.482 13.7153 19.5355 13.7057 19.5855 13.6856C19.6354 13.6655 19.6808 13.6353 19.719 13.5969C19.7571 13.5585 19.7871 13.5127 19.8072 13.4622C19.8273 13.4117 19.837 13.3576 19.8358 13.3032L19.8358 13.2452C19.7221 12.6083 19.4038 12.0272 18.9303 11.5923C18.4569 11.1573 17.8548 10.8929 17.2176 10.84L17.2176 9.43296C17.2176 9.19814 17.0429 9.02226 16.7528 8.96332L15.8794 8.96332C15.6475 8.96332 15.4728 9.13919 15.4146 9.43296L15.4146 10.782C13.6688 11.0158 12.5644 12.189 12.5644 13.6559C12.5644 15.5905 13.727 16.353 16.1705 16.6467C17.7999 16.9395 18.3229 17.2923 18.3229 18.2306C18.3229 19.1679 17.5087 19.8134 16.4034 19.8134C14.8905 19.8134 14.3675 19.1689 14.1928 18.2886C14.1355 18.0547 13.9599 17.9368 13.7852 17.9368L12.7964 17.9368C12.7427 17.9355 12.6893 17.9452 12.6394 17.9654C12.5896 17.9855 12.5443 18.0157 12.5063 18.0541C12.4683 18.0925 12.4383 18.1383 12.4183 18.1887C12.3983 18.2391 12.3886 18.2932 12.3897 18.3475L12.3897 18.4055C12.6217 19.8724 13.5533 20.9276 15.4728 21.2214L15.4728 22.6294C15.4728 22.8632 15.6475 23.0401 15.9376 23.0981L16.811 23.0981C17.0429 23.0981 17.2176 22.9222 17.2758 22.6294L17.2758 21.2204C19.0216 20.9276 20.1842 19.6956 20.1842 18.1117L20.1842 18.1127Z" fill="white"/>
<path d="M13.376 24.2709C8.83832 22.6282 6.51124 17.5258 8.1988 13.0101C9.07122 10.5459 10.9907 8.67025 13.376 7.78991C13.6089 7.67298 13.7244 7.49711 13.7244 7.20334L13.7244 6.38195C13.7244 6.14809 13.6089 5.97222 13.376 5.91327C13.3178 5.91327 13.2013 5.91327 13.1431 5.97125C11.834 6.38516 10.6186 7.05716 9.56701 7.94856C8.51542 8.83996 7.64839 9.93315 7.01584 11.1652C6.38328 12.3972 5.99769 13.7438 5.88128 15.1273C5.76487 16.5108 5.91992 17.904 6.33752 19.2266C7.38366 22.5122 9.88541 25.0344 13.1431 26.0896C13.376 26.2065 13.6089 26.0896 13.6662 25.8548C13.7244 25.7968 13.7244 25.7369 13.7244 25.62L13.7244 24.7986C13.7244 24.6227 13.5507 24.3888 13.376 24.2709V24.2709ZM19.5421 5.97222C19.3092 5.85432 19.0763 5.97222 19.019 6.20607C18.9608 6.26502 18.9608 6.32397 18.9608 6.44089L18.9608 7.26229C18.9608 7.49711 19.1345 7.73097 19.3092 7.84886C23.8469 9.49165 26.174 14.594 24.4864 19.1097C23.614 21.5739 21.6945 23.4495 19.3092 24.3299C19.0763 24.4468 18.9608 24.6227 18.9608 24.9165L18.9608 25.7379C18.9608 25.9717 19.0763 26.1476 19.3092 26.2065C19.3674 26.2065 19.4839 26.2065 19.5421 26.1486C20.8513 25.7346 22.0666 25.0626 23.1182 24.1712C24.1698 23.2798 25.0368 22.1866 25.6694 20.9546C26.302 19.7226 26.6875 18.376 26.804 16.9925C26.9204 15.609 26.7653 14.2158 26.3477 12.8932C25.3016 9.54963 22.7416 7.02747 19.5421 5.97222V5.97222Z" fill="white"/>
</g>
<g clip-path="url(#clip11_495_13284)">
<path d="M16.3423 31.5215C24.7769 31.5215 31.6144 24.5991 31.6144 16.0599C31.6144 7.52075 24.7769 0.598389 16.3423 0.598389C7.90783 0.598389 1.07031 7.52075 1.07031 16.0599C1.07031 24.5991 7.90783 31.5215 16.3423 31.5215Z" fill="#4FA89B"/>
<path fill-rule="evenodd" clip-rule="evenodd" d="M9.00577 10.2618L8.94225 10.2618C8.81071 10.2779 8.70346 10.4031 8.70927 10.5378C8.70913 12.5214 8.70915 14.5051 8.70917 16.4887C8.70919 17.9764 8.7092 19.4642 8.70915 20.9519C8.70921 20.9617 8.70915 20.9715 8.70908 20.9814C8.70877 21.0273 8.70846 21.0736 8.72124 21.1182C8.74482 21.2041 8.81604 21.275 8.90172 21.2964C8.99392 21.3234 9.10034 21.2943 9.16516 21.2223C9.21529 21.1699 9.23674 21.0954 9.23543 21.0237C9.23525 18.5336 9.23528 16.0435 9.2353 13.5535C9.23531 12.7235 9.23531 11.8935 9.23531 11.0635C11.1901 12.5624 13.1447 14.0615 15.0988 15.5612C15.0988 16.7511 15.0988 17.941 15.0988 19.1309C15.0988 19.7259 15.0988 20.3208 15.0988 20.9158C15.099 20.9306 15.0988 20.9455 15.0987 20.9604C15.0984 21.001 15.0981 21.0416 15.1027 21.082C15.1157 21.1812 15.1903 21.2694 15.2863 21.2949C15.3792 21.3243 15.4878 21.2958 15.5539 21.2233C15.6041 21.1706 15.6269 21.0959 15.6242 21.0237L15.6243 15.4444C15.6286 15.355 15.5878 15.2647 15.5156 15.2124C13.3904 13.583 11.2653 11.9533 9.14031 10.3236L9.13672 10.3209C9.09868 10.2902 9.05246 10.2734 9.00577 10.2618ZM23.7617 10.2618L23.6953 10.2618C23.6178 10.2695 23.5564 10.318 23.4973 10.3648C23.4923 10.3688 23.4872 10.3728 23.4822 10.3768C22.8126 10.8903 22.143 11.4038 21.4733 11.9173C20.0413 13.0155 18.6092 14.1138 17.1769 15.2118C17.0961 15.2688 17.0594 15.3717 17.0664 15.469C17.0667 16.4391 17.0667 17.4093 17.0667 18.3794C17.0666 19.2609 17.0666 20.1424 17.0668 21.0239C17.0622 21.1256 17.1148 21.2289 17.2057 21.2757C17.3 21.326 17.424 21.3133 17.504 21.2408C17.5623 21.1908 17.5934 21.1127 17.592 21.0359C17.592 20.3845 17.592 19.7332 17.592 19.0818C17.5919 17.9082 17.5919 16.7345 17.5922 15.5608C18.8346 14.6085 20.0766 13.6557 21.3187 12.7029C22.0314 12.1561 22.7441 11.6094 23.4569 11.0627C23.4572 12.7249 23.4572 14.3871 23.4571 16.0493C23.4571 17.7115 23.4571 19.3736 23.4573 21.0358C23.4532 21.1452 23.5231 21.2535 23.6262 21.2893C23.7197 21.3254 23.8334 21.3028 23.9043 21.2305C23.963 21.1751 23.9852 21.0913 23.9825 21.012C23.9824 19.6541 23.9825 18.2962 23.9825 16.9383C23.9825 14.8046 23.9826 12.6709 23.9822 10.5372C23.9883 10.4057 23.8866 10.2876 23.7617 10.2618Z" fill="white"/>
</g>
<g clip-path="url(#clip12_495_13284)">
<path d="M16.3423 31.5215C24.7769 31.5215 31.6144 24.5991 31.6144 16.0599C31.6144 7.52075 24.7769 0.598389 16.3423 0.598389C7.90783 0.598389 1.07031 7.52075 1.07031 16.0599C1.07031 24.5991 7.90783 31.5215 16.3423 31.5215Z" fill="#1FC5C9"/>
<path fill-rule="evenodd" clip-rule="evenodd" d="M11.8558 22.3141L13.9214 20.223C14.8329 20.7681 15.8977 20.9909 16.948 20.8563C17.9984 20.7217 18.9747 20.2373 19.7233 19.4794C20.4719 18.7214 20.9504 17.733 21.0834 16.6696C21.2163 15.6063 20.9963 14.5283 20.4578 13.6054L22.5233 11.5143C23.594 13.0034 24.1044 14.8307 23.9624 16.667C23.8205 18.5033 23.0356 20.2279 21.7492 21.5304C20.4627 22.8328 18.7592 23.6274 16.9454 23.7711C15.1316 23.9148 13.3267 23.3981 11.8558 22.3141V22.3141ZM10.1683 20.6056C9.09757 19.1165 8.58723 17.2892 8.72916 15.4529C8.87109 13.6166 9.65596 11.8919 10.9424 10.5895C12.2289 9.28709 13.9324 8.49248 15.7462 8.34879C17.56 8.2051 19.3649 8.72177 20.8358 9.80575L18.7702 11.8969C17.8587 11.3518 16.7939 11.129 15.7436 11.2636C14.6932 11.3982 13.7169 11.8826 12.9683 12.6405C12.2197 13.3985 11.7412 14.3869 11.6083 15.4503C11.4753 16.5136 11.6953 17.5916 12.2338 18.5145L10.1683 20.6056ZM23.9818 10.2619C23.4755 10.2619 22.99 10.0582 22.6319 9.69579C22.2739 9.33334 22.0728 8.84176 22.0728 8.32918C22.0728 7.81659 22.2739 7.32501 22.6319 6.96256C22.99 6.60011 23.4755 6.39648 23.9818 6.39648C24.4881 6.39648 24.9737 6.60011 25.3317 6.96256C25.6897 7.32501 25.8908 7.81659 25.8908 8.32918C25.8908 8.84176 25.6897 9.33334 25.3317 9.69579C24.9737 10.0582 24.4881 10.2619 23.9818 10.2619ZM8.70979 25.7234C8.20349 25.7234 7.71792 25.5198 7.35992 25.1573C7.00191 24.7949 6.80078 24.3033 6.80078 23.7907C6.80078 23.2781 7.00191 22.7865 7.35992 22.4241C7.71792 22.0616 8.20349 21.858 8.70979 21.858C9.21608 21.858 9.70165 22.0616 10.0597 22.4241C10.4177 22.7865 10.6188 23.2781 10.6188 23.7907C10.6188 24.3033 10.4177 24.7949 10.0597 25.1573C9.70165 25.5198 9.21608 25.7234 8.70979 25.7234Z" fill="white"/>
</g>
<g clip-path="url(#clip13_495_13284)">
<path d="M16.3423 31.5215C24.7769 31.5215 31.6144 24.5991 31.6144 16.0599C31.6144 7.52075 24.7769 0.598389 16.3423 0.598389C7.90783 0.598389 1.07031 7.52075 1.07031 16.0599C1.07031 24.5991 7.90783 31.5215 16.3423 31.5215Z" fill="#00E6A0"/>
<path d="M23.0898 7.84592C23.1741 7.84404 23.258 7.85951 23.3362 7.89141C23.4145 7.9233 23.4855 7.97094 23.5451 8.03146L23.5394 8.02566C23.6337 8.12079 23.6952 8.24412 23.715 8.37741L23.7236 8.47791L23.7169 11.7799C23.7169 12.2138 23.547 12.6303 23.2435 12.9366L19.1964 17.0214L23.527 21.3921C23.6792 21.5428 23.8006 21.7226 23.8838 21.921C23.9671 22.1194 24.0108 22.3326 24.0123 22.5482C24.0137 22.7638 23.973 22.9775 23.8924 23.1771C23.8118 23.3766 23.693 23.5581 23.5427 23.7109C23.3925 23.8637 23.2138 23.9848 23.0171 24.0673C22.8204 24.1498 22.6094 24.1921 22.3965 24.1916C22.1835 24.1911 21.9728 24.1479 21.7764 24.0645C21.58 23.9811 21.4019 23.8591 21.2524 23.7056L15.7783 18.181C15.6273 18.0295 15.5075 17.8493 15.4257 17.6506C15.344 17.452 15.3019 17.239 15.3019 17.0238C15.3019 16.8086 15.344 16.5955 15.4257 16.3969C15.5075 16.1983 15.6273 16.0181 15.7783 15.8666L20.5718 11.0233L12.4605 11.0233L12.4605 22.5121C12.4641 22.7312 12.4241 22.9487 12.343 23.1518C12.2619 23.3548 12.1412 23.5393 11.9882 23.6942C11.8352 23.8491 11.653 23.9713 11.4524 24.0534C11.2518 24.1355 11.037 24.176 10.8206 24.1723L10.6584 24.1665C10.2511 24.1307 9.87236 23.9402 9.59811 23.6334C9.32387 23.3265 9.17444 22.9259 9.17983 22.5121L9.17983 9.63076C9.17983 8.60063 9.90811 7.84592 10.8941 7.84592L23.0898 7.84592Z" fill="white"/>
</g>
<g clip-path="url(#clip14_495_13284)">
<path d="M16.3423 31.5215C24.7769 31.5215 31.6144 24.5991 31.6144 16.0599C31.6144 7.52075 24.7769 0.598389 16.3423 0.598389C7.90783 0.598389 1.07031 7.52075 1.07031 16.0599C1.07031 24.5991 7.90783 31.5215 16.3423 31.5215Z" fill="#2E9AD0"/>
<path d="M25.2338 23.439L23.3506 21.7421L19.5402 24.6363C19.5857 24.7373 19.6091 24.847 19.609 24.9581C19.6105 25.1592 19.5332 25.3527 19.3939 25.4962C19.2547 25.6396 19.065 25.7214 18.8663 25.7234C18.6919 25.7224 18.5233 25.6596 18.3898 25.5459C18.2562 25.4323 18.1662 25.2749 18.1352 25.1011L14.0213 25.1011C13.9904 25.2747 13.9004 25.432 13.7671 25.5456C13.6338 25.6593 13.4654 25.7221 13.2911 25.7234C13.0923 25.7216 12.9023 25.64 12.7629 25.4965C12.6235 25.353 12.546 25.1593 12.5475 24.9581C12.5473 24.8478 12.5704 24.7387 12.6153 24.6382L9.23065 22.087C9.09576 22.2108 8.92019 22.2794 8.73813 22.2793C8.53931 22.2776 8.34933 22.1959 8.20991 22.0524C8.0705 21.9089 7.99304 21.7153 7.99457 21.514C7.99457 21.2241 8.15111 20.9719 8.3821 20.8414L7.13838 16.8214C7.0343 16.8307 6.92946 16.8179 6.83056 16.7838C6.73166 16.7497 6.64089 16.695 6.56406 16.6233C6.48723 16.5516 6.42604 16.4645 6.38441 16.3675C6.34277 16.2705 6.32161 16.1657 6.32228 16.0599C6.32165 15.9522 6.34369 15.8455 6.38694 15.747C6.43018 15.6485 6.49364 15.5604 6.57309 15.4887C6.65254 15.4169 6.74617 15.3631 6.84775 15.3308C6.94933 15.2985 7.05654 15.2885 7.16224 15.3014L8.38496 11.2804C8.26615 11.2137 8.16723 11.1159 8.09855 10.9973C8.02987 10.8786 7.99396 10.7434 7.99457 10.6059C7.99457 10.1836 8.32769 9.84054 8.73813 9.84054C8.93094 9.84054 9.10656 9.91592 9.23829 10.0396L12.6487 7.54644C12.5824 7.42939 12.5475 7.29678 12.5475 7.16183C12.5475 6.73954 12.8807 6.39648 13.2911 6.39648C13.6538 6.39648 13.9564 6.66416 14.0213 7.01881L18.1352 7.01881C18.1662 6.84499 18.2562 6.68762 18.3898 6.57396C18.5233 6.4603 18.6919 6.39751 18.8663 6.39648C19.2768 6.39648 19.609 6.73954 19.609 7.16183C19.6092 7.28995 19.5781 7.41614 19.5183 7.52904L22.9068 10.0512C23.044 9.91608 23.2279 9.8405 23.4193 9.84054C23.8298 9.84054 24.1619 10.1836 24.1619 10.6059C24.1625 10.7329 24.1319 10.8581 24.0729 10.9703C24.014 11.0824 23.9284 11.178 23.824 11.2485L25.042 15.2965C25.1446 15.2894 25.2476 15.304 25.3443 15.3393C25.4411 15.3746 25.5295 15.43 25.604 15.5017C25.6785 15.5735 25.7375 15.6602 25.7771 15.7563C25.8167 15.8524 25.8362 15.9558 25.8342 16.0599C25.835 16.1617 25.8156 16.2625 25.7772 16.3565C25.7388 16.4505 25.6821 16.5357 25.6105 16.607C25.5389 16.6784 25.4539 16.7345 25.3605 16.772C25.2671 16.8095 25.1672 16.8276 25.0668 16.8253L23.6379 21.4927L25.4677 23.1413C25.67 22.9556 25.9334 22.853 26.2065 22.8534C26.8221 22.8534 27.3213 23.3674 27.3213 24.0014C27.3213 24.6353 26.8221 25.1494 26.2065 25.1494C26.0588 25.1481 25.9128 25.1174 25.7769 25.059C25.641 25.0007 25.5177 24.9158 25.4142 24.8092C25.3107 24.7025 25.2289 24.5763 25.1735 24.4377C25.1182 24.2991 25.0904 24.1509 25.0916 24.0014C25.0916 23.7965 25.1432 23.6052 25.2348 23.439L25.2338 23.439ZM18.9293 24.1956L20.3487 20.9593C20.2321 20.8618 20.147 20.7312 20.1043 20.5844L16.8113 21.0695C16.7879 21.2112 16.7258 21.3434 16.6319 21.4512L18.5857 24.2488C18.6944 24.2033 18.8122 24.1851 18.9293 24.1956V24.1956ZM19.3045 24.3406L22.9974 21.5353L21.4053 20.8337C21.3232 20.9438 21.2126 21.0287 21.0857 21.079C20.9589 21.1293 20.8207 21.1431 20.6866 21.1188L19.2806 24.3232C19.2887 24.3285 19.2966 24.334 19.3045 24.3396L19.3045 24.3406ZM18.2879 24.4768L16.3216 21.6628C16.1641 21.7191 15.9924 21.7191 15.8348 21.6628L13.8686 24.4768C13.9255 24.5489 13.9692 24.6307 13.9974 24.7184L18.1591 24.7184C18.1873 24.6307 18.231 24.5489 18.2879 24.4768V24.4768ZM24.7098 16.7171C24.5989 16.6482 24.5073 16.5516 24.4439 16.4365C24.3806 16.3214 24.3475 16.1917 24.3481 16.0599C24.3481 15.7894 24.4836 15.5526 24.6888 15.4164L23.5377 11.5896L23.28 15.3332C23.5759 15.4337 23.7906 15.7208 23.7906 16.0599C23.7913 16.2189 23.7431 16.3741 23.6526 16.504C23.5621 16.6339 23.4338 16.732 23.2857 16.7847L23.5396 20.5399L24.7098 16.7171ZM22.5584 15.483L21.0464 12.4825C20.9233 12.5238 20.7915 12.5311 20.6646 12.5038L19.336 15.4676C19.4216 15.54 19.4905 15.6306 19.5377 15.7329C19.5849 15.8353 19.6092 15.947 19.609 16.0599C19.6092 16.1748 19.584 16.2882 19.5352 16.3918C19.4865 16.4955 19.4155 16.5868 19.3274 16.6591L20.6971 19.6103C20.7955 19.5938 20.8961 19.5978 20.993 19.6219L22.5383 16.6166C22.464 16.5447 22.4049 16.4583 22.3646 16.3626C22.3242 16.2669 22.3034 16.164 22.3035 16.0599C22.3035 15.83 22.4028 15.6232 22.5584 15.483ZM22.9153 16.8137C22.898 16.8105 22.8808 16.8066 22.8638 16.8021L21.3204 19.8016C21.4109 19.8873 21.4794 19.9941 21.5198 20.1126C21.5602 20.2312 21.5714 20.358 21.5523 20.4819L23.2131 21.2144L22.9153 16.8137V16.8137ZM22.9096 15.3081L23.1826 11.3326C23.0388 11.2825 22.9136 11.1891 22.8237 11.0649L21.5466 11.6051C21.569 11.724 21.5638 11.8465 21.5315 11.963C21.4992 12.0796 21.4407 12.1869 21.3605 12.2767L22.8915 15.311C22.8975 15.31 22.9036 15.309 22.9096 15.3081V15.3081ZM18.9885 16.8156C18.882 16.8337 18.7728 16.8277 18.6688 16.7982L16.6424 20.4414C16.703 20.5139 16.7499 20.5971 16.7808 20.6868L20.091 20.1998C20.1292 20.0249 20.2246 19.8712 20.3563 19.7649L18.9885 16.8137L18.9885 16.8156ZM18.9981 15.3072L20.3315 12.3337C20.196 12.2132 20.1073 12.0477 20.0814 11.867L16.7645 11.379C16.728 11.4691 16.6749 11.5515 16.608 11.6215L18.6497 15.3275C18.7628 15.2922 18.8827 15.2852 18.999 15.3072L18.9981 15.3072ZM18.3471 16.6079C18.2758 16.5361 18.2192 16.4507 18.1807 16.3567C18.1422 16.2626 18.1225 16.1618 18.1228 16.0599C18.1228 15.8531 18.203 15.6647 18.3328 15.5275L16.2901 11.8187C16.1763 11.8536 16.0557 11.8599 15.9389 11.837L13.8323 15.5352C13.9628 15.678 14.0351 15.8654 14.0347 16.0599C14.0352 16.2618 13.9574 16.4558 13.818 16.6001L15.8873 20.1998C16.0355 20.1595 16.1924 20.1672 16.336 20.222L18.3471 16.6079ZM7.48773 16.69L8.67322 20.5225L8.95289 16.8079C8.78577 16.7692 8.63666 16.6741 8.53012 16.5381C8.42359 16.4021 8.36599 16.2335 8.36682 16.0599C8.36595 15.8842 8.42501 15.7135 8.53405 15.5767C8.64308 15.4399 8.79541 15.3454 8.9653 15.3091L8.67608 11.6041L7.50873 15.4453C7.60244 15.5172 7.67839 15.6101 7.73056 15.7168C7.78274 15.8234 7.80973 15.9409 7.8094 16.0599C7.8094 16.3209 7.68149 16.5528 7.48773 16.69V16.69ZM11.1988 19.6142C11.309 19.5923 11.4226 19.5963 11.531 19.6258L12.8387 16.6678C12.7477 16.5956 12.6741 16.5033 12.6237 16.3979C12.5732 16.2926 12.5472 16.177 12.5475 16.0599C12.5475 15.8203 12.6544 15.6067 12.8215 15.4666L11.4928 12.5038C11.4011 12.5234 11.3065 12.525 11.2141 12.5086L9.6115 15.4956C9.6881 15.5677 9.74917 15.655 9.79089 15.7522C9.83261 15.8493 9.85407 15.954 9.85394 16.0599C9.85424 16.1629 9.83412 16.2649 9.79477 16.3598C9.75542 16.4548 9.69764 16.5408 9.62486 16.6127L11.1998 19.6142L11.1988 19.6142ZM11.5081 21.112C11.3721 21.1443 11.2297 21.1367 11.0979 21.0899C10.966 21.0432 10.85 20.9593 10.7636 20.8482L9.475 21.4164C9.48962 21.5352 9.47722 21.6559 9.43873 21.7691L12.8511 24.3415C12.8611 24.3339 12.8713 24.3264 12.8816 24.3193L11.5071 21.111L11.5081 21.112ZM10.608 20.5003C10.5842 20.3678 10.5953 20.2313 10.64 20.1044C10.6847 19.9776 10.7616 19.8648 10.8628 19.7775L9.32324 16.8446L9.02448 20.8066C9.14974 20.8609 9.258 20.9488 9.33755 21.0608L10.608 20.5003V20.5003ZM12.0684 20.2114L15.3757 20.6887C15.4142 20.5747 15.4786 20.4714 15.5638 20.3872L13.4982 16.7953C13.3955 16.8261 13.2873 16.8337 13.1813 16.8176L11.8546 19.8142C11.9638 19.9217 12.0384 20.0601 12.0684 20.2114V20.2114ZM12.0493 20.595C12.0095 20.7247 11.9364 20.8415 11.8374 20.9332L13.2338 24.1946C13.3488 24.1859 13.4641 24.2044 13.5708 24.2488L15.5256 21.4512C15.432 21.344 15.3699 21.2124 15.3461 21.0714L12.0493 20.595V20.595ZM10.6147 11.5867L9.34424 11.0494C9.26455 11.1653 9.15446 11.2564 9.02639 11.3123L9.33183 15.227L10.8743 12.3511C10.7654 12.2607 10.6834 12.1415 10.6376 12.0067C10.5918 11.8719 10.5838 11.7268 10.6147 11.5877L10.6147 11.5867ZM11.5215 11.0118L12.8339 7.88079L9.44255 10.3604C9.47758 10.4671 9.4893 10.5802 9.47691 10.6919L10.7846 11.2456C10.8739 11.1413 10.9902 11.0643 11.1203 11.023C11.2504 10.9817 11.3893 10.9778 11.5215 11.0118V11.0118ZM12.077 11.8554C12.0534 12.0404 11.9642 12.2104 11.8259 12.3337L13.1584 15.3072C13.2788 15.2847 13.4028 15.293 13.5192 15.3313L15.602 11.6727C15.5095 11.5927 15.4375 11.4912 15.392 11.377L12.077 11.8554V11.8554ZM11.8479 11.1963C11.9281 11.2736 11.9911 11.3693 12.0321 11.4756L15.3395 10.9982C15.3546 10.8583 15.4075 10.7253 15.4922 10.6136L13.5927 7.86146C13.4762 7.91506 13.3478 7.93673 13.2205 7.92428L11.8488 11.1963L11.8479 11.1963ZM20.7467 10.9924C20.8665 10.9812 20.9871 10.9997 21.0983 11.0464C21.2094 11.093 21.3075 11.1664 21.3843 11.2601L22.6824 10.7112C22.6676 10.5987 22.6771 10.4843 22.7101 10.3759L19.3417 7.8692L20.7458 10.9924L20.7467 10.9924ZM20.1206 11.4853C20.1742 11.3387 20.2708 11.2123 20.3974 11.1229L18.9561 7.92138C18.8227 7.93781 18.6874 7.9171 18.5647 7.86146L16.6653 10.6136C16.7497 10.7261 16.8025 10.8597 16.818 11.0002L20.1206 11.4862L20.1206 11.4853ZM18.2726 7.62374C18.2234 7.55637 18.1853 7.4813 18.16 7.40148L13.9965 7.40148C13.9709 7.48136 13.9325 7.55644 13.8829 7.62374L15.7862 10.3807C15.878 10.3403 15.9771 10.3194 16.0773 10.3194C16.1775 10.3194 16.2766 10.3403 16.3684 10.3807L18.2726 7.62374Z" fill="white"/>
</g>
<g clip-path="url(#clip15_495_13284)">
<path d="M16.3423 31.5215C24.7769 31.5215 31.6144 24.5991 31.6144 16.0599C31.6144 7.52075 24.7769 0.598389 16.3423 0.598389C7.90783 0.598389 1.07031 7.52075 1.07031 16.0599C1.07031 24.5991 7.90783 31.5215 16.3423 31.5215Z" fill="#602A52"/>
<path fill-rule="evenodd" clip-rule="evenodd" d="M20.7135 16.3614C20.4479 15.6114 19.9739 14.9551 19.3486 14.4713L19.3419 14.4635C19.2756 14.4128 19.2078 14.3641 19.1386 14.3176L19.1252 14.3079C19.057 14.2626 18.9876 14.2191 18.9172 14.1775L18.8981 14.1659C18.829 14.1253 18.7579 14.0883 18.6852 14.0548L18.6642 14.0432C18.5898 14.0078 18.5147 13.974 18.439 13.9417L18.4141 13.932C18.1689 13.829 17.9145 13.75 17.6544 13.6962C17.5044 13.9715 17.3117 14.2204 17.0836 14.4336C17.6194 14.4769 18.137 14.6502 18.5926 14.939L18.6184 14.9544L18.7444 15.0414L18.8017 15.082C18.8398 15.111 18.8752 15.14 18.9143 15.169L18.9782 15.2211C19.0126 15.2501 19.0441 15.2791 19.0766 15.3091L19.1415 15.3719L19.2302 15.4627L19.2951 15.5333L19.3744 15.627L19.4364 15.7053L19.508 15.8019C19.5319 15.8338 19.5481 15.8589 19.5672 15.887C19.5863 15.915 19.6111 15.9517 19.6311 15.9855L19.6865 16.0783C19.7037 16.1092 19.7247 16.144 19.7418 16.1769C19.7609 16.2087 19.7762 16.2445 19.7934 16.2793C19.8096 16.3141 19.8258 16.3431 19.8402 16.3759C19.858 16.4188 19.8752 16.462 19.8917 16.5054C19.9823 16.7342 20.0463 16.9729 20.0826 17.2166L20.1866 17.6071C20.2306 17.7694 20.6362 19.2073 21.5764 19.6915C22.654 20.251 24.081 20.9419 24.6423 21.2154L17.2296 25.6219L17.2296 22.6021C17.2296 22.1257 18.1841 21.5681 18.626 21.3719L18.6518 21.3574C18.7425 21.312 18.8332 21.2627 18.9191 21.2106L18.9563 21.1912C19.1475 21.0746 19.3294 20.9431 19.5004 20.7979L19.5462 20.7564L19.5987 20.709C19.6524 20.6601 19.7049 20.6099 19.7562 20.5583L19.7829 20.5322C19.8392 20.4752 19.8955 20.4211 19.9452 20.3544L19.9919 20.3003C20.0339 20.25 20.074 20.1988 20.1131 20.1466L20.1475 20.1031C20.1952 20.0393 20.2391 19.9736 20.2831 19.907L20.2983 19.8876C20.3575 19.7939 20.41 19.7002 20.4654 19.6026C20.2575 19.3485 20.0794 19.0709 19.9347 18.7754C19.8755 18.9425 19.801 19.1049 19.7151 19.2605C19.6788 19.3281 19.6407 19.3938 19.6025 19.4576L19.5853 19.4837C19.5493 19.5379 19.5117 19.5911 19.4727 19.6431L19.4383 19.6876C19.3994 19.7384 19.3587 19.7877 19.3161 19.8354L19.2932 19.8625C19.0171 20.1678 18.6873 20.4185 18.3206 20.6018L18.2509 20.6375C18.0629 20.7216 16.4059 21.4657 16.4059 22.5973L16.4059 25.6181L8.97029 21.2038C9.4485 20.9081 10.8459 20.0848 11.9951 19.7224C12.4447 19.5832 13.3992 20.1795 13.9404 20.6172L13.9728 20.6462C14.0444 20.7139 14.1198 20.7786 14.1981 20.8395L14.2248 20.8636C14.3966 21.0028 14.5799 21.1274 14.7718 21.2376L14.9006 21.3082L14.9264 21.3217C15.0514 21.3855 15.1793 21.4434 15.3101 21.4947L15.3674 21.5169L15.4055 21.5323C15.5936 21.6019 15.7873 21.656 15.983 21.6966C16.137 21.418 16.3357 21.1671 16.571 20.9545C16.2573 20.931 15.9485 20.8626 15.6537 20.7515L15.6031 20.7322L15.5058 20.6926L15.4561 20.6713L15.3616 20.6269C15.1428 20.5194 14.9363 20.3878 14.746 20.2345L14.4501 19.9678C14.1784 19.731 13.8843 19.5219 13.5719 19.3436C12.837 18.928 12.2223 18.7928 11.7508 18.9396C10.7676 19.2469 9.66039 19.8441 8.98461 20.2384L16.4087 6.98304L16.4087 12.7879C16.4087 12.9937 16.1033 13.531 15.0829 13.9871L15.0123 14.0258C14.913 14.0741 14.8166 14.1263 14.7221 14.1823L14.703 14.192C14.3888 14.3794 14.1006 14.6081 13.8459 14.8723L13.8363 14.882C13.7398 14.9825 13.6484 15.088 13.5624 15.198L13.5519 15.2124C13.5104 15.2661 13.47 15.3205 13.4307 15.3758L13.4173 15.3951C13.3819 15.4472 13.3476 15.5001 13.3142 15.5536L13.3028 15.57C13.2692 15.6248 13.237 15.6806 13.2064 15.7372L13.1844 15.7768C13.1567 15.8309 13.1291 15.8889 13.1014 15.9391L13.089 15.9652C13.0644 16.0161 13.0411 16.0677 13.0193 16.1198L12.9954 16.1778C12.9735 16.2319 12.9534 16.2899 12.9334 16.3421L12.9143 16.4001C12.8997 16.4415 12.8863 16.4834 12.8742 16.5257C12.8675 16.5489 12.8599 16.5711 12.8542 16.5953C12.7994 16.7893 12.7595 16.9874 12.7348 17.1877L12.7253 17.2775C12.7208 17.3183 12.7173 17.3593 12.7148 17.4003C12.7129 17.4418 12.7148 17.4824 12.7081 17.523C12.7014 17.5645 12.7081 17.5732 12.7081 17.6003L12.7081 17.6921C12.7081 17.895 12.7234 18.098 12.7539 18.2999C13.0737 18.3789 13.3832 18.4957 13.676 18.6478C13.5861 18.356 13.5379 18.0528 13.5328 17.7472L13.5328 17.6921C13.5328 17.6186 13.5328 17.5462 13.5414 17.4689L13.5414 17.4109C13.5414 17.3481 13.5538 17.2843 13.5624 17.2215L13.5624 17.1944C13.5723 17.1245 13.5856 17.0552 13.6025 16.9867L13.6139 16.9335C13.6283 16.8755 13.6426 16.8195 13.6607 16.7625L13.6722 16.7257C13.6913 16.6591 13.7151 16.5943 13.7399 16.5296L13.759 16.4861C13.78 16.4329 13.8029 16.3798 13.8268 16.3266L13.8449 16.2861C13.8745 16.2232 13.907 16.1624 13.9404 16.1015L13.9585 16.0715C13.9886 16.0191 14.0201 15.9676 14.053 15.9169L14.0769 15.8812C14.116 15.8232 14.1561 15.7691 14.1991 15.7091L14.2067 15.6995C14.2477 15.6463 14.2907 15.5951 14.3346 15.5449L14.3585 15.5159C14.5599 15.2917 14.7908 15.0955 15.0457 14.9332L15.397 14.7689C15.585 14.6848 17.2344 13.9204 17.2344 12.7879L17.2344 6.98304L24.7167 20.3379C24.0486 20.0123 22.8745 19.4373 21.9582 18.9657C21.4351 18.6952 21.0782 17.7414 20.9865 17.3993L20.8853 16.9983C20.8479 16.7831 20.793 16.5714 20.7212 16.3653L20.7135 16.3614V16.3614ZM25.7819 20.565L17.535 5.85145C17.4622 5.72276 17.357 5.61595 17.23 5.54192C17.1031 5.4679 16.959 5.42932 16.8125 5.43013C16.6663 5.42966 16.5226 5.46841 16.396 5.54241C16.2695 5.61642 16.1645 5.72305 16.0918 5.85145L7.85448 20.566C7.75079 20.7515 7.7237 20.971 7.77913 21.1766C7.83455 21.3822 7.96799 21.5573 8.15037 21.6638L16.3944 26.5728C16.523 26.6489 16.6693 26.689 16.8182 26.689C16.9671 26.689 17.1134 26.6489 17.242 26.5728L25.4851 21.6676C25.6674 21.5613 25.8008 21.3865 25.8564 21.1811C25.912 20.9757 25.8852 20.7564 25.7819 20.5708L25.7838 20.565L25.7819 20.565Z" fill="white"/>
</g>
<g clip-path="url(#clip16_495_13284)">
<path d="M16.3423 31.5215C24.7769 31.5215 31.6144 24.5991 31.6144 16.0599C31.6144 7.52075 24.7769 0.598389 16.3423 0.598389C7.90783 0.598389 1.07031 7.52075 1.07031 16.0599C1.07031 24.5991 7.90783 31.5215 16.3423 31.5215Z" fill="#232C45"/>
<path d="M18.733 10.6484L18.733 7.84603L16.3467 7.36285L16.3467 10.1653L13.9605 9.58545L13.9605 12.3878L11.5742 11.808L11.5742 20.7951L13.9605 21.3749L13.9605 24.1773L16.3467 24.7571L16.3467 21.9547L18.733 22.5345L18.733 19.7321L21.1192 20.3119L21.1192 11.3249L18.733 10.6484ZM16.824 20.2153L13.4832 19.4422L13.4832 14.1273L16.824 14.9004L16.824 20.2153Z" fill="white"/>
</g>
<g clip-path="url(#clip17_495_13284)">
<path d="M16.3423 31.5215C24.7769 31.5215 31.6144 24.5991 31.6144 16.0599C31.6144 7.52075 24.7769 0.598389 16.3423 0.598389C7.90783 0.598389 1.07031 7.52075 1.07031 16.0599C1.07031 24.5991 7.90783 31.5215 16.3423 31.5215Z" fill="#181C1F"/>
<path fill-rule="evenodd" clip-rule="evenodd" d="M19.9233 10.0973C20.2939 10.0545 20.6145 9.74796 20.6775 9.37545C20.7408 9.04628 20.5988 8.69129 20.3289 8.49717L20.1761 8.4075C19.9316 8.29434 19.6361 8.30415 19.3999 8.4345C19.042 8.62053 18.8528 9.0739 18.9711 9.46313C19.0816 9.87099 19.5092 10.1577 19.9233 10.0973ZM14.2829 9.87823C14.1467 9.77064 13.9586 9.73647 13.7939 9.78833C13.6134 9.84406 13.4638 9.9977 13.4169 10.1836C13.3705 10.3634 13.4198 10.5643 13.5457 10.6997C13.7044 10.8778 13.9806 10.9253 14.1913 10.8192C14.3562 10.739 14.4756 10.5701 14.494 10.3854C14.5173 10.1942 14.4352 9.99406 14.2829 9.87823ZM15.8453 10.4062C15.8635 10.1181 15.5753 9.86221 15.295 9.92909C15.1311 9.95962 14.9846 10.0808 14.93 10.2412C14.829 10.5116 15.0296 10.84 15.3135 10.8691C15.5803 10.9117 15.852 10.6825 15.8453 10.4062ZM12.1412 9.98778C12.4713 9.90054 12.838 10.1324 12.9086 10.4695C12.9974 10.811 12.759 11.1936 12.4141 11.2535C12.0701 11.3371 11.697 11.0763 11.6508 10.722C11.5924 10.3961 11.8219 10.0554 12.1412 9.98778ZM16.9066 10.5373C16.8245 10.372 16.6199 10.2916 16.4468 10.3437C16.2216 10.3924 16.0849 10.6594 16.1718 10.8746C16.2479 11.1164 16.5653 11.2214 16.7704 11.0781C16.9457 10.9698 17.0079 10.7176 16.9066 10.5373ZM17.3619 10.9066C17.5206 10.8584 17.7102 10.934 17.7755 11.0923C17.865 11.2721 17.7655 11.5154 17.5745 11.5743C17.3957 11.6428 17.1764 11.5309 17.1259 11.344C17.068 11.1645 17.179 10.9517 17.3619 10.9066ZM14.4956 11.5249C14.3721 11.4481 14.2177 11.4289 14.0779 11.4641C13.8711 11.5196 13.7026 11.7025 13.6686 11.917C13.6308 12.1433 13.7495 12.3854 13.951 12.4908C14.1373 12.5931 14.3819 12.5754 14.5477 12.4404C14.6796 12.3386 14.7603 12.1731 14.7579 12.0054C14.7653 11.8123 14.6588 11.6228 14.4956 11.5249ZM18.0041 11.5551C18.1655 11.4926 18.3706 11.5893 18.4051 11.766C18.4594 11.9557 18.2885 12.1624 18.0941 12.1394C17.9216 12.1367 17.7851 11.9586 17.8189 11.7885C17.8323 11.6845 17.907 11.591 18.0041 11.5551ZM15.9794 11.7431C15.8751 11.6304 15.7123 11.5778 15.5627 11.6088C15.3468 11.6464 15.1625 11.8497 15.1733 12.0767C15.1663 12.2975 15.3365 12.5059 15.5512 12.543C15.7367 12.5817 15.9399 12.4952 16.0395 12.3317C16.1561 12.1526 16.1312 11.8935 15.9794 11.7431ZM12.3568 11.6807C12.5663 11.616 12.8073 11.6611 12.9729 11.8089C13.218 12.0158 13.2649 12.4128 13.0768 12.6735C12.8865 12.9629 12.4552 13.0346 12.1804 12.8284C11.9276 12.6561 11.8379 12.2909 11.975 12.0166C12.05 11.8583 12.1907 11.7321 12.3568 11.6807ZM17.2113 12.3222C17.1699 12.1007 16.9265 11.958 16.7147 12.0222C16.5416 12.0649 16.4033 12.2342 16.4155 12.4177C16.4052 12.6569 16.6405 12.8597 16.8717 12.8204C17.1022 12.7979 17.2669 12.5473 17.2113 12.3222ZM10.6315 12.3341C10.9571 12.2885 11.2969 12.4887 11.4157 12.7996C11.5282 13.0673 11.4664 13.3957 11.2689 13.606C11.0272 13.8721 10.5916 13.9237 10.2991 13.7139C10.0205 13.5265 9.8991 13.14 10.02 12.824C10.1121 12.5616 10.3582 12.3651 10.6315 12.3341ZM18.0675 12.8553C18.0359 12.6437 17.7903 12.5165 17.5988 12.5977C17.4566 12.6474 17.3652 12.8027 17.3817 12.9527C17.3882 13.1429 17.5737 13.297 17.7592 13.2723C17.9595 13.2624 18.1118 13.0521 18.0675 12.8553ZM14.798 13.3267C14.9469 13.2782 15.1156 13.301 15.248 13.3846C15.3966 13.4762 15.4959 13.6441 15.5067 13.8198C15.5201 14.0057 15.4325 14.1949 15.2839 14.3044C15.1424 14.4106 14.95 14.4406 14.7831 14.3839C14.5519 14.3095 14.3889 14.065 14.4119 13.8195C14.4217 13.5947 14.5907 13.3962 14.798 13.3267ZM16.834 13.7651C16.7578 13.5441 16.5087 13.4087 16.2844 13.4702C16.1377 13.5075 16.0072 13.6154 15.9524 13.7595C15.8749 13.9558 15.9447 14.2008 16.1178 14.3213C16.2959 14.4516 16.5644 14.4318 16.7205 14.274C16.8543 14.147 16.8974 13.9381 16.834 13.7651ZM17.4292 13.8868C17.586 13.831 17.7758 13.8788 17.877 14.0152C18.0135 14.1822 17.9869 14.4555 17.8158 14.5878C17.6288 14.7519 17.3064 14.6835 17.2001 14.4572C17.0867 14.2471 17.1982 13.9524 17.4292 13.8868ZM13.7255 13.6691C13.572 13.5285 13.3504 13.4757 13.1498 13.5229C12.9617 13.5663 12.798 13.7028 12.7182 13.8804C12.599 14.1339 12.6639 14.4629 12.8779 14.6442C13.1268 14.8761 13.5574 14.8502 13.776 14.5877C14.012 14.3357 13.9856 13.894 13.7255 13.6691ZM11.3514 14.1941C11.7332 14.1263 12.1384 14.4028 12.2066 14.7917C12.2909 15.169 12.041 15.5814 11.6693 15.6738C11.32 15.7785 10.9165 15.5812 10.7817 15.2385C10.6328 14.9037 10.7693 14.4713 11.0864 14.2911C11.168 14.2428 11.258 14.2094 11.3514 14.1941ZM10.2799 15.7961C10.0575 15.4929 9.63482 15.3657 9.28488 15.4973C8.9718 15.6068 8.73962 15.9092 8.70898 16.2429L8.70898 16.4218C8.73483 16.6927 8.89137 16.9466 9.12116 17.0882C9.45961 17.3084 9.94191 17.2469 10.2153 16.9481C10.5085 16.6469 10.5391 16.1285 10.2799 15.7961ZM23.2945 16.1865C23.2563 16.3568 23.1327 16.5045 22.9725 16.5698C22.7972 16.6451 22.585 16.6167 22.4332 16.5005C22.2846 16.3918 22.2001 16.2025 22.2143 16.0178C22.2291 15.7801 22.4082 15.5619 22.64 15.5122C22.8189 15.4698 23.0153 15.5273 23.1457 15.6581C23.281 15.7924 23.3373 16.0005 23.2945 16.1865ZM21.7357 17.6784C21.9728 17.8388 22.336 17.7146 22.4193 17.4356C22.4754 17.2766 22.4453 17.0876 22.3356 16.9594C22.1551 16.7353 21.7739 16.7464 21.6067 16.9805C21.4365 17.1929 21.4962 17.5458 21.7357 17.6784ZM23.9527 14.6416C23.8618 14.9745 23.4797 15.1794 23.1562 15.0723C22.8199 14.9789 22.6124 14.5783 22.7342 14.2461C22.8352 13.9029 23.2451 13.7067 23.571 13.8439C23.8789 13.9561 24.055 14.328 23.9527 14.6416ZM21.0966 18.539C21.279 18.55 21.4503 18.411 21.4926 18.2333C21.5638 18.0116 21.4041 17.758 21.1767 17.7262C20.9318 17.6717 20.683 17.8971 20.7026 18.1486C20.7073 18.3564 20.8917 18.5374 21.0966 18.539ZM20.5486 18.7497C20.5102 18.9129 20.3506 19.0411 20.1826 19.019C19.984 19.0073 19.826 18.7981 19.8714 18.6012C19.9025 18.4102 20.1081 18.2743 20.2931 18.3237C20.4756 18.363 20.6017 18.5669 20.5486 18.7497ZM21.4559 15.9334C21.5835 15.8637 21.6773 15.7381 21.7173 15.598C21.7736 15.389 21.7017 15.1497 21.5354 15.0124C21.3609 14.8658 21.0945 14.8484 20.9034 14.9721C20.7226 15.084 20.6151 15.3072 20.6473 15.5201C20.6682 15.6867 20.7692 15.8403 20.9137 15.9223C21.0751 16.0256 21.2904 16.0273 21.4559 15.9334ZM19.6747 18.9891C19.6473 19.1618 19.4618 19.293 19.2935 19.2347C19.1041 19.1871 19.0131 18.9338 19.1303 18.7751C19.219 18.6252 19.4397 18.595 19.5681 18.7099C19.6503 18.7737 19.6928 18.886 19.6747 18.9891ZM20.5242 17.1241C20.6728 17.0892 20.7993 16.973 20.8478 16.8264C20.9239 16.6184 20.8426 16.355 20.6431 16.2506C20.4579 16.1339 20.1945 16.1785 20.0552 16.348C19.929 16.4911 19.9011 16.7124 19.991 16.8817C20.0856 17.0735 20.3195 17.1816 20.5242 17.1241ZM22.3963 13.9792C22.3466 14.1951 22.1872 14.3837 21.9778 14.4547C21.6781 14.5656 21.3153 14.4077 21.1868 14.1122C21.0349 13.8005 21.1898 13.3867 21.5038 13.2493C21.7778 13.1143 22.1349 13.2188 22.3006 13.4764C22.3983 13.6214 22.4356 13.808 22.3963 13.9792ZM19.4179 17.9105C19.628 17.9853 19.872 17.8436 19.9233 17.6258C19.9737 17.4529 19.8982 17.2467 19.7353 17.1655C19.5361 17.0366 19.2448 17.141 19.1624 17.3632C19.0661 17.5764 19.1977 17.8463 19.4179 17.9105ZM22.7004 12.144C22.5761 12.452 22.2346 12.6494 21.9094 12.5975C21.6242 12.5618 21.3745 12.3431 21.2937 12.0647C21.1875 11.7195 21.3618 11.312 21.6878 11.161C21.9875 11.0109 22.3787 11.0983 22.5882 11.3626C22.7663 11.5749 22.8109 11.889 22.7004 12.144ZM18.5359 18.3914C18.7326 18.4698 18.9644 18.3184 18.991 18.11C19.0198 17.9605 18.9329 17.8026 18.7964 17.7418C18.6306 17.6521 18.4059 17.7374 18.334 17.9123C18.2421 18.0927 18.3455 18.3315 18.5359 18.3914ZM19.7716 15.2924C19.7384 15.4471 19.6343 15.5835 19.4965 15.6575C19.3437 15.7418 19.1504 15.7446 18.9948 15.666C18.8292 15.5846 18.7114 15.413 18.6923 15.2278C18.6725 15.0507 18.7433 14.8671 18.8754 14.7493C19.0549 14.5841 19.3456 14.5639 19.5439 14.7071C19.7312 14.8284 19.8161 15.0759 19.7716 15.2924ZM18.3706 16.8535C18.5976 16.8976 18.8383 16.7473 18.8981 16.52C18.9398 16.3727 18.913 16.2044 18.8173 16.0841C18.6884 15.9178 18.444 15.8562 18.2543 15.9474C18.0536 16.038 17.9359 16.2832 17.9925 16.499C18.034 16.6799 18.1909 16.8224 18.3706 16.8535ZM17.9695 17.3185C17.9386 17.4838 17.8026 17.6261 17.6352 17.6464C17.4242 17.6822 17.2039 17.5219 17.1766 17.3057C17.1301 17.0597 17.3501 16.8115 17.5968 16.8319C17.8333 16.8378 18.0292 17.0833 17.9695 17.3185ZM20.0116 14.1793C20.2086 14.1154 20.3649 13.9477 20.425 13.7483C20.4823 13.5618 20.4478 13.35 20.3359 13.1911C20.179 12.9596 19.8653 12.8514 19.6031 12.948C19.2801 13.0498 19.0864 13.44 19.2011 13.763C19.2982 14.0961 19.6889 14.2945 20.0116 14.1793ZM20.7532 11.8373C20.6198 12.2058 20.1803 12.4221 19.8137 12.2869C19.449 12.1716 19.2218 11.7459 19.3293 11.374C19.4149 11.0156 19.7858 10.761 20.1462 10.8147C20.507 10.8522 20.8081 11.1884 20.8032 11.5566C20.8035 11.6523 20.7869 11.7479 20.7532 11.8373ZM13.0785 21.3007C12.9518 21.1822 12.887 21.0001 12.9109 20.8269C12.9339 20.6355 13.0641 20.4635 13.2393 20.3883C13.4064 20.3122 13.6107 20.3324 13.7617 20.437C13.9578 20.5686 14.0552 20.8345 13.9822 21.0627C13.9292 21.2408 13.782 21.3845 13.605 21.4336C13.4226 21.4854 13.2163 21.4311 13.0785 21.3007ZM12.5826 19.1887C12.327 19.3168 12.2522 19.6974 12.4495 19.9097C12.5576 20.0382 12.7345 20.1061 12.899 20.0738C13.1808 20.0272 13.3615 19.6871 13.2444 19.4237C13.1475 19.1684 12.8156 19.0447 12.5826 19.1887ZM14.0719 22.647C13.8322 22.4012 13.8473 21.9637 14.1004 21.7333C14.3481 21.4848 14.7946 21.5025 15.0182 21.7751C15.2617 22.0349 15.2252 22.4924 14.9452 22.71C14.6955 22.9241 14.2893 22.8932 14.0719 22.647ZM12.164 18.1953C12.0637 18.3499 12.0971 18.5696 12.2282 18.6952C12.3825 18.8684 12.6793 18.8547 12.8199 18.671C12.9887 18.4834 12.9199 18.1526 12.6948 18.0443C12.5145 17.9449 12.2676 18.0164 12.164 18.1953ZM12.2532 17.6138C12.1326 17.4987 12.1025 17.2947 12.2052 17.1583C12.3143 16.9899 12.5722 16.9556 12.718 17.0937C12.8661 17.2162 12.8799 17.4644 12.7453 17.6021C12.6207 17.7426 12.3831 17.7516 12.2532 17.6138ZM14.2154 19.815C14.2114 19.9617 14.2722 20.1066 14.3722 20.2116C14.523 20.3652 14.7638 20.4215 14.9642 20.3441C15.1768 20.2641 15.3245 20.039 15.3139 19.8096C15.3083 19.5952 15.1709 19.3896 14.9725 19.3116C14.8195 19.2468 14.6376 19.2588 14.4954 19.3447C14.3264 19.4348 14.2176 19.6229 14.2154 19.815ZM12.4859 16.7249C12.3518 16.6147 12.332 16.3865 12.4659 16.268C12.601 16.1255 12.8633 16.172 12.9407 16.3539C13.0247 16.5066 12.9406 16.7152 12.7782 16.7707C12.6825 16.8109 12.5652 16.7922 12.4859 16.7249ZM13.6577 18.4035C13.6135 18.5513 13.6498 18.7204 13.7512 18.836C13.8912 19.0065 14.1573 19.0665 14.3461 18.9436C14.5385 18.8393 14.6317 18.5859 14.5561 18.3791C14.4965 18.1971 14.3209 18.0621 14.1312 18.0566C13.9197 18.0439 13.7106 18.1952 13.6577 18.4035ZM15.4202 21.614C15.2602 21.4627 15.1782 21.2288 15.2219 21.0097C15.2764 20.6913 15.5925 20.4517 15.9096 20.4864C16.2523 20.5086 16.5292 20.8509 16.4902 21.195C16.4691 21.5027 16.2016 21.764 15.8983 21.7808C15.7255 21.7942 15.5472 21.7339 15.4202 21.614ZM13.5425 17.0361C13.3738 17.1831 13.3733 17.4679 13.5342 17.6215C13.6572 17.7519 13.8712 17.7886 14.022 17.6862C14.2318 17.5756 14.2877 17.2679 14.1385 17.0848C14.004 16.894 13.7074 16.8748 13.5425 17.0361ZM16.8341 22.7971C16.6324 22.5344 16.6337 22.1363 16.8403 21.8768C17.0131 21.6443 17.3249 21.5343 17.6036 21.6023C17.952 21.6813 18.214 22.0375 18.1807 22.3989C18.1597 22.7368 17.8897 23.0364 17.5589 23.0884C17.2884 23.1388 16.9972 23.0213 16.8341 22.7971ZM13.5693 16.0214C13.4041 16.1549 13.418 16.4338 13.5832 16.5611C13.6968 16.661 13.8753 16.6635 13.9954 16.574C14.1549 16.4733 14.194 16.2336 14.0802 16.0833C13.9715 15.9126 13.7155 15.8842 13.5693 16.0214ZM15.6029 18.6509C15.487 18.5445 15.4222 18.3852 15.4275 18.2273C15.4316 18.0512 15.5256 17.8802 15.6705 17.7829C15.8228 17.6782 16.0285 17.6604 16.1965 17.736C16.358 17.807 16.4799 17.9607 16.5148 18.1354C16.5667 18.3753 16.439 18.6404 16.2175 18.743C16.0203 18.8468 15.766 18.7978 15.6029 18.6509ZM14.9661 16.6486C14.8151 16.8258 14.8238 17.1121 14.9885 17.2779C15.0938 17.388 15.2513 17.4484 15.402 17.4244C15.6087 17.3943 15.7833 17.2105 15.7999 16.9986C15.8224 16.7773 15.6711 16.5517 15.4582 16.4937C15.2827 16.4399 15.0824 16.5065 14.9661 16.6486ZM14.7691 16.0619C14.643 15.9523 14.589 15.762 14.6551 15.605C14.7297 15.4019 14.9768 15.2886 15.1755 15.3725C15.4093 15.4544 15.5121 15.7713 15.3716 15.9776C15.2485 16.1821 14.9407 16.2316 14.7691 16.0619ZM16.4355 19.4224C16.392 19.6272 16.4576 19.848 16.5983 20.0002C16.7294 20.1435 16.928 20.2188 17.1198 20.1999C17.3962 20.1778 17.6453 19.9564 17.6934 19.6781C17.7674 19.3439 17.5299 18.9793 17.1962 18.9189C16.8626 18.8379 16.4978 19.0819 16.4355 19.4224ZM18.0693 21.2406C17.8204 20.9397 17.8544 20.4462 18.153 20.192C18.4337 19.9295 18.9114 19.9424 19.1762 20.2222C19.4404 20.4761 19.4734 20.9285 19.2476 21.218C19.0355 21.5159 18.5975 21.6124 18.2847 21.4244C18.2027 21.377 18.1291 21.3148 18.0693 21.2406ZM19.976 21.3773C19.8278 21.7238 19.9303 22.158 20.2178 22.3991C20.468 22.6189 20.8428 22.6713 21.1435 22.5313L21.2965 22.4419C21.5154 22.2838 21.6544 22.0196 21.6606 21.7474C21.6798 21.3405 21.3861 20.9484 20.9938 20.8581C20.5896 20.7515 20.1308 20.9838 19.976 21.3773Z" fill="white"/>
</g>
<g clip-path="url(#clip18_495_13284)">
<path d="M16.3423 31.5215C24.7769 31.5215 31.6144 24.5991 31.6144 16.0599C31.6144 7.52075 24.7769 0.598389 16.3423 0.598389C7.90783 0.598389 1.07031 7.52075 1.07031 16.0599C1.07031 24.5991 7.90783 31.5215 16.3423 31.5215Z" fill="#58BF00"/>
<path d="M24.9355 22.4185L18.2636 19.2701L18.2636 12.2931L24.9355 9.89755L24.9355 22.4185ZM15.2216 25.7234L8.70898 22.6514L8.70898 10.2213L15.2216 13.2943L15.2216 25.7234ZM24.7761 9.44724L24.6683 9.48589L18.2636 11.7868L18.1032 11.8447L15.3895 12.8188L8.96575 9.78836L18.1032 6.50665L18.1834 6.47766L18.3523 6.41678L18.4115 6.39648L24.8353 9.42694L24.7752 9.44724L24.7761 9.44724Z" fill="white"/>
</g>
<g clip-path="url(#clip19_495_13284)">
<path d="M16.2535 31.5215C24.688 31.5215 31.5255 24.5991 31.5255 16.0599C31.5255 7.52075 24.688 0.598389 16.2535 0.598389C7.81897 0.598389 0.981445 7.52075 0.981445 16.0599C0.981446 24.5991 7.81897 31.5215 16.2535 31.5215Z" fill="#00D395"/>
<path fill-rule="evenodd" clip-rule="evenodd" d="M9.16355 21.4585C8.9263 21.3165 8.72947 21.1146 8.59229 20.8726C8.45511 20.6305 8.38226 20.3566 8.38086 20.0776L8.38086 16.9341C8.38086 16.5601 8.68821 16.2576 9.06428 16.2595C9.18455 16.2595 9.30291 16.2914 9.4079 16.3513L16.5695 20.4883C16.9886 20.7299 17.2472 21.1744 17.2472 21.6547L17.2472 24.9112C17.2466 25.0189 17.225 25.1253 17.1836 25.2245C17.1422 25.3236 17.0818 25.4135 17.0059 25.4889C16.9301 25.5644 16.8403 25.6239 16.7416 25.6641C16.643 25.7042 16.5374 25.7242 16.4311 25.723C16.28 25.7231 16.1317 25.682 16.0016 25.6041L9.16355 21.4585V21.4585ZM19.8387 15.4903C20.2587 15.7319 20.5145 16.1774 20.5164 16.6567L20.5164 23.2665C20.5164 23.4617 20.4114 23.6424 20.2386 23.7371L18.6713 24.6107C18.6512 24.6221 18.6297 24.6308 18.6074 24.6368L18.6074 20.9666C18.6074 20.4912 18.3564 20.0505 17.9431 19.807L11.6548 16.0788L11.6548 11.9361C11.6548 11.5621 11.9622 11.2597 12.3392 11.2616C12.4593 11.2618 12.5774 11.2934 12.6818 11.3534L19.8406 15.4903L19.8387 15.4903ZM22.9742 10.6084C23.3942 10.8499 23.6529 11.2945 23.6529 11.7767L23.6529 21.4305C23.6517 21.5286 23.6244 21.6245 23.5738 21.7082C23.5232 21.7919 23.4513 21.8602 23.3656 21.9059L21.8794 22.7012L21.8794 15.9793C21.8794 15.5048 21.6274 15.0651 21.218 14.8207L14.7884 11.0007L14.7884 7.0725C14.7884 6.95267 14.8218 6.83574 14.8801 6.73234C14.9737 6.57692 15.1234 6.46449 15.2974 6.41886C15.4715 6.37322 15.6563 6.39797 15.8126 6.48786L22.9742 10.6093L22.9742 10.6084Z" fill="white"/>
</g>
<g clip-path="url(#clip20_495_13284)">
<path d="M16.2535 31.5215C24.688 31.5215 31.5255 24.5991 31.5255 16.0599C31.5255 7.52075 24.688 0.598389 16.2535 0.598389C7.81897 0.598389 0.981445 7.52075 0.981445 16.0599C0.981446 24.5991 7.81897 31.5215 16.2535 31.5215Z" fill="#2ED6A1"/>
<path d="M15.1619 17.6254L19.3808 17.6254C19.7552 17.6242 20.1257 17.5484 20.4712 17.4023C20.8167 17.2562 21.1303 17.0426 21.3943 16.7738C21.6583 16.505 21.8673 16.1861 22.0096 15.8355C22.1518 15.4848 22.2244 15.1093 22.2233 14.7302C22.2253 13.9648 21.927 13.23 21.394 12.6872C20.8609 12.1445 20.1368 11.8383 19.3808 11.836L18.0388 11.836L15.1619 9.29547L19.3808 9.29547C20.6217 9.29847 21.8229 9.73831 22.7786 10.5396C23.7343 11.3409 24.385 12.4538 24.6191 13.6875C24.8582 14.9219 24.6675 16.2021 24.0795 17.3102C23.4915 18.4184 22.5424 19.2861 21.3938 19.7658L24.7203 22.7055L20.9108 22.7055L15.1619 17.6244L15.1619 17.6254ZM17.2207 14.3785L13.0018 14.3785C12.246 14.3808 11.522 14.6868 10.989 15.2293C10.456 15.7719 10.1576 16.5065 10.1593 17.2717C10.1573 18.0371 10.4556 18.7719 10.9887 19.3147C11.5217 19.8574 12.2458 20.1636 13.0018 20.1659L14.3448 20.1659L17.2198 22.7074L13.0018 22.7074C11.761 22.7044 10.5597 22.2645 9.60403 21.4632C8.64833 20.6619 7.99767 19.5491 7.76353 18.3153C7.52447 17.0809 7.71516 15.8008 8.30317 14.6926C8.89117 13.5845 9.84018 12.7167 10.9888 12.237L7.66522 9.29547L11.4746 9.29547L17.2207 14.3785V14.3785Z" fill="white"/>
</g>
<g clip-path="url(#clip21_495_13284)">
<path d="M16.2535 31.5215C24.688 31.5215 31.5255 24.5991 31.5255 16.0599C31.5255 7.52075 24.688 0.598389 16.2535 0.598389C7.81897 0.598389 0.981445 7.52075 0.981445 16.0599C0.981446 24.5991 7.81897 31.5215 16.2535 31.5215Z" fill="#26A17B"/>
<path fill-rule="evenodd" clip-rule="evenodd" d="M22.6236 7.09546C23.1023 8.13858 23.5912 9.17722 24.0801 10.2159C24.8456 11.8423 25.6111 13.4687 26.3375 15.1123L26.3729 15.0559L26.3729 15.1046C24.8195 16.6476 23.2538 18.1778 21.6882 19.7081C19.8816 21.4737 18.0751 23.2394 16.2875 25.0245L16.2243 25.0245C14.0599 22.9097 11.8997 20.7897 9.73961 18.6699L9.7389 18.6692C8.53738 17.49 7.33591 16.3109 6.13379 15.1328L6.13379 15.0828C6.71257 13.8547 7.28596 12.6244 7.85931 11.3942C8.52776 9.96 9.19615 8.52588 9.87297 7.09546L22.6236 7.09546ZM17.6967 16.2682L17.6967 21.2978L15.1645 21.2978L15.1645 16.2686C12.3192 16.1337 10.1781 15.5557 10.1781 14.8634C10.1781 14.171 12.3182 13.593 15.1645 13.459L15.1645 11.8902L11.6623 11.8902L11.6623 9.49786L21.1977 9.49786L21.1977 11.8902L17.6959 11.8902L17.6959 13.4603L17.6967 13.4607C20.5378 13.5951 22.6736 14.1727 22.6736 14.8644C22.6736 15.5562 20.5378 16.1337 17.6967 16.2682ZM17.6962 15.3858L17.6962 13.6327C20.2059 13.7473 22.0785 14.1967 22.0785 14.7321C22.0785 15.2674 20.205 15.717 17.6962 15.8316L17.6958 15.8327L17.6958 15.8314C17.6244 15.8361 17.2573 15.8587 16.44 15.8587C15.7865 15.8587 15.3268 15.8397 15.1648 15.831L15.1648 15.8331C12.6502 15.7189 10.7732 15.2699 10.7732 14.7327C10.7732 14.1955 12.6504 13.7471 15.1648 13.6327L15.1648 15.3858C15.3295 15.3974 15.8005 15.4259 16.4507 15.4259C17.2316 15.4259 17.6242 15.3926 17.6962 15.3858Z" fill="white"/>
</g>
<g clip-path="url(#clip22_495_13284)">
<path d="M16.2535 31.5215C24.688 31.5215 31.5255 24.5991 31.5255 16.0599C31.5255 7.52075 24.688 0.598389 16.2535 0.598389C7.81897 0.598389 0.981445 7.52075 0.981445 16.0599C0.981446 24.5991 7.81897 31.5215 16.2535 31.5215Z" fill="#627EEA"/>
<path d="M16.7295 4.46375L16.7295 13.0352L23.8854 16.2725L16.7295 4.46375Z" fill="white" fill-opacity="0.602"/>
<path d="M16.7291 4.46375L9.57227 16.2725L16.7291 13.0352L16.7291 4.46375Z" fill="white"/>
<path d="M16.7295 21.8271L16.7295 27.6512L23.8902 17.6215L16.7295 21.8271Z" fill="white" fill-opacity="0.602"/>
<path d="M16.7291 27.6512L16.7291 21.8261L9.57227 17.6215L16.7291 27.6512Z" fill="white"/>
<path d="M16.7295 20.479L23.8854 16.2725L16.7295 13.0372L16.7295 20.479Z" fill="white" fill-opacity="0.2"/>
<path d="M9.57227 16.2725L16.7291 20.479L16.7291 13.0372L9.57227 16.2725Z" fill="white" fill-opacity="0.602"/>
</g>
<defs>
<filter id="filter0_d_495_13284" x="4.84375" y="5.89661" width="22.9883" height="21.3163" filterUnits="userSpaceOnUse" color-interpolation-filters="sRGB">
<feFlood flood-opacity="0" result="BackgroundImageFix"/>
<feColorMatrix in="SourceAlpha" type="matrix" values="0 0 0 0 0 0 0 0 0 0 0 0 0 0 0 0 0 0 127 0" result="hardAlpha"/>
<feOffset dy="0.5"/>
<feGaussianBlur stdDeviation="0.5"/>
<feColorMatrix type="matrix" values="0 0 0 0 0 0 0 0 0 0 0 0 0 0 0 0 0 0 0.204257 0"/>
<feBlend mode="normal" in2="BackgroundImageFix" result="effect1_dropShadow_495_13284"/>
<feBlend mode="normal" in="SourceGraphic" in2="effect1_dropShadow_495_13284" result="shape"/>
</filter>
<clipPath id="clip0_495_13284">
<rect width="30.5441" height="30.9231" fill="white" transform="translate(1.07031 0.598389)"/>
</clipPath>
<clipPath id="clip1_495_13284">
<rect width="30.5441" height="30.9231" fill="white" transform="translate(1.07031 0.598389)"/>
</clipPath>
<clipPath id="clip2_495_13284">
<rect width="30.5441" height="30.9231" fill="white" transform="translate(1.07031 0.598389)"/>
</clipPath>
<clipPath id="clip3_495_13284">
<rect width="30.5441" height="30.9231" fill="white" transform="translate(1.07031 0.598389)"/>
</clipPath>
<clipPath id="clip4_495_13284">
<rect width="30.5441" height="30.9231" fill="white" transform="translate(1.07031 0.598389)"/>
</clipPath>
<clipPath id="clip5_495_13284">
<rect width="30.5441" height="30.9231" fill="white" transform="translate(1.07031 0.598389)"/>
</clipPath>
<clipPath id="clip6_495_13284">
<rect width="30.5441" height="30.9231" fill="white" transform="translate(1.07031 0.598389)"/>
</clipPath>
<clipPath id="clip7_495_13284">
<rect width="30.5441" height="30.9231" fill="white" transform="translate(1.07031 0.598389)"/>
</clipPath>
<clipPath id="clip8_495_13284">
<rect width="30.5441" height="30.9231" fill="white" transform="translate(1.07031 0.598389)"/>
</clipPath>
<clipPath id="clip9_495_13284">
<rect width="30.5441" height="30.9231" fill="white" transform="translate(1.07031 0.598389)"/>
</clipPath>
<clipPath id="clip10_495_13284">
<rect width="30.5441" height="30.9231" fill="white" transform="translate(1.07031 0.598389)"/>
</clipPath>
<clipPath id="clip11_495_13284">
<rect width="30.5441" height="30.9231" fill="white" transform="translate(1.07031 0.598389)"/>
</clipPath>
<clipPath id="clip12_495_13284">
<rect width="30.5441" height="30.9231" fill="white" transform="translate(1.07031 0.598389)"/>
</clipPath>
<clipPath id="clip13_495_13284">
<rect width="30.5441" height="30.9231" fill="white" transform="translate(1.07031 0.598389)"/>
</clipPath>
<clipPath id="clip14_495_13284">
<rect width="30.5441" height="30.9231" fill="white" transform="translate(1.07031 0.598389)"/>
</clipPath>
<clipPath id="clip15_495_13284">
<rect width="30.5441" height="30.9231" fill="white" transform="translate(1.07031 0.598389)"/>
</clipPath>
<clipPath id="clip16_495_13284">
<rect width="30.5441" height="30.9231" fill="white" transform="translate(1.07031 0.598389)"/>
</clipPath>
<clipPath id="clip17_495_13284">
<rect width="30.5441" height="30.9231" fill="white" transform="translate(1.07031 0.598389)"/>
</clipPath>
<clipPath id="clip18_495_13284">
<rect width="30.5441" height="30.9231" fill="white" transform="translate(1.07031 0.598389)"/>
</clipPath>
<clipPath id="clip19_495_13284">
<rect width="30.5441" height="30.9231" fill="white" transform="translate(0.981445 0.598389)"/>
</clipPath>
<clipPath id="clip20_495_13284">
<rect width="30.5441" height="30.9231" fill="white" transform="translate(0.981445 0.598389)"/>
</clipPath>
<clipPath id="clip21_495_13284">
<rect width="30.5441" height="30.9231" fill="white" transform="translate(0.981445 0.598389)"/>
</clipPath>
<clipPath id="clip22_495_13284">
<rect width="30.5441" height="30.9231" fill="white" transform="translate(0.981445 0.598389)"/>
</clipPath>
</defs>
</svg>
