<svg width="401" height="401" viewBox="0 0 401 401" fill="none" xmlns="http://www.w3.org/2000/svg">
<path d="M400.018 200.009C400.018 310.478 310.478 400.018 200.009 400.018C89.5406 400.018 0 310.478 0 200.009C0 89.5406 89.5406 0 200.009 0C310.478 0 400.018 89.5406 400.018 200.009Z" fill="#FFCC00"/>
<path d="M353.038 71.2726C316.345 27.6954 261.424 0 200.009 0C89.5406 0 0 89.5406 0 200.009C0 223.206 3.99001 245.464 11.2659 266.196C124.082 199.266 237.914 134.096 353.038 71.2726Z" fill="#FCDC59"/>
<path d="M348.892 196.84C348.892 280.826 280.828 348.891 196.842 348.891C112.856 348.891 44.791 280.826 44.791 196.84C44.791 112.854 112.856 44.7896 196.842 44.7896C280.828 44.7896 348.892 112.854 348.892 196.84Z" fill="#DA8100"/>
<path d="M353.194 203.177C353.194 286.029 286.029 353.194 203.178 353.194C120.326 353.194 53.1611 286.029 53.1611 203.177C53.1611 120.326 120.326 53.1609 203.178 53.1609C286.029 53.1609 353.194 120.326 353.194 203.177Z" fill="#F0AA00"/>
<path d="M99.9624 151.303L100.113 151.5H100.361H213.327H217.142H302.147C304.486 151.5 306.609 152.454 308.147 153.99C309.684 155.529 310.636 157.651 310.636 159.987V195.168C310.636 197.503 309.683 199.625 308.146 201.163C306.609 202.7 304.488 203.652 302.147 203.652H249.967H249.467V204.152V281.425C249.467 284.107 248.371 286.545 246.604 288.311L246.604 288.311C244.84 290.075 242.403 291.17 239.717 291.17H217.142H213.327H194.564C191.882 291.17 189.445 290.075 187.681 288.311C185.913 286.544 184.818 284.107 184.818 281.425V204.151V203.651H184.318H128.368H128.121L127.971 203.848C126.909 205.242 125.233 206.142 123.347 206.142C120.144 206.142 117.544 203.542 117.544 200.339C117.544 197.134 120.144 194.537 123.347 194.537C125.234 194.537 126.909 195.436 127.971 196.828L128.121 197.025H128.368H188.133C189.963 197.025 191.448 198.51 191.448 200.339V281.425C191.448 282.28 191.802 283.062 192.366 283.626L192.367 283.627C192.93 284.188 193.708 284.544 194.564 284.544H213.327H213.827V284.044V187.283H235.022C237.107 188.882 239.678 189.774 242.369 189.774C249.035 189.774 254.443 184.366 254.443 177.702C254.443 171.039 249.035 165.629 242.369 165.629C239.679 165.629 237.107 166.521 235.022 168.119H213.827V158.627V158.127H213.327H100.361H100.113L99.9624 158.325C98.9037 159.718 97.2289 160.617 95.3423 160.617C92.1363 160.617 89.5391 158.02 89.5391 154.813C89.5391 151.608 92.1363 149.011 95.3423 149.011C97.2289 149.011 98.9037 149.909 99.9624 151.303ZM116.188 174.191L116.338 174.389H116.586H237.348H237.595L237.746 174.192C238.807 172.798 240.482 171.901 242.369 171.901C245.572 171.901 248.172 174.498 248.172 177.703C248.172 180.906 245.572 183.505 242.369 183.505C240.483 183.505 238.808 182.606 237.746 181.211L237.595 181.014H237.348H116.586H116.338L116.188 181.212C115.129 182.606 113.454 183.505 111.568 183.505C108.362 183.505 105.765 180.906 105.765 177.703C105.765 174.498 108.362 171.901 111.568 171.901H111.568C113.456 171.9 115.129 172.798 116.188 174.191ZM123.347 198.325C124.462 198.325 125.362 199.225 125.362 200.339C125.362 201.452 124.462 202.354 123.347 202.354C122.235 202.354 121.333 201.451 121.333 200.339C121.333 199.227 122.236 198.325 123.347 198.325ZM126.362 200.339C126.362 198.672 125.014 197.325 123.347 197.325C121.685 197.325 120.333 198.673 120.333 200.339C120.333 202.004 121.683 203.354 123.347 203.354C125.015 203.354 126.362 202.003 126.362 200.339ZM95.3423 152.799C96.4545 152.799 97.3568 153.701 97.3568 154.813C97.3568 155.925 96.4545 156.827 95.3423 156.827C94.2301 156.827 93.3278 155.925 93.3278 154.813C93.3278 153.703 94.2317 152.799 95.3423 152.799ZM98.3568 154.813C98.3568 153.149 97.0066 151.799 95.3423 151.799C93.6796 151.799 92.3278 153.15 92.3278 154.813C92.3278 156.477 93.678 157.827 95.3423 157.827C97.0066 157.827 98.3568 156.477 98.3568 154.813Z" fill="#B26900" stroke="#B26900"/>
<path d="M94.6109 145.951L94.7609 146.149H95.009H207.976H211.791H296.796C299.135 146.149 301.257 147.102 302.795 148.638C304.333 150.177 305.285 152.299 305.285 154.636V189.816C305.285 192.151 304.331 194.274 302.795 195.811C301.257 197.348 299.136 198.301 296.796 198.301H244.615H244.115V198.801V276.074C244.115 278.756 243.02 281.193 241.253 282.959L241.252 282.959C239.488 284.723 237.051 285.818 234.366 285.818H211.791H207.976H189.212C186.53 285.818 184.093 284.723 182.329 282.959C180.562 281.192 179.466 278.755 179.466 276.074V198.799V198.299H178.966H123.017H122.769L122.619 198.496C121.557 199.89 119.882 200.79 117.996 200.79C114.793 200.79 112.192 198.19 112.192 194.988C112.192 191.783 114.792 189.186 117.996 189.186C119.882 189.186 121.557 190.084 122.619 191.477L122.769 191.673H123.017H182.781C184.612 191.673 186.096 193.158 186.096 194.988V276.074C186.096 276.929 186.45 277.71 187.015 278.274L187.015 278.275C187.578 278.836 188.356 279.193 189.212 279.193H207.976H208.476V278.693V181.931H229.671C231.755 183.53 234.326 184.422 237.018 184.422C243.683 184.422 249.092 179.015 249.092 172.35C249.092 165.687 243.683 160.278 237.018 160.278C234.328 160.278 231.756 161.17 229.671 162.767H208.476V153.276V152.776H207.976H95.009H94.7609L94.6109 152.973C93.5521 154.367 91.8773 155.265 89.9907 155.265C86.7848 155.265 84.1875 152.668 84.1875 149.461C84.1875 146.256 86.7847 143.659 89.9907 143.659C91.8773 143.659 93.5521 144.558 94.6109 145.951ZM110.837 168.84L110.987 169.037H111.235H231.996H232.244L232.394 168.84C233.456 167.446 235.131 166.549 237.018 166.549C240.221 166.549 242.821 169.146 242.821 172.352C242.821 175.554 240.221 178.154 237.018 178.154C235.131 178.154 233.456 177.254 232.394 175.86L232.244 175.663H231.996H111.235H110.987L110.837 175.86C109.778 177.254 108.103 178.154 106.216 178.154C103.011 178.154 100.413 175.554 100.413 172.352C100.413 169.146 103.01 166.549 106.216 166.549H106.217C108.105 166.548 109.778 167.446 110.837 168.84ZM117.996 192.974C119.111 192.974 120.01 193.873 120.01 194.988C120.01 196.1 119.11 197.002 117.996 197.002C116.883 197.002 115.981 196.1 115.981 194.988C115.981 193.875 116.885 192.974 117.996 192.974ZM121.01 194.988C121.01 193.32 119.663 191.974 117.996 191.974C116.333 191.974 114.981 193.322 114.981 194.988C114.981 196.652 116.331 198.002 117.996 198.002C119.663 198.002 121.01 196.652 121.01 194.988ZM89.9907 147.447C91.1029 147.447 92.0053 148.349 92.0053 149.461C92.0053 150.573 91.1029 151.475 89.9907 151.475C88.8786 151.475 87.9762 150.573 87.9762 149.461C87.9762 148.351 88.8801 147.447 89.9907 147.447ZM93.0053 149.461C93.0053 147.797 91.655 146.447 89.9907 146.447C88.328 146.447 86.9762 147.799 86.9762 149.461C86.9762 151.125 88.3265 152.475 89.9907 152.475C91.655 152.475 93.0053 151.125 93.0053 149.461Z" fill="#FFCC00" stroke="#FFCC00"/>
<mask id="mask0_884_41843" style="mask-type:alpha" maskUnits="userSpaceOnUse" x="83" y="143" width="223" height="144">
<path d="M94.6109 145.951L94.7609 146.149H95.009H207.976H211.791H296.796C299.135 146.149 301.257 147.102 302.795 148.638C304.333 150.177 305.285 152.299 305.285 154.636V189.816C305.285 192.151 304.331 194.274 302.795 195.811C301.257 197.348 299.136 198.301 296.796 198.301H244.615H244.115V198.801V276.074C244.115 278.756 243.02 281.193 241.253 282.959L241.252 282.959C239.488 284.723 237.051 285.818 234.366 285.818H211.791H207.976H189.212C186.53 285.818 184.093 284.723 182.329 282.959C180.562 281.192 179.466 278.755 179.466 276.074V198.799V198.299H178.966H123.017H122.769L122.619 198.496C121.557 199.89 119.882 200.79 117.996 200.79C114.793 200.79 112.192 198.19 112.192 194.988C112.192 191.783 114.792 189.186 117.996 189.186C119.882 189.186 121.557 190.084 122.619 191.477L122.769 191.673H123.017H182.781C184.612 191.673 186.096 193.158 186.096 194.988V276.074C186.096 276.929 186.45 277.71 187.015 278.274L187.015 278.275C187.578 278.836 188.356 279.193 189.212 279.193H207.976H208.476V278.693V181.931H229.671C231.755 183.53 234.326 184.422 237.018 184.422C243.683 184.422 249.092 179.015 249.092 172.35C249.092 165.687 243.683 160.278 237.018 160.278C234.328 160.278 231.756 161.17 229.671 162.767H208.476V153.276V152.776H207.976H95.009H94.7609L94.6109 152.973C93.5521 154.367 91.8773 155.265 89.9907 155.265C86.7848 155.265 84.1875 152.668 84.1875 149.461C84.1875 146.256 86.7847 143.659 89.9907 143.659C91.8773 143.659 93.5521 144.558 94.6109 145.951ZM110.837 168.84L110.987 169.037H111.235H231.996H232.244L232.394 168.84C233.456 167.446 235.131 166.549 237.018 166.549C240.221 166.549 242.821 169.146 242.821 172.352C242.821 175.554 240.221 178.154 237.018 178.154C235.131 178.154 233.456 177.254 232.394 175.86L232.244 175.663H231.996H111.235H110.987L110.837 175.86C109.778 177.254 108.103 178.154 106.216 178.154C103.011 178.154 100.413 175.554 100.413 172.352C100.413 169.146 103.01 166.549 106.216 166.549H106.217C108.105 166.548 109.778 167.446 110.837 168.84ZM117.996 192.974C119.111 192.974 120.01 193.873 120.01 194.988C120.01 196.1 119.11 197.002 117.996 197.002C116.883 197.002 115.981 196.1 115.981 194.988C115.981 193.875 116.885 192.974 117.996 192.974ZM121.01 194.988C121.01 193.32 119.663 191.974 117.996 191.974C116.333 191.974 114.981 193.322 114.981 194.988C114.981 196.652 116.331 198.002 117.996 198.002C119.663 198.002 121.01 196.652 121.01 194.988ZM89.9907 147.447C91.1029 147.447 92.0053 148.349 92.0053 149.461C92.0053 150.573 91.1029 151.475 89.9907 151.475C88.8786 151.475 87.9762 150.573 87.9762 149.461C87.9762 148.351 88.8801 147.447 89.9907 147.447ZM93.0053 149.461C93.0053 147.797 91.655 146.447 89.9907 146.447C88.328 146.447 86.9762 147.799 86.9762 149.461C86.9762 151.125 88.3265 152.475 89.9907 152.475C91.655 152.475 93.0053 151.125 93.0053 149.461Z" fill="#FFCC00" stroke="#FFCC00"/>
</mask>
<g mask="url(#mask0_884_41843)">
<path d="M41.5 249.5L330.5 87L137.5 118.5L53.5 139.5L41.5 249.5Z" fill="#FCDC59"/>
</g>
</svg>
