<svg width="24" height="24" viewBox="0 0 24 24" fill="none" xmlns="http://www.w3.org/2000/svg">
<g filter="url(#filter0_d_3609_610754)">
<path d="M8 7V11L2 6L8 1V5H13C15.1217 5 17.1566 5.84285 18.6569 7.34315C20.1571 8.84344 21 10.8783 21 13C21 15.1217 20.1571 17.1566 18.6569 18.6569C17.1566 20.1571 15.1217 21 13 21H4V19H13C14.5913 19 16.1174 18.3679 17.2426 17.2426C18.3679 16.1174 19 14.5913 19 13C19 11.4087 18.3679 9.88258 17.2426 8.75736C16.1174 7.63214 14.5913 7 13 7H8Z" fill="#33B2EF"/>
</g>
<defs>
<filter id="filter0_d_3609_610754" x="-2" y="1" width="27" height="28" filterUnits="userSpaceOnUse" color-interpolation-filters="sRGB">
<feFlood flood-opacity="0" result="BackgroundImageFix"/>
<feColorMatrix in="SourceAlpha" type="matrix" values="0 0 0 0 0 0 0 0 0 0 0 0 0 0 0 0 0 0 127 0" result="hardAlpha"/>
<feOffset dy="4"/>
<feGaussianBlur stdDeviation="2"/>
<feComposite in2="hardAlpha" operator="out"/>
<feColorMatrix type="matrix" values="0 0 0 0 0 0 0 0 0 0 0 0 0 0 0 0 0 0 0.25 0"/>
<feBlend mode="normal" in2="BackgroundImageFix" result="effect1_dropShadow_3609_610754"/>
<feBlend mode="normal" in="SourceGraphic" in2="effect1_dropShadow_3609_610754" result="shape"/>
</filter>
</defs>
</svg>
