<svg width="399" height="399" viewBox="0 0 399 399" fill="none" xmlns="http://www.w3.org/2000/svg">
<circle cx="199.5" cy="199.5" r="199.5" fill="white"/>
<path d="M202.628 221.285C205.661 218.743 208.376 216.142 211.428 213.974C219.673 208.121 228.552 206.761 238.026 210.84C254.932 218.093 261.472 234.352 256.537 251.379C251.979 267.185 241.237 279.029 229.504 289.868C222.805 296.056 215.194 301.279 208.019 306.974C205.344 309.083 202.965 309.044 199.992 307.093C186.258 298.047 173.395 288.016 162.89 275.284C155.597 266.455 149.988 256.897 148.383 245.211C146.658 232.696 152.743 219.827 164.218 213.383C175.139 207.254 187.764 208.633 197.753 217.048C199.378 218.408 200.944 219.827 202.628 221.285Z" fill="white"/>
<path d="M295 263.737C295 264.153 295 264.563 295 264.979C294.316 271.589 294.577 278.274 293.713 284.854C292.078 297.273 289.536 309.494 283.152 320.503C280.43 325.193 276.178 328.3 271.454 330.785C258.239 337.731 243.905 341.104 229.39 343.881C223.398 345.031 217.3 345.54 211.271 345.403C204.744 345.254 198.292 346.342 191.765 345.913C185.201 345.478 178.55 345.764 172.054 344.819C155.078 342.347 140.726 335.065 130.239 320.962C120.567 307.953 114.507 293.328 111.523 277.572C109.963 269.347 109.441 260.835 110.721 252.361C111.722 245.732 115.221 240.196 118.311 234.53C131.551 210.226 146.724 187.114 162.028 164.084C166.82 156.871 166.304 152.441 160.312 146.147C156.825 142.482 153.164 138.984 149.273 135.778C143.367 130.914 141.652 124.384 141.981 117.295C142.336 109.691 143.125 102.08 144.965 94.6371C145.214 93.6182 145.512 92.649 146.115 91.8103C146.233 91.4624 146.326 91.0958 146.308 90.7044C146.127 88.4803 146.83 86.399 147.426 84.3301C150.646 73.2776 154.836 62.6538 161.91 53.4154C163.408 51.4583 164.918 49.4827 166.733 47.7928C167.809 46.7863 169.077 45.8793 170.612 46.7118C172.023 47.4821 171.911 48.9546 171.768 50.3027C170.519 61.7094 170.668 73.1596 170.786 84.6035C170.811 86.9706 171.339 89.3066 171.706 91.6488C172.483 96.6066 175.243 99.8559 179.662 102.316C192.175 109.281 205.142 115.456 217.114 123.365C223.647 127.683 230.31 131.982 233.431 139.742C235.047 143.768 236.259 147.937 237.384 152.118C241.493 167.376 249.344 180.566 259.556 192.439C267.165 201.286 275.569 209.337 284.464 216.886C290.761 222.229 293.185 229.535 293.987 237.407C294.49 242.309 294.869 247.254 294.695 252.212C294.695 253.38 294.695 254.542 294.695 255.71C294.695 256.896 294.695 258.083 294.695 259.27C294.845 260.742 294.347 262.277 295 263.737Z" fill="#EC6724"/>
<path d="M295 263.736C293.756 262.426 294.589 260.866 294.484 259.419C294.639 258.965 294.807 258.959 295 259.4C295 260.841 295 262.289 295 263.736Z" fill="#FDDEC7"/>
<path d="M294.484 251.926C294.658 251.889 294.832 251.901 295 251.957C295 253.2 295 254.436 295 255.679C294.807 256.114 294.633 256.101 294.472 255.66C294.478 254.411 294.478 253.169 294.484 251.926Z" fill="#FDDFCA"/>
<path d="M294.472 255.66C294.646 255.654 294.826 255.66 295 255.679C295 256.921 295 258.158 295 259.4L294.745 259.425L294.484 259.419C294.478 258.164 294.478 256.909 294.472 255.66Z" fill="#FBCCAD"/>
<path d="M185.338 236.313C186.749 235.791 187.799 236.866 188.893 237.823C192.231 240.743 195.725 243.508 198.826 246.658C200.828 248.689 201.642 247.863 202.873 246.049C205.359 242.377 208.07 238.86 210.55 235.183C211.501 233.772 212.589 233.039 214.279 232.859C221.453 232.089 228.626 231.268 235.787 230.38C237.154 230.212 238.124 230.591 239.112 231.48C242.879 234.847 246.671 238.183 250.506 241.47C251.631 242.433 251.992 243.607 252.147 244.986C252.955 252.162 253.751 259.344 254.658 266.507C254.876 268.203 254.41 269.421 253.322 270.67C239.162 286.916 225.021 303.181 210.941 319.49C209.829 320.776 209.145 321 207.715 319.962C190.031 307.12 172.309 294.334 154.581 281.555C153.674 280.902 153.257 280.169 153.133 279.032C152.3 271.335 151.436 263.643 150.46 255.97C150.298 254.678 150.727 253.802 151.405 252.864C153.754 249.602 156.272 246.44 158.354 243.011C160.107 240.122 162.276 238.711 165.701 238.457C172.172 237.972 178.612 237.071 185.338 236.313Z" fill="white"/>
<path d="M196.389 180.92C196.029 181.952 196.396 183.679 194.748 183.735C193.331 183.784 193.785 182.225 193.536 181.318C193.48 181.119 193.468 180.914 193.437 180.709C193.257 179.672 192.293 178.609 193.505 177.609C193.971 177.224 194.481 177.379 194.941 177.615C196.265 178.311 196.029 179.709 196.389 180.92Z" fill="#FEF3EC"/>
<path d="M196.42 139.655C194.947 139.326 193.99 138.524 193.822 136.99C193.716 136.002 193.785 134.958 195.109 135.095C196.644 135.25 197.34 136.412 197.558 137.841C197.695 138.742 197.402 139.45 196.42 139.655Z" fill="#FFF5EF"/>
<path d="M156.769 110.244C156.421 111.35 156.452 113.052 154.668 113.027C153.667 113.015 153.73 111.797 153.823 111.002C153.978 109.672 154.177 108.107 155.911 108.113C156.881 108.113 156.875 109.256 156.769 110.244Z" fill="#FFF5EE"/>
<path d="M173.117 338.936C173.061 339.887 172.713 340.483 171.849 340.471C170.786 340.458 170.152 339.806 170.077 338.768C170.015 337.936 170.543 337.464 171.376 337.42C172.52 337.358 172.986 338.048 173.117 338.936Z" fill="#FEF2EA"/>
<path d="M264.212 234.443C264.181 235.152 263.827 235.692 263.131 235.705C262.422 235.717 262.061 235.152 262.024 234.468C261.987 233.822 262.124 233.132 262.894 233.077C263.752 233.008 264.113 233.648 264.212 234.443Z" fill="#FEF1E7"/>
<path d="M213.496 191.364C212.732 191.32 212.452 190.823 212.396 190.146C212.352 189.568 212.638 189.065 213.185 189.022C214.08 188.947 214.422 189.631 214.447 190.401C214.478 190.979 214.105 191.327 213.496 191.364Z" fill="#FDE2CF"/>
<path d="M262.192 305.387C262.192 305.884 262.223 306.505 261.496 306.344C260.638 306.151 260.259 305.406 260.035 304.604C259.867 303.989 260.222 303.511 260.75 303.635C261.571 303.828 262.006 304.554 262.192 305.387Z" fill="#FEEEE4"/>
<path d="M226.413 138.717C226.487 139.344 226.313 139.786 225.685 139.81C224.846 139.854 224.392 139.338 224.287 138.562C224.218 138.058 224.349 137.487 224.989 137.499C225.772 137.505 226.251 138.002 226.413 138.717Z" fill="#FEF3EC"/>
<path d="M147.606 92.1334C147.613 91.7234 147.619 91.3071 147.625 90.8971C148.278 90.7294 148.962 90.3566 149.502 91.0897C149.85 91.5556 149.757 92.121 149.359 92.413C148.769 92.8355 148.079 92.9225 147.606 92.1334Z" fill="#FFF5EF"/>
<path d="M232.038 178.622C233.381 178.808 233.319 179.87 233.468 180.846C232.604 181.175 232.336 180.467 232.001 180.057C231.684 179.665 231.553 179.131 232.038 178.622Z" fill="#FDE8D9"/>
<path d="M261.172 251.317C261.75 251.261 262.235 251.441 262.254 252.075C262.266 252.485 261.999 252.87 261.502 252.883C260.942 252.895 260.464 252.653 260.395 252.069C260.352 251.615 260.706 251.348 261.172 251.317Z" fill="#FDE8D9"/>
<path d="M141.54 276.802C141.41 277.305 141.534 277.927 140.819 277.92C140.297 277.92 140.247 277.486 140.266 277.088C140.291 276.628 140.16 275.988 140.763 275.876C141.472 275.746 141.372 276.442 141.54 276.802Z" fill="#FEEEE3"/>
<path d="M134.832 309.724C134.373 309.692 133.987 309.469 134.192 309.003C134.379 308.574 134.739 308.145 135.137 307.916C135.541 307.68 135.877 307.972 135.883 308.475C135.883 309.177 135.473 309.556 134.832 309.724Z" fill="#FDE5D5"/>
<path d="M162.159 318.906C162.01 318.782 161.599 318.602 161.487 318.31C161.226 317.639 161.811 317.409 162.277 317.434C162.557 317.446 162.967 317.838 163.054 318.136C163.16 318.527 162.861 318.856 162.159 318.906Z" fill="#FDE2D0"/>
<path d="M265.766 100.148C271.286 114.605 276.016 129.28 277.993 144.7C278.645 149.819 278.844 154.994 277.595 160.076C275.587 168.215 270.024 170.216 263.323 165.171C258.263 161.362 254.701 156.374 252.364 150.503C250.823 146.638 251.065 142.836 252.849 139.127C255.211 134.213 257.716 129.373 260.01 124.421C262.757 118.482 264.392 112.232 264.778 105.677C265.555 103.919 264.007 101.732 265.766 100.148Z" fill="#EC6724"/>
<path d="M129.605 117.507C130.245 129.112 134.186 139.748 140.191 149.459C145.412 157.896 145.07 165.954 140.924 174.372C138.774 178.74 135.945 182.654 132.862 186.419C131.706 187.829 130.867 187.779 129.642 186.574C125.453 182.455 123.762 177.205 122.879 171.632C121.195 161.008 122.177 150.428 123.719 139.891C124.856 132.138 126.534 124.484 128.486 116.898C129.201 116.475 129.338 117.103 129.605 117.507Z" fill="#EC6724"/>
<path d="M209.655 33.2053C208.94 43.3011 208.343 53.403 209.5 63.5112C209.891 66.9158 210.718 70.1465 212.266 73.2591C215.001 78.7388 216.81 84.5415 217.17 90.7046C217.251 92.1335 217.239 93.6184 216.953 95.01C216.486 97.2963 214.951 98.3152 212.875 96.9795C202.73 90.4374 195.34 81.9756 194.619 69.2332C194.295 63.5609 196.962 58.6404 199.113 53.6391C202.246 46.3578 206.336 39.5113 208.996 32.0125C210.103 31.913 209.891 32.553 209.655 33.2053Z" fill="#EC6724"/>
<path d="M265.766 100.148C264.753 101.869 265.878 103.975 264.771 105.684C264.771 103.341 264.771 100.999 264.771 97.7935C265.3 99.036 265.536 99.589 265.766 100.148Z" fill="#F07F41"/>
<path d="M129.605 117.506C129.232 117.301 128.859 117.096 128.486 116.891C128.387 115.947 128.666 115.17 129.462 114.537C129.897 115.562 129.816 116.531 129.605 117.506Z" fill="#F8B88E"/>
<path d="M272.193 163.91C272.261 165.246 271.609 166.165 270.316 166.209C269.029 166.258 268.743 165.078 268.6 164.059C268.439 162.91 268.861 161.965 270.123 161.853C271.516 161.729 272.143 162.574 272.193 163.91Z" fill="#FFF5EE"/>
<path d="M129.798 150.621C129.101 148.651 128.455 146.943 127.902 145.203C127.61 144.29 127.523 143.24 128.691 142.898C129.773 142.581 130.438 143.433 130.78 144.296C131.625 146.433 131.165 148.434 129.798 150.621Z" fill="#FFF9F6"/>
<path d="M128.891 169.638C129.45 169.775 129.724 170.16 129.711 170.707C129.699 171.328 129.307 171.583 128.729 171.477C128.207 171.378 127.791 171.104 127.871 170.483C127.952 169.918 128.307 169.619 128.891 169.638Z" fill="#FEEDE1"/>
</svg>
