<svg width="105" height="37" viewBox="0 0 105 37" fill="none" xmlns="http://www.w3.org/2000/svg">
<g opacity="0.6">
<path d="M68.4989 30.2982C68.482 30.1737 68.5023 30.0779 68.5599 30.0106C68.6209 29.9433 68.7141 29.9097 68.8394 29.9097H68.9461C69.1731 29.9097 69.3019 30.0207 69.3324 30.2427L70.0946 35.6321C70.1217 35.7667 70.1844 35.834 70.2826 35.834C70.3775 35.834 70.4368 35.7734 70.4605 35.6523L71.5074 30.6868C71.5616 30.4143 71.6683 30.2175 71.8275 30.0964C71.9867 29.9719 72.2036 29.9097 72.478 29.9097C72.7558 29.9097 72.9726 29.9719 73.1284 30.0964C73.2877 30.2175 73.3961 30.4143 73.4537 30.6868L74.5056 35.6523C74.5293 35.7734 74.5869 35.834 74.6784 35.834C74.7766 35.834 74.8376 35.7667 74.8613 35.6321L75.6338 30.2427C75.6643 30.0173 75.793 29.9063 76.02 29.9097H76.1216C76.247 29.9097 76.3384 29.9433 76.396 30.0106C76.457 30.0779 76.479 30.1737 76.4621 30.2982L75.6897 35.6624C75.6388 36.0459 75.5355 36.3184 75.3797 36.4799C75.2272 36.638 75.0019 36.7171 74.7038 36.7171C74.4124 36.7171 74.1871 36.638 74.0279 36.4799C73.8721 36.3184 73.7552 36.051 73.6773 35.6775L72.6812 30.9542C72.6474 30.7793 72.5796 30.6901 72.478 30.6868C72.3797 30.6868 72.3137 30.7759 72.2798 30.9542L71.2888 35.6775C71.2075 36.0543 71.089 36.3218 70.9331 36.4799C70.7773 36.638 70.552 36.7171 70.2572 36.7171C69.9591 36.7171 69.7338 36.6363 69.5814 36.4749C69.4289 36.3134 69.3273 36.0426 69.2765 35.6624L68.4989 30.2982Z" fill="white"/>
<path d="M80.9302 31.5043C81.5942 31.5043 82.1261 31.6624 82.5259 31.9786C82.9256 32.2949 83.1255 32.7642 83.1255 33.3865V35.1729C83.1255 35.6708 83.007 36.0375 82.7698 36.273C82.536 36.5085 82.1397 36.6262 81.5807 36.6262H80.5897C79.9799 36.6262 79.5209 36.5152 79.2126 36.2932C78.9043 36.0678 78.7501 35.6843 78.7501 35.1426C78.7501 34.601 78.9043 34.2175 79.2126 33.9921C79.5209 33.7667 79.9799 33.654 80.5897 33.654H82.3124V33.3865C82.3124 33.0098 82.1837 32.7288 81.9262 32.5438C81.6721 32.3588 81.313 32.2663 80.8489 32.2663C80.4322 32.2663 79.9664 32.3285 79.4514 32.453C79.3227 32.4799 79.2227 32.4698 79.1516 32.4227C79.0804 32.3756 79.0449 32.2932 79.0449 32.1754V32.125C79.0449 31.9029 79.1702 31.7616 79.4209 31.7011C79.9697 31.5699 80.4728 31.5043 80.9302 31.5043ZM81.5044 35.9046C81.8263 35.9046 82.0414 35.8424 82.1498 35.7179C82.2582 35.5901 82.3124 35.3966 82.3124 35.1376V34.3807H80.5897C80.2001 34.3807 79.9291 34.4378 79.7766 34.5522C79.6276 34.6666 79.553 34.8634 79.553 35.1426C79.553 35.4219 79.6276 35.6187 79.7766 35.7331C79.9291 35.8474 80.2001 35.9046 80.5897 35.9046H81.5044Z" fill="white"/>
<path d="M86.0437 29.7532C86.0437 29.511 86.1657 29.3899 86.4096 29.3899H86.5011C86.745 29.3899 86.8669 29.511 86.8669 29.7532V36.2629C86.8669 36.5051 86.745 36.6262 86.5011 36.6262H86.4096C86.1657 36.6262 86.0437 36.5051 86.0437 36.2629V29.7532Z" fill="white"/>
<path d="M89.9172 29.7532C89.9172 29.511 90.0392 29.3899 90.2831 29.3899H90.3746C90.6185 29.3899 90.7405 29.511 90.7405 29.7532V36.2629C90.7405 36.5051 90.6185 36.6262 90.3746 36.6262H90.2831C90.0392 36.6262 89.9172 36.5051 89.9172 36.2629V29.7532Z" fill="white"/>
<path d="M98.0747 33.326C98.0747 33.6691 97.9832 33.9248 97.8003 34.093C97.6173 34.2579 97.2955 34.3655 96.8348 34.416L94.3904 34.6733C94.4751 35.1107 94.6597 35.437 94.9443 35.6523C95.2323 35.8643 95.605 35.9702 96.0623 35.9702C96.4214 35.9702 96.8246 35.908 97.2718 35.7835C97.4039 35.7465 97.5055 35.7499 97.5767 35.7936C97.6512 35.834 97.6885 35.9114 97.6885 36.0257V36.0913C97.6885 36.3033 97.5869 36.4379 97.3836 36.495C96.872 36.6431 96.4011 36.7171 95.9709 36.7171C95.2187 36.7171 94.6242 36.495 94.1871 36.051C93.7535 35.6035 93.5367 34.9576 93.5367 34.1132C93.5367 33.2755 93.7416 32.6313 94.1516 32.1805C94.5615 31.7297 95.1578 31.5043 95.9404 31.5043C96.6078 31.5043 97.1295 31.6674 97.5055 31.9938C97.885 32.3201 98.0747 32.7642 98.0747 33.326ZM94.3447 33.9315L96.6671 33.6893C96.9076 33.6658 97.0668 33.6237 97.1447 33.5632C97.226 33.4992 97.2667 33.3966 97.2667 33.2553C97.2667 32.9458 97.1532 32.7019 96.9262 32.5236C96.6992 32.342 96.3706 32.2511 95.9404 32.2511C94.9274 32.2478 94.3955 32.8079 94.3447 33.9315Z" fill="white"/>
<path d="M103.62 31.9837C103.62 32.2259 103.498 32.347 103.254 32.347H101.501V34.8802C101.501 35.2537 101.584 35.5245 101.75 35.6927C101.916 35.8609 102.17 35.945 102.512 35.945C102.658 35.945 102.812 35.9299 102.975 35.8996C103.141 35.8693 103.244 35.8542 103.285 35.8542C103.407 35.8542 103.491 35.876 103.539 35.9198C103.586 35.9601 103.61 36.0291 103.61 36.1267V36.2377C103.61 36.4261 103.525 36.5421 103.356 36.5859C103.051 36.6666 102.765 36.712 102.497 36.7221C102.233 36.7322 101.987 36.7036 101.76 36.6363C101.537 36.5691 101.345 36.4631 101.186 36.3184C101.027 36.1738 100.901 35.9803 100.81 35.7381C100.722 35.4925 100.678 35.2066 100.678 34.8802V30.7574C100.678 30.5152 100.8 30.3941 101.044 30.3941H101.135C101.379 30.3941 101.501 30.5152 101.501 30.7574V31.6002H103.254C103.498 31.6002 103.62 31.7196 103.62 31.9584V31.9837Z" fill="white"/>
</g>
<path d="M39.4704 8.93201H42.1254V13.4538C42.1254 13.8477 42.2741 14.1961 42.5717 14.4991C42.8692 14.7945 43.2507 14.9422 43.716 14.9422H54.7135L54.7364 14.9195V8.93201H57.4028C57.7309 8.93201 58.0589 9.07213 58.387 9.35238C58.6998 9.65535 58.8562 10.0303 58.8562 10.4772V23.2474C58.8562 23.7852 58.6235 24.2131 58.1581 24.5312C57.9064 24.6827 57.6393 24.7585 57.3571 24.7585H54.7364V20.6911C54.7364 20.3654 54.6945 20.123 54.6105 19.9639C54.5648 19.8503 54.4961 19.7253 54.4046 19.589C54.0841 19.2179 53.676 19.0323 53.1801 19.0323H42.1254V24.7585H39.4933C39.0737 24.7585 38.7075 24.5956 38.3947 24.2699C38.1277 23.9821 37.9941 23.6185 37.9941 23.1792V10.5226C37.9941 9.89394 38.2688 9.42055 38.8181 9.10243C39.047 8.98881 39.2644 8.93201 39.4704 8.93201Z" fill="white"/>
<path d="M63.7885 8.93201H75.484C77.5439 8.93201 79.2681 9.3751 80.6566 10.2613C80.8931 10.3976 81.1525 10.5908 81.4348 10.8407C82.5716 11.9087 83.1399 13.2456 83.1399 14.8513C83.1399 16.1995 82.728 17.3546 81.904 18.3165C81.6904 18.5513 81.5111 18.7218 81.3662 18.8278C81.0228 19.1156 80.7253 19.3239 80.4735 19.4527C79.0927 20.248 77.4295 20.6456 75.484 20.6456L66.6723 20.6911H66.432V23.2701C66.432 23.7549 66.2146 24.1639 65.7797 24.4971C65.5127 24.6713 65.2151 24.7585 64.8871 24.7585H62.3122V10.3976C62.3122 9.98104 62.4991 9.60233 62.873 9.26149C63.1552 9.04183 63.4604 8.93201 63.7885 8.93201ZM66.432 13.0335V16.6123H75.7816C76.6742 16.6123 77.315 16.4268 77.7041 16.0556C77.7728 15.9874 77.8453 15.9117 77.9216 15.8284C78.1352 15.533 78.242 15.1997 78.242 14.8286C78.242 14.056 77.8605 13.5182 77.0976 13.2153C76.7543 13.0941 76.3232 13.0335 75.8045 13.0335H66.432Z" fill="white"/>
<path d="M86.7104 8.93201H89.3539C89.3539 8.97745 89.3501 9.01532 89.3425 9.04562C89.3349 9.06077 89.331 9.07213 89.331 9.07971V20.0094L89.3539 20.0321H89.331C89.3463 20.0473 89.3539 20.0624 89.3539 20.0776C89.3539 20.0851 89.3539 20.1003 89.3539 20.123V20.6683H104.002V23.1792C104.002 23.876 103.682 24.3722 103.041 24.6676C102.865 24.7282 102.694 24.7585 102.526 24.7585H86.7333C86.2145 24.7585 85.7911 24.535 85.463 24.0881C85.3257 23.876 85.2494 23.664 85.2342 23.4519V23.3383L85.2113 10.3976C85.2113 10.0265 85.36 9.68565 85.6576 9.3751C85.9627 9.07971 86.3137 8.93201 86.7104 8.93201Z" fill="white"/>
<path d="M5.26992 21.236C2.66577 18.6318 2.66577 14.4097 5.26992 11.8055L12.3606 4.71485C14.9647 2.1107 19.1869 2.1107 21.791 4.71485L28.8817 11.8055C31.4859 14.4097 31.4859 18.6318 28.8817 21.236L21.7911 28.3267C19.1869 30.9308 14.9647 30.9308 12.3606 28.3267L5.26992 21.236Z" fill="#FF7A00"/>
<path d="M16.7588 25.7388C16.5554 25.6216 16.3743 25.5169 16.1922 25.4127C15.757 25.1636 15.3248 24.9094 14.8853 24.6682C14.7625 24.601 14.7203 24.5266 14.7212 24.3892C14.7271 23.3598 14.7237 22.3308 14.7254 21.3014C14.7254 21.193 14.7186 21.1085 14.6014 21.0421C13.3294 20.3215 12.0612 19.5938 10.7918 18.8686C10.7683 18.8551 10.7411 18.8484 10.6908 18.8291C10.6908 19.9665 10.6908 21.0883 10.6908 22.2333C10.6264 22.2085 10.5876 22.1984 10.5539 22.1791C9.95885 21.8396 9.3625 21.5026 8.77339 21.153C8.70817 21.1144 8.65318 21.0009 8.65318 20.9224C8.64593 18.6677 8.64636 16.4131 8.64593 14.1584C8.64593 13.4861 8.64593 12.8143 8.64551 12.142C8.64551 12.0685 8.64551 11.9945 8.64551 11.8802C8.95498 12.055 9.22311 12.2063 9.49123 12.3584C9.83523 12.5534 10.1763 12.7542 10.5245 12.942C10.6464 13.0076 10.6878 13.0849 10.6869 13.2223C10.6805 14.2517 10.6848 15.2807 10.6818 16.3101C10.6814 16.4227 10.7006 16.5005 10.8131 16.5643C12.0796 17.2811 13.3422 18.0038 14.6061 18.7249C14.6351 18.7412 14.6662 18.7539 14.7199 18.7795C14.7199 17.6324 14.7199 16.5093 14.7199 15.3584C14.7936 15.39 14.8448 15.4059 14.8904 15.432C15.468 15.7597 16.043 16.0908 16.6228 16.4152C16.7264 16.4732 16.7741 16.5341 16.7741 16.6589C16.7703 19.6345 16.7711 22.6106 16.7707 25.5863C16.7698 25.6262 16.7643 25.6661 16.7588 25.7388Z" fill="white"/>
<path d="M24.2281 11.873C23.6573 12.1982 23.1253 12.502 22.5925 12.805C20.8311 13.8075 19.0694 14.8092 17.3097 15.8143C17.2014 15.876 17.1183 15.8916 17.0019 15.8256C14.391 14.3457 11.778 12.8701 9.16534 11.3936C9.11888 11.3676 9.07369 11.3386 9.00293 11.2957C9.56561 10.9751 10.1176 10.6894 10.636 10.3541C10.9339 10.1617 11.1471 10.1839 11.448 10.3575C13.2699 11.41 15.1076 12.4361 16.9367 13.4764C17.0812 13.5588 17.1874 13.5672 17.3387 13.4802C18.8997 12.5827 20.4667 11.6957 22.029 10.8008C22.1496 10.7318 22.2344 10.7323 22.3542 10.802C22.9629 11.1579 23.5785 11.5033 24.2281 11.873Z" fill="white"/>
<path fill-rule="evenodd" clip-rule="evenodd" d="M25.5809 12.4085C25.5809 12.1701 25.3647 12.0688 25.1578 12.1872C23.7968 12.9617 22.5003 13.6814 21.2001 14.4032C20.0255 15.0552 18.8478 15.7089 17.6169 16.4063C17.4834 16.482 17.4502 16.5651 17.4502 16.7046C17.453 19.1496 17.4529 21.5948 17.4528 24.0398C17.4528 24.5285 17.4528 25.0173 17.4528 25.506V25.7346C17.4818 25.7197 17.5074 25.7069 17.5307 25.6952C17.576 25.6726 17.6124 25.6544 17.6476 25.6341C17.8125 25.5398 17.9772 25.445 18.1418 25.3502C18.5402 25.1208 18.9387 24.8914 19.3407 24.6682C19.4643 24.5993 19.5036 24.5236 19.5027 24.3875C19.5001 23.9379 19.5 23.4883 19.5 23.0386C19.4999 22.4729 19.4998 21.9072 19.4946 21.3417C19.4929 21.1702 19.5534 21.0816 19.6984 20.9992C20.6502 20.4583 21.601 19.9155 22.5517 19.3728C23.5026 18.83 24.4534 18.2872 25.4053 17.7463C25.5413 17.6694 25.5843 17.5828 25.5839 17.432C25.5801 16.1078 25.5803 15.431 25.5807 14.4299C25.5808 14.0971 25.5809 13.7285 25.5809 13.2883V12.4085ZM23.4992 15.3945C23.5107 15.3918 23.5246 15.3885 23.5421 15.3836C23.5421 15.3837 23.5421 15.3837 23.5421 15.3837C23.5422 15.3837 23.5423 15.3837 23.5424 15.3836C23.5424 15.4724 23.5427 15.5597 23.543 15.6461C23.5438 15.8926 23.5446 16.1308 23.5386 16.3685C23.5369 16.4261 23.4985 16.508 23.4512 16.5353C22.356 17.1654 21.2584 17.7913 20.1379 18.4304C19.9268 18.5507 19.715 18.6715 19.5022 18.7929C19.5022 18.7926 19.5022 18.7923 19.5022 18.792C19.5019 18.7922 19.5017 18.7923 19.5014 18.7925C19.5014 18.7066 19.5012 18.6223 19.5011 18.5392C19.5005 18.2534 19.4999 17.982 19.5065 17.7105C19.5078 17.6715 19.5696 17.6227 19.6144 17.5971C20.8945 16.866 22.1759 16.137 23.4572 15.408C23.4676 15.4019 23.48 15.399 23.4992 15.3945Z" fill="white"/>
</svg>
