<svg width="466" height="162" viewBox="0 0 466 162" fill="none" xmlns="http://www.w3.org/2000/svg">
<rect y="71.8486" width="101.61" height="101.61" rx="29" transform="rotate(-45 0 71.8486)" fill="#FF7A00"/>
<path d="M70.4673 111.935C69.5831 111.425 68.7952 110.97 68.0036 110.517C66.1109 109.433 64.2311 108.328 62.3198 107.279C61.7859 106.986 61.6024 106.663 61.6061 106.065C61.632 101.588 61.6172 97.1134 61.6246 92.6366C61.6246 92.1651 61.595 91.7978 61.0852 91.5091C55.5534 88.3753 50.0382 85.2105 44.5176 82.0566C44.4156 81.9981 44.297 81.9688 44.0782 81.8848C44.0782 86.8313 44.0782 91.7101 44.0782 96.6895C43.7983 96.5817 43.6296 96.5378 43.4831 96.4538C40.8952 94.9773 38.3017 93.5118 35.7397 91.9915C35.4561 91.8234 35.217 91.3301 35.217 90.9884C35.1854 81.1831 35.1873 71.3779 35.1854 61.5726C35.1854 58.6489 35.1854 55.7271 35.1836 52.8034C35.1836 52.4837 35.1836 52.1621 35.1836 51.665C36.5295 52.4252 37.6955 53.083 38.8616 53.7445C40.3576 54.5924 41.8407 55.4658 43.3552 56.2826C43.8854 56.5677 44.0652 56.9039 44.0615 57.5014C44.0337 61.9783 44.0523 66.4533 44.0393 70.9302C44.0374 71.4199 44.1209 71.7579 44.6103 72.0357C50.118 75.153 55.609 78.296 61.1056 81.4316C61.2316 81.5029 61.3669 81.5577 61.6005 81.6692C61.6005 76.6807 61.6005 71.7963 61.6005 66.7914C61.9212 66.9284 62.1437 66.9978 62.3421 67.1111C64.854 68.5364 67.3548 69.9763 69.876 71.387C70.3265 71.6392 70.5341 71.9041 70.5341 72.4468C70.5174 85.3877 70.5211 98.3304 70.5192 111.271C70.5155 111.445 70.4914 111.618 70.4673 111.935Z" fill="white"/>
<path d="M102.934 51.6339C100.451 53.0482 98.1377 54.3694 95.8205 55.6868C88.1605 60.0468 80.4986 64.403 72.8461 68.7739C72.3752 69.0425 72.0137 69.1101 71.5076 68.8232C60.153 62.3875 48.7891 55.9701 37.427 49.549C37.2249 49.4357 37.0284 49.3096 36.7207 49.1232C39.1677 47.729 41.5684 46.4864 43.8227 45.0282C45.1185 44.1913 46.0454 44.2882 47.3542 45.0429C55.2774 49.6202 63.2693 54.0825 71.224 58.6069C71.8524 58.965 72.314 59.0015 72.9721 58.6233C79.7608 54.7202 86.5755 50.8628 93.3697 46.9707C93.8944 46.671 94.2633 46.6728 94.7842 46.9761C97.4314 48.5239 100.108 50.0259 102.934 51.6339Z" fill="white"/>
<path fill-rule="evenodd" clip-rule="evenodd" d="M108.838 53.9623C108.838 52.9256 107.898 52.4851 106.998 52.9998C101.079 56.3684 95.4411 59.4983 89.7866 62.637C84.6782 65.4727 79.5566 68.3156 74.2034 71.3486C73.6231 71.6775 73.4785 72.0393 73.4785 72.6459C73.4909 83.2787 73.4904 93.9127 73.4898 104.546C73.4897 106.671 73.4896 108.797 73.4896 110.922V111.916C73.6158 111.852 73.7274 111.796 73.8288 111.745C74.0255 111.647 74.184 111.568 74.3368 111.48C75.0541 111.069 75.7702 110.657 76.4863 110.245C78.219 109.247 79.9517 108.25 81.7002 107.279C82.2378 106.979 82.4084 106.65 82.4047 106.058C82.3932 104.103 82.3929 102.147 82.3927 100.192C82.3924 97.7318 82.3922 95.2716 82.3694 92.8119C82.362 92.0664 82.6253 91.6808 83.2556 91.3227C87.395 88.9701 91.5298 86.6098 95.6647 84.2495C99.7997 81.889 103.935 79.5285 108.074 77.1758C108.666 76.8414 108.853 76.465 108.851 75.809C108.835 70.0504 108.836 67.1072 108.837 62.7534C108.838 61.3061 108.838 59.703 108.838 57.7888V53.9623ZM99.785 66.9483C99.835 66.9365 99.8957 66.9222 99.9715 66.9009C99.9715 66.9011 99.9715 66.9012 99.9715 66.9014C99.972 66.9013 99.9725 66.9011 99.973 66.901C99.973 67.2868 99.9742 67.6668 99.9755 68.0423C99.979 69.1143 99.9824 70.1502 99.9563 71.1841C99.9489 71.4345 99.7821 71.7908 99.5763 71.9096C94.8135 74.6498 90.0403 77.3718 85.167 80.1509C84.2492 80.6743 83.3279 81.1997 82.4025 81.7276C82.4025 81.7264 82.4025 81.7251 82.4025 81.7238C82.4014 81.7245 82.4002 81.7251 82.3991 81.7258C82.3991 81.3523 82.3983 80.9855 82.3976 80.6241C82.395 79.3815 82.3926 78.201 82.4213 77.0205C82.4269 76.8505 82.6957 76.6386 82.8904 76.5271C88.4574 73.3476 94.03 70.1773 99.6025 67.0069C99.6477 66.9806 99.7016 66.9679 99.785 66.9483Z" fill="white"/>
<path opacity="0.6" d="M296.24 132.501C296.167 131.96 296.255 131.544 296.503 131.251C296.767 130.959 297.169 130.813 297.709 130.813H298.17C299.149 130.813 299.705 131.295 299.837 132.26L303.126 155.68C303.243 156.265 303.513 156.557 303.937 156.557C304.347 156.557 304.602 156.294 304.705 155.768L309.222 134.19C309.456 133.006 309.916 132.151 310.604 131.624C311.291 131.083 312.226 130.813 313.41 130.813C314.609 130.813 315.545 131.083 316.217 131.624C316.904 132.151 317.372 133.006 317.621 134.19L322.16 155.768C322.262 156.294 322.511 156.557 322.906 156.557C323.329 156.557 323.593 156.265 323.695 155.68L327.028 132.26C327.16 131.281 327.715 130.798 328.695 130.813H329.133C329.674 130.813 330.069 130.959 330.317 131.251C330.581 131.544 330.676 131.96 330.603 132.501L327.269 155.812C327.05 157.478 326.604 158.662 325.932 159.364C325.274 160.051 324.302 160.395 323.015 160.395C321.758 160.395 320.786 160.051 320.099 159.364C319.426 158.662 318.922 157.5 318.586 155.877L314.288 135.352C314.141 134.592 313.849 134.205 313.41 134.19C312.986 134.19 312.701 134.577 312.555 135.352L308.279 155.877C307.928 157.515 307.417 158.677 306.744 159.364C306.072 160.051 305.099 160.395 303.828 160.395C302.541 160.395 301.569 160.044 300.911 159.342C300.253 158.64 299.815 157.464 299.595 155.812L296.24 132.501ZM349.883 137.742C352.748 137.742 355.044 138.429 356.769 139.804C358.494 141.178 359.356 143.217 359.356 145.922V153.685C359.356 155.848 358.845 157.442 357.821 158.465C356.813 159.488 355.102 160 352.69 160H348.414C345.782 160 343.802 159.518 342.471 158.553C341.141 157.573 340.476 155.907 340.476 153.553C340.476 151.199 341.141 149.533 342.471 148.553C343.802 147.574 345.782 147.084 348.414 147.084H355.848V145.922C355.848 144.284 355.292 143.064 354.181 142.26C353.085 141.456 351.535 141.054 349.532 141.054C347.734 141.054 345.724 141.324 343.502 141.865C342.946 141.982 342.515 141.938 342.208 141.733C341.901 141.529 341.748 141.171 341.748 140.659V140.44C341.748 139.475 342.288 138.861 343.37 138.598C345.739 138.027 347.91 137.742 349.883 137.742ZM352.361 156.864C353.75 156.864 354.678 156.594 355.146 156.053C355.614 155.497 355.848 154.657 355.848 153.531V150.242H348.414C346.733 150.242 345.563 150.49 344.905 150.987C344.262 151.484 343.94 152.34 343.94 153.553C343.94 154.766 344.262 155.622 344.905 156.119C345.563 156.616 346.733 156.864 348.414 156.864H352.361ZM371.949 130.133C371.949 129.081 372.475 128.554 373.528 128.554H373.922C374.975 128.554 375.501 129.081 375.501 130.133V158.421C375.501 159.474 374.975 160 373.922 160H373.528C372.475 160 371.949 159.474 371.949 158.421V130.133ZM388.664 130.133C388.664 129.081 389.19 128.554 390.242 128.554H390.637C391.69 128.554 392.216 129.081 392.216 130.133V158.421C392.216 159.474 391.69 160 390.637 160H390.242C389.19 160 388.664 159.474 388.664 158.421V130.133ZM423.864 145.659C423.864 147.15 423.47 148.261 422.68 148.992C421.891 149.708 420.502 150.176 418.514 150.395L407.966 151.514C408.332 153.414 409.128 154.832 410.356 155.768C411.599 156.689 413.207 157.149 415.181 157.149C416.73 157.149 418.47 156.879 420.4 156.338C420.97 156.177 421.408 156.192 421.715 156.382C422.037 156.557 422.198 156.893 422.198 157.39V157.676C422.198 158.597 421.759 159.181 420.882 159.43C418.675 160.073 416.643 160.395 414.786 160.395C411.54 160.395 408.975 159.43 407.089 157.5C405.218 155.556 404.282 152.749 404.282 149.08C404.282 145.439 405.167 142.64 406.935 140.681C408.704 138.722 411.277 137.742 414.654 137.742C417.534 137.742 419.786 138.451 421.408 139.869C423.046 141.288 423.864 143.217 423.864 145.659ZM407.769 148.29L417.79 147.237C418.828 147.135 419.515 146.952 419.851 146.689C420.202 146.412 420.378 145.966 420.378 145.352C420.378 144.007 419.888 142.947 418.909 142.172C417.929 141.383 416.511 140.988 414.654 140.988C410.283 140.973 407.988 143.407 407.769 148.29ZM447.794 139.826C447.794 140.878 447.268 141.404 446.215 141.404H438.65V152.413C438.65 154.035 439.008 155.212 439.724 155.943C440.44 156.674 441.537 157.04 443.013 157.04C443.642 157.04 444.307 156.974 445.009 156.842C445.725 156.711 446.171 156.645 446.347 156.645C446.873 156.645 447.238 156.74 447.443 156.93C447.648 157.105 447.75 157.405 447.75 157.829V158.311C447.75 159.13 447.385 159.635 446.654 159.825C445.338 160.175 444.103 160.373 442.948 160.417C441.807 160.461 440.747 160.336 439.768 160.044C438.803 159.751 437.977 159.291 437.29 158.662C436.603 158.034 436.062 157.193 435.667 156.141C435.287 155.073 435.097 153.831 435.097 152.413V134.497C435.097 133.444 435.623 132.918 436.676 132.918H437.071C438.123 132.918 438.65 133.444 438.65 134.497V138.159H446.215C447.268 138.159 447.794 138.678 447.794 139.716V139.826Z" fill="#262250"/>
<path d="M169.291 38.6833H180.835V58.4881C180.835 60.2131 181.482 61.7391 182.776 63.066C184.07 64.3598 185.729 65.0067 187.752 65.0067H235.572L235.672 64.9072V38.6833H247.266C248.692 38.6833 250.119 39.297 251.545 40.5244C252.906 41.8514 253.586 43.4935 253.586 45.4507V101.382C253.586 103.737 252.574 105.611 250.55 107.005C249.455 107.668 248.294 108 247.067 108H235.672V90.1857C235.672 88.7592 235.489 87.6976 235.124 87.001C234.925 86.5034 234.627 85.956 234.229 85.3589C232.835 83.7333 231.061 82.9206 228.904 82.9206H180.835V108H169.39C167.566 108 165.974 107.287 164.613 105.86C163.452 104.6 162.872 103.007 162.872 101.083V45.6498C162.872 42.8964 164.066 40.823 166.455 39.4297C167.45 38.9321 168.395 38.6833 169.291 38.6833ZM275.032 38.6833H325.888C334.845 38.6833 342.342 40.624 348.38 44.5053C349.408 45.1024 350.536 45.9484 351.764 47.0431C356.706 51.7206 359.178 57.5758 359.178 64.6086C359.178 70.5136 357.387 75.5726 353.804 79.7857C352.875 80.814 352.095 81.5605 351.465 82.0249C349.972 83.2855 348.678 84.1978 347.584 84.7617C341.579 88.245 334.347 89.9866 325.888 89.9866L287.572 90.1857H286.527V101.481C286.527 103.604 285.582 105.396 283.691 106.856C282.53 107.619 281.236 108 279.81 108H268.613V45.1024C268.613 43.2779 269.426 41.6192 271.052 40.1263C272.279 39.1643 273.606 38.6833 275.032 38.6833ZM286.527 56.6469V72.3215H327.182C331.063 72.3215 333.85 71.5088 335.542 69.8833C335.84 69.5847 336.155 69.253 336.487 68.8881C337.416 67.5943 337.88 66.1346 337.88 64.5091C337.88 61.1254 336.222 58.77 332.904 57.4431C331.411 56.9123 329.537 56.6469 327.281 56.6469H286.527ZM374.703 38.6833H386.198C386.198 38.8823 386.181 39.0482 386.148 39.1809C386.115 39.2472 386.098 39.297 386.098 39.3302V87.2L386.198 87.2995H386.098C386.165 87.3659 386.198 87.4322 386.198 87.4986C386.198 87.5317 386.198 87.5981 386.198 87.6976V90.0861H449.892V101.083C449.892 104.135 448.498 106.308 445.712 107.602C444.949 107.867 444.202 108 443.473 108H374.803C372.547 108 370.706 107.021 369.279 105.064C368.682 104.135 368.35 103.206 368.284 102.278V101.78L368.185 45.1024C368.185 43.4769 368.831 41.9841 370.125 40.624C371.452 39.3302 372.978 38.6833 374.703 38.6833Z" fill="#262250"/>
</svg>
