<svg width="200" height="71" viewBox="0 0 200 71" fill="none" xmlns="http://www.w3.org/2000/svg">
<g opacity="0.6">
<path d="M130.863 58.623C130.83 58.3833 130.869 58.1986 130.98 58.069C131.098 57.9394 131.277 57.8746 131.518 57.8746H131.724C132.161 57.8746 132.409 58.0885 132.468 58.5161L133.936 68.8965C133.988 69.1557 134.109 69.2853 134.298 69.2853C134.481 69.2853 134.595 69.1687 134.641 68.9354L136.657 59.3714C136.762 58.8466 136.967 58.4675 137.274 58.2343C137.58 57.9945 137.998 57.8746 138.527 57.8746C139.062 57.8746 139.479 57.9945 139.779 58.2343C140.086 58.4675 140.295 58.8466 140.406 59.3714L142.432 68.9354C142.478 69.1687 142.589 69.2853 142.765 69.2853C142.954 69.2853 143.071 69.1557 143.117 68.8965L144.605 58.5161C144.664 58.082 144.912 57.8682 145.349 57.8746H145.545C145.786 57.8746 145.962 57.9394 146.073 58.069C146.191 58.1986 146.233 58.3833 146.2 58.623L144.713 68.9549C144.615 69.6935 144.416 70.2184 144.115 70.5294C143.822 70.834 143.388 70.9862 142.814 70.9862C142.253 70.9862 141.819 70.834 141.512 70.5294C141.212 70.2184 140.987 69.7033 140.837 68.984L138.918 59.8866C138.853 59.5496 138.722 59.3779 138.527 59.3714C138.337 59.3714 138.21 59.5432 138.145 59.8866L136.236 68.984C136.08 69.7097 135.851 70.2249 135.551 70.5294C135.251 70.834 134.817 70.9862 134.249 70.9862C133.675 70.9862 133.241 70.8307 132.948 70.5197C132.654 70.2087 132.458 69.6871 132.36 68.9549L130.863 58.623Z" fill="white"/>
<path d="M154.806 60.946C156.085 60.946 157.11 61.2505 157.88 61.8596C158.65 62.4687 159.035 63.3726 159.035 64.5714V68.0121C159.035 68.9711 158.806 69.6773 158.349 70.1309C157.899 70.5845 157.136 70.8113 156.059 70.8113H154.15C152.976 70.8113 152.092 70.5975 151.498 70.1698C150.904 69.7357 150.607 68.997 150.607 67.9538C150.607 66.9105 150.904 66.1718 151.498 65.7377C152.092 65.3036 152.976 65.0865 154.15 65.0865H157.469V64.5714C157.469 63.8457 157.221 63.3046 156.725 62.9482C156.235 62.5918 155.544 62.4136 154.65 62.4136C153.847 62.4136 152.95 62.5335 151.958 62.7733C151.71 62.8251 151.517 62.8057 151.38 62.715C151.243 62.6242 151.175 62.4655 151.175 62.2387V62.1415C151.175 61.7138 151.416 61.4417 151.899 61.3251C152.956 61.0724 153.925 60.946 154.806 60.946ZM155.912 69.4214C156.532 69.4214 156.946 69.3015 157.155 69.0618C157.364 68.8156 157.469 68.443 157.469 67.944V66.4861H154.15C153.4 66.4861 152.878 66.5963 152.584 66.8166C152.297 67.0369 152.154 67.4159 152.154 67.9538C152.154 68.4916 152.297 68.8706 152.584 69.0909C152.878 69.3112 153.4 69.4214 154.15 69.4214H155.912Z" fill="white"/>
<path d="M164.655 57.5733C164.655 57.1068 164.89 56.8735 165.36 56.8735H165.536C166.006 56.8735 166.241 57.1068 166.241 57.5733V70.1115C166.241 70.578 166.006 70.8113 165.536 70.8113H165.36C164.89 70.8113 164.655 70.578 164.655 70.1115V57.5733Z" fill="white"/>
<path d="M172.116 57.5733C172.116 57.1068 172.351 56.8735 172.821 56.8735H172.997C173.467 56.8735 173.702 57.1068 173.702 57.5733V70.1115C173.702 70.578 173.467 70.8113 172.997 70.8113H172.821C172.351 70.8113 172.116 70.578 172.116 70.1115V57.5733Z" fill="white"/>
<path d="M187.828 64.4547C187.828 65.1157 187.652 65.6081 187.299 65.9321C186.947 66.2496 186.327 66.457 185.44 66.5542L180.732 67.0498C180.895 67.8922 181.25 68.5207 181.798 68.9354C182.353 69.3436 183.071 69.5478 183.952 69.5478C184.643 69.5478 185.42 69.4279 186.281 69.1881C186.536 69.1169 186.732 69.1233 186.869 69.2076C187.012 69.2853 187.084 69.4344 187.084 69.6547V69.781C187.084 70.1892 186.888 70.4484 186.497 70.5586C185.511 70.8437 184.604 70.9862 183.776 70.9862C182.327 70.9862 181.182 70.5586 180.34 69.7033C179.505 68.8415 179.087 67.5974 179.087 65.971C179.087 64.3575 179.482 63.1167 180.272 62.2484C181.061 61.3801 182.21 60.946 183.717 60.946C185.002 60.946 186.007 61.2603 186.732 61.8888C187.462 62.5173 187.828 63.3726 187.828 64.4547ZM180.644 65.6211L185.117 65.1545C185.58 65.1092 185.887 65.0282 186.037 64.9116C186.193 64.7884 186.272 64.5908 186.272 64.3187C186.272 63.7225 186.053 63.2528 185.616 62.9093C185.179 62.5594 184.546 62.3845 183.717 62.3845C181.766 62.378 180.741 63.4569 180.644 65.6211Z" fill="white"/>
<path d="M198.509 61.8694C198.509 62.3359 198.274 62.5692 197.804 62.5692H194.427V67.4483C194.427 68.1676 194.587 68.6892 194.907 69.0132C195.227 69.3372 195.716 69.4992 196.375 69.4992C196.656 69.4992 196.952 69.47 197.266 69.4117C197.585 69.3534 197.784 69.3242 197.863 69.3242C198.098 69.3242 198.261 69.3663 198.352 69.4506C198.443 69.5283 198.489 69.6611 198.489 69.8491V70.0629C198.489 70.4257 198.326 70.6493 198 70.7335C197.413 70.889 196.861 70.9765 196.346 70.996C195.837 71.0154 195.364 70.9603 194.926 70.8307C194.496 70.7011 194.127 70.497 193.82 70.2184C193.514 69.9398 193.272 69.5672 193.096 69.1007C192.926 68.6276 192.842 68.0769 192.842 67.4483V59.5075C192.842 59.041 193.076 58.8077 193.546 58.8077H193.722C194.192 58.8077 194.427 59.041 194.427 59.5075V61.1307H197.804C198.274 61.1307 198.509 61.3607 198.509 61.8208V61.8694Z" fill="white"/>
</g>
<path d="M74.9527 17.4692H80.0664V26.1786C80.0664 26.9372 80.3529 27.6083 80.926 28.1919C81.4991 28.7608 82.2338 29.0453 83.1302 29.0453H104.312L104.356 29.0015V17.4692H109.492C110.124 17.4692 110.756 17.7391 111.388 18.2789C111.99 18.8625 112.291 19.5846 112.291 20.4453V45.0417C112.291 46.0775 111.843 46.9018 110.947 47.5145C110.462 47.8063 109.947 47.9521 109.404 47.9521H104.356V40.1181C104.356 39.4908 104.275 39.0239 104.114 38.7176C104.026 38.4987 103.893 38.258 103.717 37.9954C103.1 37.2806 102.314 36.9232 101.359 36.9232H80.0664V47.9521H74.9968C74.1886 47.9521 73.4833 47.6385 72.8808 47.0112C72.3665 46.4568 72.1094 45.7566 72.1094 44.9104V20.5328C72.1094 19.322 72.6384 18.4102 73.6964 17.7975C74.1372 17.5787 74.556 17.4692 74.9527 17.4692Z" fill="white"/>
<path d="M121.791 17.4692H144.318C148.285 17.4692 151.606 18.3227 154.281 20.0295C154.736 20.2921 155.236 20.6641 155.779 21.1456C157.969 23.2026 159.064 25.7775 159.064 28.8702C159.064 31.467 158.27 33.6918 156.683 35.5445C156.272 35.9968 155.926 36.325 155.647 36.5293C154.986 37.0836 154.413 37.4848 153.928 37.7328C151.268 39.2646 148.065 40.0305 144.318 40.0305L127.346 40.1181H126.883V45.0855C126.883 46.0192 126.464 46.8069 125.626 47.4488C125.112 47.7844 124.539 47.9521 123.907 47.9521H118.948V20.2921C118.948 19.4898 119.308 18.7603 120.028 18.1038C120.572 17.6808 121.159 17.4692 121.791 17.4692ZM126.883 25.369V32.2621H144.891C146.61 32.2621 147.844 31.9047 148.594 31.1898C148.726 31.0585 148.866 30.9126 149.013 30.7522C149.424 30.1832 149.63 29.5413 149.63 28.8265C149.63 27.3384 148.895 26.3026 147.426 25.7191C146.764 25.4857 145.934 25.369 144.935 25.369H126.883Z" fill="white"/>
<path d="M165.941 17.4692H171.032C171.032 17.5568 171.025 17.6297 171.01 17.6881C170.995 17.7172 170.988 17.7391 170.988 17.7537V38.8051L171.032 38.8489H170.988C171.017 38.878 171.032 38.9072 171.032 38.9364C171.032 38.951 171.032 38.9802 171.032 39.0239V40.0743H199.245V44.9104C199.245 46.2526 198.628 47.2081 197.394 47.7771C197.056 47.8938 196.725 47.9521 196.402 47.9521H165.985C164.985 47.9521 164.17 47.5218 163.538 46.6611C163.273 46.2526 163.127 45.8441 163.097 45.4356V45.2168L163.053 20.2921C163.053 19.5773 163.34 18.9208 163.913 18.3227C164.5 17.7537 165.176 17.4692 165.941 17.4692Z" fill="white"/>
<path d="M9.08188 41.1688C4.0661 36.153 4.0661 28.0208 9.08188 23.005L22.739 9.34787C27.7548 4.33209 35.887 4.33209 40.9028 9.34787L54.56 23.005C59.5757 28.0208 59.5757 36.153 54.56 41.1688L40.9028 54.826C35.887 59.8417 27.7548 59.8417 22.739 54.826L9.08188 41.1688Z" fill="#FF7A00"/>
<path d="M31.2126 49.8405C30.821 49.6148 30.4721 49.4132 30.1215 49.2125C29.2832 48.7326 28.4507 48.243 27.6042 47.7785C27.3678 47.649 27.2865 47.5058 27.2881 47.2411C27.2996 45.2584 27.293 43.2764 27.2963 41.2937C27.2963 41.0849 27.2832 40.9222 27.0574 40.7944C24.6074 39.4065 22.1649 38.0048 19.7198 36.608C19.6747 36.5821 19.6221 36.5691 19.5253 36.5319C19.5253 38.7226 19.5253 40.8834 19.5253 43.0887C19.4013 43.0409 19.3266 43.0215 19.2617 42.9843C18.1155 42.3304 16.9669 41.6814 15.8322 41.008C15.7066 40.9336 15.6007 40.7151 15.6007 40.5637C15.5868 36.2211 15.5876 31.8785 15.5868 27.5359C15.5868 26.241 15.5868 24.947 15.5859 23.6521C15.5859 23.5105 15.5859 23.3681 15.5859 23.1479C16.182 23.4846 16.6984 23.776 17.2149 24.0689C17.8774 24.4444 18.5343 24.8313 19.205 25.193C19.4399 25.3193 19.5195 25.4682 19.5179 25.7328C19.5055 27.7155 19.5138 29.6975 19.508 31.6802C19.5072 31.8971 19.5441 32.0468 19.7609 32.1698C22.2002 33.5505 24.6321 34.9424 27.0664 36.3312C27.1223 36.3627 27.1822 36.387 27.2857 36.4364C27.2857 34.227 27.2857 32.0638 27.2857 29.8472C27.4277 29.9079 27.5262 29.9386 27.6141 29.9888C28.7266 30.6201 29.8341 31.2578 30.9507 31.8825C31.1503 31.9942 31.2422 32.1116 31.2422 32.3519C31.2348 38.0833 31.2365 43.8154 31.2356 49.5468C31.234 49.6237 31.2233 49.7005 31.2126 49.8405Z" fill="white"/>
<path d="M45.5836 23.1342C44.4842 23.7606 43.4596 24.3457 42.4333 24.9292C39.0408 26.8602 35.6475 28.7895 32.2582 30.7253C32.0497 30.8443 31.8896 30.8742 31.6655 30.7472C26.6366 27.8969 21.6037 25.0547 16.5716 22.2109C16.4821 22.1607 16.3951 22.1048 16.2588 22.0223C17.3426 21.4048 18.4058 20.8545 19.4042 20.2087C19.9781 19.838 20.3886 19.8809 20.9682 20.2152C24.4773 22.2424 28.0168 24.2187 31.5398 26.2225C31.8182 26.3811 32.0226 26.3973 32.3141 26.2298C35.3207 24.5011 38.3388 22.7927 41.3479 21.069C41.5802 20.9362 41.7436 20.937 41.9743 21.0714C43.1468 21.7568 44.3323 22.4221 45.5836 23.1342Z" fill="white"/>
<path fill-rule="evenodd" clip-rule="evenodd" d="M48.2033 24.1653C48.2033 23.7062 47.7869 23.5111 47.3883 23.7391C44.7671 25.231 42.2699 26.6171 39.7656 28.0072C37.5032 29.2631 35.2349 30.5222 32.864 31.8655C32.607 32.0111 32.543 32.1714 32.543 32.4401C32.5484 37.1492 32.5482 41.8588 32.548 46.5681C32.5479 47.5095 32.5479 48.4508 32.5479 49.3921V49.8324C32.6038 49.8037 32.6532 49.779 32.6981 49.7566C32.7852 49.713 32.8554 49.6779 32.9231 49.639C33.2408 49.4572 33.5579 49.2746 33.8751 49.092C34.6425 48.6502 35.4099 48.2085 36.1842 47.7784C36.4223 47.6457 36.4979 47.5 36.4962 47.2378C36.4911 46.3719 36.4911 45.5059 36.491 44.6398C36.4908 43.5503 36.4907 42.4607 36.4806 41.3713C36.4774 41.0411 36.5939 40.8704 36.8731 40.7118C38.7064 39.6698 40.5377 38.6245 42.3689 37.5791C44.2003 36.5337 46.0317 35.4883 47.8651 34.4463C48.127 34.2982 48.2099 34.1315 48.2091 33.8409C48.2017 31.2905 48.2022 29.987 48.2029 28.0588C48.2031 27.4178 48.2033 26.7078 48.2033 25.86V24.1653ZM44.1938 29.9166C44.2159 29.9114 44.2428 29.9051 44.2763 29.8957C44.2763 29.8958 44.2763 29.8958 44.2763 29.8959C44.2766 29.8958 44.2768 29.8958 44.277 29.8957C44.277 30.0666 44.2776 30.2349 44.2781 30.4012C44.2797 30.876 44.2812 31.3348 44.2696 31.7927C44.2664 31.9035 44.1925 32.0613 44.1013 32.1139C41.992 33.3275 39.8779 34.5331 37.7196 35.7639C37.3132 35.9957 36.9051 36.2284 36.4953 36.4622C36.4953 36.4617 36.4953 36.4611 36.4953 36.4605C36.4948 36.4608 36.4943 36.4611 36.4938 36.4614C36.4938 36.296 36.4934 36.1336 36.4931 35.9735C36.492 35.4232 36.4909 34.9003 36.5036 34.3775C36.5061 34.3022 36.6251 34.2084 36.7114 34.159C39.1769 32.7508 41.6449 31.3467 44.113 29.9426C44.133 29.931 44.1568 29.9254 44.1938 29.9166Z" fill="white"/>
</svg>
