<svg width="11" height="11" viewBox="0 0 11 11" fill="none" xmlns="http://www.w3.org/2000/svg">
<g clip-path="url(#clip0_2_12735)">
<path fill="#33B2EF" d="M5.50517 11.0002C2.4792 11.0128 0.0085232 8.54665 4.80401e-07 5.5051C-0.00852224 2.47052 2.43865 0.0180142 5.49303 0.000195975C8.52933 -0.0173647 10.9987 2.44857 11 5.49942C11.0013 8.54278 8.55929 10.9875 5.50517 11.0002ZM6.04393 6.50707C6.04393 5.9361 6.04471 5.36514 6.04367 4.79417C6.04316 4.46853 5.80089 4.21726 5.49458 4.22087C5.1911 4.22449 4.95684 4.47033 4.95659 4.79158C4.95555 5.93791 4.95607 7.08424 4.95684 8.23057C4.95684 8.2817 4.95839 8.33438 4.97079 8.38345C5.03639 8.64117 5.29932 8.82633 5.54985 8.79534C5.83447 8.76022 6.04264 8.53168 6.04341 8.24606C6.04496 7.66631 6.04367 7.08656 6.04393 6.50707ZM6.22576 2.93148C6.22472 2.52501 5.90317 2.20247 5.49948 2.20298C5.10303 2.2035 4.77424 2.53586 4.77424 2.93587C4.7745 3.32814 5.11569 3.67031 5.50387 3.66721C5.90162 3.66411 6.22679 3.33253 6.22576 2.93148Z"/>
</g>
<defs>
<clipPath id="clip0_2_12735">
<rect width="11" height="11" fill="#33B2EF" transform="translate(11 11) rotate(-180)"/>
</clipPath>
</defs>
</svg>
