<svg width="399" height="399" viewBox="0 0 399 399" fill="none" xmlns="http://www.w3.org/2000/svg">
<circle cx="199.5" cy="199.5" r="199.5" fill="#162337"/>
<path d="M311.753 81.4663C308.12 88.6493 304.701 95.4296 301.272 102.201C291.547 121.402 281.822 140.608 272.088 159.805C265.552 172.696 259.02 185.587 252.434 198.447C251.72 199.845 251.634 200.935 252.38 202.391C271.468 239.631 290.507 276.894 309.55 314.156C310.124 315.283 310.681 316.418 311.459 317.983C307.618 317.983 304.135 317.979 300.652 317.988C299.639 317.988 299.517 317.115 299.196 316.491C289.494 297.529 279.8 278.563 270.107 259.597C260.481 240.762 250.883 221.918 241.194 203.119C240.235 201.26 240.185 199.808 241.149 197.918C260.603 159.683 279.995 121.411 299.359 83.1309C299.997 81.8734 300.711 81.394 302.113 81.4392C305.189 81.5387 308.274 81.4663 311.753 81.4663Z" fill="#EC5B22"/>
<path d="M288.576 317.992C284.966 317.992 281.655 317.938 278.349 318.024C277.195 318.056 276.811 317.44 276.377 316.59C268.488 301.112 260.582 285.637 252.675 270.163C241.141 247.592 229.615 225.017 218.036 202.468C217.317 201.061 217.267 199.98 218 198.533C237.563 160.045 257.081 121.533 276.567 83.0043C277.159 81.8328 277.829 81.3805 279.14 81.4302C281.696 81.5343 284.27 81.5614 286.821 81.4302C288.798 81.3262 288.689 81.9911 287.961 83.425C280.823 97.4335 273.731 111.465 266.625 125.487C255.606 147.226 244.583 168.96 233.56 190.699C232.198 193.381 230.877 196.086 229.452 198.737C228.828 199.899 228.765 200.871 229.394 202.093C239.797 222.371 250.151 242.675 260.523 262.971C269.628 280.788 278.733 298.601 287.839 316.418C288.047 316.816 288.219 317.223 288.576 317.992Z" fill="#F7AD28"/>
<path d="M266.036 81.4663C263.014 87.4641 260.187 93.1046 257.338 98.727C246.21 120.678 235.074 142.63 223.951 164.581C218.166 175.993 212.413 187.424 206.591 198.818C205.985 200.003 205.94 200.876 206.578 202.12C226.032 240.102 245.428 278.111 264.873 316.097C265.746 317.798 265.308 318.087 263.625 318.019C261.142 317.924 258.649 317.911 256.166 318.028C254.764 318.096 254.027 317.612 253.393 316.359C246.69 303.133 239.928 289.939 233.183 276.735C220.514 251.934 207.853 227.133 195.156 202.346C194.519 201.102 194.378 200.102 195.048 198.786C214.579 160.334 234.084 121.873 253.534 83.3796C254.302 81.8598 255.18 81.3532 256.822 81.4301C259.749 81.5613 262.689 81.4663 266.036 81.4663Z" fill="#23A6DD"/>
<path d="M243.18 81.4664C240.896 85.9897 238.779 90.2008 236.644 94.3984C224.725 117.874 212.802 141.345 200.878 164.817C195.157 176.084 189.444 187.356 183.667 198.596C182.98 199.94 182.984 200.985 183.672 202.328C202.602 239.197 221.491 276.089 240.389 312.981C241.176 314.514 241.932 316.061 242.881 317.97C239.095 317.97 235.545 317.997 231.989 317.952C230.931 317.938 230.831 316.866 230.483 316.183C224.499 304.545 218.555 292.884 212.585 281.232C199.381 255.458 186.21 229.667 172.898 203.947C171.518 201.279 171.731 199.352 173.069 196.746C185.581 172.393 197.929 147.954 210.319 123.533C217.158 110.049 223.997 96.5651 230.8 83.0586C231.37 81.9278 231.985 81.3624 233.355 81.4167C236.495 81.5478 239.638 81.4664 243.18 81.4664Z" fill="#F7AD28"/>
<path d="M120.124 199.533C120.124 226.355 120.111 253.174 120.129 279.997C120.138 291.748 120.174 303.5 120.31 315.251C120.333 317.183 119.916 317.992 117.845 317.807C115.452 317.594 113.027 317.59 110.621 317.639C109.273 317.667 108.893 317.11 109.024 315.903C109.074 315.455 109.033 314.998 109.033 314.546C109.033 237.763 109.029 160.985 109.042 84.2029C109.042 80.6838 108.558 81.1226 112.168 81.0864C114.05 81.0683 115.94 81.1769 117.818 81.0547C119.428 80.9507 119.862 81.5613 119.849 83.1173C119.794 88.9162 119.885 94.7195 119.889 100.523C119.898 133.525 119.894 166.526 119.894 199.528C119.966 199.533 120.043 199.533 120.124 199.533Z" fill="#E91977"/>
<path d="M149.946 199.37C149.946 161.017 149.946 122.66 149.951 84.307C149.951 80.4893 149.756 81.1407 153.257 81.0909C155.066 81.0638 156.876 81.1452 158.681 81.0683C159.875 81.014 160.336 81.4663 160.227 82.6288C160.178 83.1535 160.223 83.6827 160.223 84.212C160.223 117.291 160.214 150.374 160.25 183.452C160.25 185.167 159.924 186.686 159.11 188.188C157.5 191.169 156.03 194.222 154.42 197.199C153.859 198.239 153.759 199.144 154.447 200.121C154.619 200.365 154.686 200.681 154.854 200.926C159.563 207.715 160.436 215.233 160.35 223.379C160.024 253.893 160.196 284.412 160.268 314.93C160.273 317.11 159.734 317.915 157.527 317.653C155.08 317.359 151.873 318.68 150.349 317.128C148.942 315.699 149.96 312.533 149.955 310.14C149.937 273.212 149.946 236.293 149.946 199.37Z" fill="#E61976"/>
<path d="M129.456 199.51C129.456 161.004 129.456 122.492 129.456 83.9859C129.456 81.091 129.461 81.091 132.396 81.0865C134.283 81.0865 136.169 81.1679 138.046 81.0594C139.471 80.9779 139.959 81.5479 139.792 82.8868C139.747 83.2577 139.787 83.6376 139.787 84.0176C139.787 160.881 139.792 237.745 139.778 314.614C139.778 317.965 140.262 317.576 136.77 317.608C134.812 317.626 132.853 317.572 130.895 317.621C129.823 317.649 129.375 317.223 129.452 316.16C129.497 315.487 129.456 314.804 129.456 314.125C129.456 275.922 129.456 237.718 129.456 199.51Z" fill="#E91977"/>
<path d="M170.881 232.204C174.006 238.292 177.123 244.381 180.262 250.46C180.701 251.306 180.728 252.188 180.728 253.097C180.728 273.9 180.71 294.702 180.764 315.505C180.768 317.187 180.325 317.775 178.62 317.658C176.593 317.517 174.544 317.508 172.518 317.662C170.722 317.798 170.41 317.042 170.419 315.441C170.469 300.293 170.451 285.144 170.451 269.991C170.451 258.235 170.451 246.475 170.451 234.719C170.451 233.9 170.451 233.086 170.451 232.267C170.596 232.245 170.74 232.227 170.881 232.204Z" fill="#E61976"/>
<path d="M170.455 165.038C170.455 164.301 170.455 163.568 170.455 162.831C170.455 136.474 170.482 110.117 170.405 83.7642C170.401 81.6111 170.889 80.7879 173.115 81.0457C174.825 81.2402 176.589 81.2357 178.303 81.0457C180.406 80.815 180.773 81.7106 180.768 83.6059C180.709 103.712 180.732 123.818 180.732 143.924C180.732 144.977 180.709 145.995 180.194 146.99C177.077 152.993 174.006 159.018 170.921 165.038C170.763 165.038 170.609 165.038 170.455 165.038Z" fill="#E61976"/>
</svg>
