<svg width="139" height="44" viewBox="0 0 139 44" fill="none" xmlns="http://www.w3.org/2000/svg">
<g opacity="0.9">
<path d="M70.8627 31.623C70.8301 31.3833 70.8692 31.1986 70.9801 31.069C71.0976 30.9394 71.277 30.8746 71.5185 30.8746H71.724C72.1612 30.8746 72.4092 31.0885 72.4679 31.5161L73.9361 41.8965C73.9883 42.1557 74.109 42.2853 74.2982 42.2853C74.4809 42.2853 74.5951 42.1687 74.6408 41.9354L76.6571 32.3714C76.7615 31.8466 76.9671 31.4675 77.2738 31.2343C77.5804 30.9945 77.9981 30.8746 78.5266 30.8746C79.0617 30.8746 79.4793 30.9945 79.7795 31.2343C80.0861 31.4675 80.2949 31.8466 80.4059 32.3714L82.432 41.9354C82.4776 42.1687 82.5886 42.2853 82.7648 42.2853C82.954 42.2853 83.0714 42.1557 83.1171 41.8965L84.6049 31.5161C84.6636 31.082 84.9116 30.8682 85.3488 30.8746H85.5445C85.786 30.8746 85.9621 30.9394 86.0731 31.069C86.1905 31.1986 86.2329 31.3833 86.2003 31.623L84.7126 41.9549C84.6147 42.6935 84.4156 43.2184 84.1155 43.5294C83.8218 43.834 83.3879 43.9862 82.8137 43.9862C82.2525 43.9862 81.8186 43.834 81.5119 43.5294C81.2118 43.2184 80.9866 42.7033 80.8365 41.984L78.9181 32.8866C78.8529 32.5496 78.7224 32.3779 78.5266 32.3714C78.3374 32.3714 78.2101 32.5432 78.1449 32.8866L76.2362 41.984C76.0796 42.7097 75.8512 43.2249 75.5511 43.5294C75.2509 43.834 74.817 43.9862 74.2493 43.9862C73.6751 43.9862 73.2411 43.8307 72.9475 43.5197C72.6539 43.2087 72.4581 42.6871 72.3602 41.9549L70.8627 31.623Z" fill="white"/>
<path d="M94.8062 33.946C96.0852 33.946 97.1096 34.2505 97.8796 34.8596C98.6496 35.4687 99.0346 36.3726 99.0346 37.5714V41.0121C99.0346 41.9711 98.8062 42.6773 98.3494 43.1309C97.8992 43.5845 97.1357 43.8113 96.0591 43.8113H94.1504C92.9759 43.8113 92.0917 43.5975 91.4979 43.1698C90.9041 42.7357 90.6072 41.997 90.6072 40.9538C90.6072 39.9105 90.9041 39.1718 91.4979 38.7377C92.0917 38.3036 92.9759 38.0865 94.1504 38.0865H97.4685V37.5714C97.4685 36.8457 97.2206 36.3046 96.7246 35.9482C96.2352 35.5918 95.5436 35.4136 94.6496 35.4136C93.847 35.4136 92.9498 35.5335 91.9579 35.7733C91.71 35.8251 91.5175 35.8057 91.3804 35.715C91.2434 35.6242 91.1749 35.4655 91.1749 35.2387V35.1415C91.1749 34.7138 91.4163 34.4417 91.8992 34.3251C92.9563 34.0724 93.9253 33.946 94.8062 33.946ZM95.9122 42.4214C96.5321 42.4214 96.9465 42.3015 97.1553 42.0618C97.3641 41.8156 97.4685 41.443 97.4685 40.944V39.4861H94.1504C93.4 39.4861 92.878 39.5963 92.5844 39.8166C92.2973 40.0369 92.1537 40.4159 92.1537 40.9538C92.1537 41.4916 92.2973 41.8706 92.5844 42.0909C92.878 42.3112 93.4 42.4214 94.1504 42.4214H95.9122Z" fill="white"/>
<path d="M104.655 30.5733C104.655 30.1068 104.89 29.8735 105.36 29.8735H105.536C106.006 29.8735 106.241 30.1068 106.241 30.5733V43.1115C106.241 43.578 106.006 43.8113 105.536 43.8113H105.36C104.89 43.8113 104.655 43.578 104.655 43.1115V30.5733Z" fill="white"/>
<path d="M112.116 30.5733C112.116 30.1068 112.351 29.8735 112.821 29.8735H112.997C113.467 29.8735 113.702 30.1068 113.702 30.5733V43.1115C113.702 43.578 113.467 43.8113 112.997 43.8113H112.821C112.351 43.8113 112.116 43.578 112.116 43.1115V30.5733Z" fill="white"/>
<path d="M127.828 37.4547C127.828 38.1157 127.652 38.6081 127.299 38.9321C126.947 39.2496 126.327 39.457 125.44 39.5542L120.732 40.0498C120.895 40.8922 121.25 41.5207 121.798 41.9354C122.353 42.3436 123.071 42.5478 123.952 42.5478C124.643 42.5478 125.42 42.4279 126.281 42.1881C126.536 42.1169 126.732 42.1233 126.869 42.2076C127.012 42.2853 127.084 42.4344 127.084 42.6547V42.781C127.084 43.1892 126.888 43.4484 126.497 43.5586C125.511 43.8437 124.604 43.9862 123.776 43.9862C122.327 43.9862 121.182 43.5586 120.34 42.7033C119.505 41.8415 119.087 40.5974 119.087 38.971C119.087 37.3575 119.482 36.1167 120.272 35.2484C121.061 34.3801 122.21 33.946 123.717 33.946C125.002 33.946 126.007 34.2603 126.732 34.8888C127.462 35.5173 127.828 36.3726 127.828 37.4547ZM120.644 38.6211L125.117 38.1545C125.58 38.1092 125.887 38.0282 126.037 37.9116C126.193 37.7884 126.272 37.5908 126.272 37.3187C126.272 36.7225 126.053 36.2528 125.616 35.9093C125.179 35.5594 124.546 35.3845 123.717 35.3845C121.766 35.378 120.741 36.4569 120.644 38.6211Z" fill="white"/>
<path d="M138.509 34.8694C138.509 35.3359 138.274 35.5692 137.804 35.5692H134.427V40.4483C134.427 41.1676 134.587 41.6892 134.907 42.0132C135.227 42.3372 135.716 42.4992 136.375 42.4992C136.656 42.4992 136.952 42.47 137.266 42.4117C137.585 42.3534 137.784 42.3242 137.863 42.3242C138.098 42.3242 138.261 42.3663 138.352 42.4506C138.443 42.5283 138.489 42.6611 138.489 42.8491V43.0629C138.489 43.4257 138.326 43.6493 138 43.7335C137.413 43.889 136.861 43.9765 136.346 43.996C135.837 44.0154 135.364 43.9603 134.926 43.8307C134.496 43.7011 134.127 43.497 133.82 43.2184C133.514 42.9398 133.272 42.5672 133.096 42.1007C132.926 41.6276 132.842 41.0769 132.842 40.4483V32.5075C132.842 32.041 133.076 31.8077 133.546 31.8077H133.722C134.192 31.8077 134.427 32.041 134.427 32.5075V34.1307H137.804C138.274 34.1307 138.509 34.3607 138.509 34.8208V34.8694Z" fill="white"/>
</g>
<path d="M0.0947266 0.29541H4.65998C5.48058 0.29541 6.10382 0.648581 6.5297 1.35492C6.70629 1.65616 6.79458 2.0301 6.79458 2.47676V21.9998H2.10468C1.5957 21.9998 1.11788 21.7869 0.671226 21.361C0.286893 20.9663 0.0947266 20.4677 0.0947266 19.8652V0.29541Z" fill="white"/>
<path d="M19.1348 0.29541H35.8221C36.5907 0.29541 37.1984 0.627806 37.6451 1.2926C37.8424 1.63538 37.9411 1.99375 37.9411 2.36769V5.92017H19.2283C18.0233 5.92017 17.0365 6.40838 16.2679 7.38479C15.7797 8.02881 15.5356 8.75073 15.5356 9.55056V12.7447C15.5356 13.7003 15.8731 14.5417 16.5483 15.2688C16.8703 15.57 17.13 15.7726 17.3274 15.8765C17.5143 16.0011 17.7221 16.0946 17.9506 16.1569C18.3869 16.3127 18.7193 16.3906 18.9478 16.3906H37.8944V19.9899C37.8944 20.5612 37.6399 21.0805 37.1309 21.548C36.7362 21.8492 36.2999 21.9998 35.8221 21.9998H19.1036C17.1923 21.9998 15.4057 21.4129 13.7437 20.2392C13.4633 20.0418 13.0686 19.7042 12.5596 19.2264C12.0298 18.6551 11.6714 18.2084 11.4845 17.8864C11.1729 17.4086 10.9391 16.9931 10.7833 16.6399C10.2016 15.435 9.91079 14.0846 9.91079 12.5889V9.72195C9.91079 8.09113 10.264 6.62132 10.9703 5.31251C11.1573 4.93856 11.4118 4.51268 11.7338 4.03486C11.8169 3.94138 11.9052 3.8375 11.9987 3.72324C12.1545 3.53627 12.331 3.33372 12.5284 3.11558C13.0789 2.57544 13.5256 2.20149 13.8684 1.99375C14.4501 1.57825 15.0266 1.24585 15.5979 0.996558C16.782 0.529126 17.961 0.29541 19.1348 0.29541Z" fill="white"/>
<path d="M43.7061 0.29541H59.5053C61.6347 0.29541 63.4733 0.627806 65.021 1.2926C65.3326 1.41725 65.5767 1.52112 65.7533 1.60422C66.013 1.74964 66.2882 1.92103 66.5791 2.11839C67.9606 2.95977 68.9422 4.14912 69.5239 5.68646C69.8355 6.50706 69.9913 7.3796 69.9913 8.30407V8.50663C69.9913 9.61807 69.7576 10.6672 69.2902 11.654C69.1448 11.9345 68.963 12.2461 68.7449 12.5889C68.5579 12.8382 68.3346 13.103 68.0749 13.3835C67.9502 13.5289 67.8256 13.6588 67.7009 13.773L67.5451 13.9288L67.4205 14.0223L67.1868 14.2093C66.9998 14.3443 66.7661 14.5001 66.4856 14.6767C66.4441 14.6975 66.4025 14.7235 66.361 14.7546C66.0805 14.9001 65.826 15.0299 65.5975 15.1442C65.4832 15.1961 65.3742 15.248 65.2703 15.3C64.8652 15.4662 64.4393 15.6168 63.9926 15.7518C65.2807 17.0814 66.1636 18.0474 66.6414 18.6499C66.9634 19.0135 67.2802 19.3718 67.5919 19.725C68.1839 20.4106 68.75 21.0494 69.2902 21.6415C69.4564 21.7973 69.5551 21.9063 69.5862 21.9687H62.8552C62.4709 21.9687 62.1696 21.9271 61.9515 21.844C61.8892 21.8128 61.8321 21.7817 61.7801 21.7505C61.7282 21.7194 61.6711 21.683 61.6087 21.6415C61.3906 21.496 61.1465 21.2519 60.8764 20.9091C59.8896 19.7354 58.8457 18.4525 57.7446 17.0606L57.1993 16.3595C57.1681 16.3595 57.1058 16.3699 57.0123 16.3906C56.3683 16.3906 54.4311 16.401 51.2006 16.4218H47.243V19.9587C47.243 20.6235 46.9573 21.1844 46.386 21.6415C46.0433 21.8804 45.6485 21.9998 45.2019 21.9998H41.6338V2.47676C41.6338 2.12359 41.6754 1.84313 41.7585 1.63538C41.8 1.51073 41.8727 1.36531 41.9766 1.19911C42.0493 1.09524 42.1376 0.996558 42.2415 0.903071C42.6778 0.497964 43.166 0.29541 43.7061 0.29541ZM47.243 5.92017V10.8282H60.0039C61.0011 10.8282 61.7593 10.6568 62.2787 10.314C62.6527 10.0751 62.9279 9.7583 63.1045 9.36358C63.2499 9.06235 63.3226 8.71957 63.3226 8.33523C63.3226 7.57696 62.9747 6.94333 62.2787 6.43435C62.1748 6.36163 62.0658 6.29931 61.9515 6.24737C61.9204 6.23699 61.8892 6.2214 61.858 6.20063C61.6711 6.10714 61.3854 6.02404 61.0011 5.95133C60.8764 5.95133 60.705 5.94095 60.4869 5.92017H47.243Z" fill="white"/>
<path d="M80.8358 0.29541H97.5231C98.2917 0.29541 98.8994 0.627806 99.346 1.2926C99.5434 1.63538 99.6421 1.99375 99.6421 2.36769V5.92017H80.9292C79.7243 5.92017 78.7375 6.40838 77.9688 7.38479C77.4806 8.02881 77.2365 8.75073 77.2365 9.55056V12.7447C77.2365 13.7003 77.5741 14.5417 78.2493 15.2688C78.5713 15.57 78.831 15.7726 79.0284 15.8765C79.2153 16.0011 79.4231 16.0946 79.6516 16.1569C80.0879 16.3127 80.4203 16.3906 80.6488 16.3906H99.5953V19.9899C99.5953 20.5612 99.3409 21.0805 98.8319 21.548C98.4372 21.8492 98.0009 21.9998 97.5231 21.9998H80.8046C78.8933 21.9998 77.1067 21.4129 75.4447 20.2392C75.1643 20.0418 74.7695 19.7042 74.2606 19.2264C73.7308 18.6551 73.3724 18.2084 73.1855 17.8864C72.8738 17.4086 72.6401 16.9931 72.4843 16.6399C71.9026 15.435 71.6118 14.0846 71.6118 12.5889V9.72195C71.6118 8.09113 71.9649 6.62132 72.6713 5.31251C72.8583 4.93856 73.1127 4.51268 73.4348 4.03486C73.5179 3.94138 73.6061 3.8375 73.6996 3.72324C73.8554 3.53627 74.032 3.33372 74.2294 3.11558C74.7799 2.57544 75.2266 2.20149 75.5694 1.99375C76.1511 1.57825 76.7276 1.24585 77.2989 0.996558C78.483 0.529126 79.662 0.29541 80.8358 0.29541Z" fill="white"/>
<path d="M121.097 9.31684C121.128 9.32723 121.144 9.34281 121.144 9.36358V12.0435C121.144 12.6564 120.827 13.1706 120.193 13.5861C119.903 13.7522 119.586 13.8353 119.243 13.8353H103.833C103.802 13.8353 103.787 13.8198 103.787 13.7886V11.1554C103.787 10.4179 104.171 9.85179 104.94 9.45707C105.179 9.36358 105.469 9.31684 105.812 9.31684H121.097Z" fill="white"/>
<path d="M136.008 0.29541V19.4757C136.008 20.369 135.593 21.1065 134.762 21.6882C134.346 21.8959 133.931 21.9998 133.515 21.9998H129.308V7.60292C129.308 7.43673 129.319 7.31208 129.34 7.22898V7.13549H125.6C125.153 7.13549 124.774 6.89139 124.463 6.40318C124.38 6.18505 124.338 5.98249 124.338 5.79552V1.96258H128.031C128.477 1.96258 128.851 1.73925 129.153 1.2926C129.277 1.08485 129.34 0.809585 129.34 0.466802V0.29541H136.008Z" fill="white"/>
</svg>
