<svg width="139" height="44" viewBox="0 0 139 44" fill="none" xmlns="http://www.w3.org/2000/svg">
<g opacity="0.9">
<path d="M70.768 31.3276C70.7353 31.0879 70.7745 30.9032 70.8854 30.7736C71.0029 30.644 71.1823 30.5792 71.4237 30.5792H71.6293C72.0665 30.5792 72.3144 30.7931 72.3732 31.2207L73.8414 41.6011C73.8936 41.8603 74.0143 41.9899 74.2035 41.9899C74.3862 41.9899 74.5004 41.8733 74.5461 41.64L76.5624 32.076C76.6668 31.5512 76.8723 31.1721 77.179 30.9389C77.4857 30.6991 77.9033 30.5792 78.4319 30.5792C78.9669 30.5792 79.3846 30.6991 79.6847 30.9389C79.9914 31.1721 80.2002 31.5512 80.3112 32.076L82.3372 41.64C82.3829 41.8733 82.4939 41.9899 82.67 41.9899C82.8593 41.9899 82.9767 41.8603 83.0224 41.6011L84.5102 31.2207C84.5689 30.7866 84.8168 30.5728 85.254 30.5792H85.4498C85.6912 30.5792 85.8674 30.644 85.9783 30.7736C86.0958 30.9032 86.1382 31.0879 86.1056 31.3276L84.6178 41.6595C84.5199 42.3981 84.3209 42.923 84.0208 43.234C83.7271 43.5386 83.2932 43.6908 82.719 43.6908C82.1578 43.6908 81.7239 43.5386 81.4172 43.234C81.117 42.923 80.8919 42.4079 80.7418 41.6886L78.8234 32.5912C78.7581 32.2542 78.6276 32.0825 78.4319 32.076C78.2426 32.076 78.1154 32.2477 78.0501 32.5912L76.1415 41.6886C75.9849 42.4143 75.7565 42.9295 75.4564 43.234C75.1562 43.5386 74.7223 43.6908 74.1546 43.6908C73.5803 43.6908 73.1464 43.5353 72.8528 43.2243C72.5591 42.9133 72.3634 42.3917 72.2655 41.6595L70.768 31.3276Z" fill="#19173A"/>
<path d="M94.7115 33.6506C95.9904 33.6506 97.0149 33.9551 97.7849 34.5642C98.5549 35.1733 98.9399 36.0772 98.9399 37.276V40.7167C98.9399 41.6757 98.7115 42.3819 98.2547 42.8355C97.8045 43.2891 97.041 43.5159 95.9643 43.5159H94.0557C92.8811 43.5159 91.997 43.302 91.4032 42.8744C90.8094 42.4403 90.5125 41.7016 90.5125 40.6583C90.5125 39.6151 90.8094 38.8764 91.4032 38.4423C91.997 38.0082 92.8811 37.7911 94.0557 37.7911H97.3738V37.276C97.3738 36.5502 97.1258 36.0092 96.6299 35.6528C96.1405 35.2964 95.4488 35.1182 94.5549 35.1182C93.7523 35.1182 92.8551 35.2381 91.8632 35.4779C91.6153 35.5297 91.4228 35.5103 91.2857 35.4195C91.1487 35.3288 91.0802 35.1701 91.0802 34.9433V34.8461C91.0802 34.4184 91.3216 34.1463 91.8045 34.0297C92.8616 33.7769 93.8306 33.6506 94.7115 33.6506ZM95.8175 42.126C96.4374 42.126 96.8518 42.0061 97.0606 41.7664C97.2694 41.5201 97.3738 41.1476 97.3738 40.6486V39.1907H94.0557C93.3053 39.1907 92.7833 39.3009 92.4896 39.5212C92.2025 39.7415 92.059 40.1205 92.059 40.6583C92.059 41.1962 92.2025 41.5752 92.4896 41.7955C92.7833 42.0158 93.3053 42.126 94.0557 42.126H95.8175Z" fill="#19173A"/>
<path d="M104.56 30.2779C104.56 29.8114 104.795 29.5781 105.265 29.5781H105.441C105.911 29.5781 106.146 29.8114 106.146 30.2779V42.8161C106.146 43.2826 105.911 43.5159 105.441 43.5159H105.265C104.795 43.5159 104.56 43.2826 104.56 42.8161V30.2779Z" fill="#19173A"/>
<path d="M112.021 30.2779C112.021 29.8114 112.256 29.5781 112.726 29.5781H112.902C113.372 29.5781 113.607 29.8114 113.607 30.2779V42.8161C113.607 43.2826 113.372 43.5159 112.902 43.5159H112.726C112.256 43.5159 112.021 43.2826 112.021 42.8161V30.2779Z" fill="#19173A"/>
<path d="M127.733 37.1593C127.733 37.8203 127.557 38.3127 127.205 38.6367C126.852 38.9542 126.232 39.1615 125.345 39.2587L120.637 39.7544C120.8 40.5968 121.156 41.2253 121.704 41.64C122.258 42.0482 122.976 42.2523 123.857 42.2523C124.549 42.2523 125.325 42.1325 126.187 41.8927C126.441 41.8214 126.637 41.8279 126.774 41.9122C126.917 41.9899 126.989 42.139 126.989 42.3593V42.4856C126.989 42.8938 126.793 43.153 126.402 43.2632C125.417 43.5483 124.51 43.6908 123.681 43.6908C122.232 43.6908 121.087 43.2632 120.245 42.4079C119.41 41.5461 118.993 40.302 118.993 38.6756C118.993 37.0621 119.387 35.8213 120.177 34.953C120.966 34.0847 122.115 33.6506 123.622 33.6506C124.908 33.6506 125.913 33.9649 126.637 34.5934C127.368 35.2219 127.733 36.0772 127.733 37.1593ZM120.549 38.3257L125.022 37.8591C125.485 37.8138 125.792 37.7328 125.942 37.6161C126.099 37.493 126.177 37.2954 126.177 37.0233C126.177 36.4271 125.958 35.9574 125.521 35.6139C125.084 35.264 124.451 35.0891 123.622 35.0891C121.671 35.0826 120.647 36.1615 120.549 38.3257Z" fill="#19173A"/>
<path d="M138.414 34.5739C138.414 35.0405 138.179 35.2737 137.709 35.2737H134.332V40.1529C134.332 40.8722 134.492 41.3938 134.812 41.7178C135.132 42.0418 135.621 42.2037 136.28 42.2037C136.561 42.2037 136.858 42.1746 137.171 42.1163C137.491 42.058 137.69 42.0288 137.768 42.0288C138.003 42.0288 138.166 42.0709 138.257 42.1551C138.349 42.2329 138.394 42.3657 138.394 42.5536V42.7675C138.394 43.1303 138.231 43.3539 137.905 43.4381C137.318 43.5936 136.766 43.6811 136.251 43.7005C135.742 43.72 135.269 43.6649 134.832 43.5353C134.401 43.4057 134.032 43.2016 133.726 42.923C133.419 42.6444 133.178 42.2718 133.001 41.8052C132.832 41.3322 132.747 40.7815 132.747 40.1529V32.2121C132.747 31.7456 132.982 31.5123 133.452 31.5123H133.628C134.098 31.5123 134.332 31.7456 134.332 32.2121V33.8353H137.709C138.179 33.8353 138.414 34.0653 138.414 34.5253V34.5739Z" fill="#19173A"/>
</g>
<path d="M0 0H4.56525C5.38585 0 6.00909 0.353171 6.43498 1.05951C6.61156 1.36075 6.69985 1.73469 6.69985 2.18135V21.7044H2.00996C1.50098 21.7044 1.02316 21.4915 0.576499 21.0656C0.192166 20.6709 0 20.1723 0 19.5698V0Z" fill="#19173A"/>
<path d="M19.04 0H35.7274C36.496 0 37.1037 0.332395 37.5503 0.997187C37.7477 1.33997 37.8464 1.69834 37.8464 2.07228V5.62476H19.1335C17.9286 5.62476 16.9418 6.11297 16.1731 7.08938C15.6849 7.7334 15.4408 8.45532 15.4408 9.25515V12.4493C15.4408 13.4049 15.7784 14.2463 16.4536 14.9734C16.7756 15.2746 17.0353 15.4772 17.2326 15.5811C17.4196 15.7057 17.6274 15.7992 17.8559 15.8615C18.2922 16.0173 18.6246 16.0952 18.8531 16.0952H37.7996V19.6945C37.7996 20.2658 37.5451 20.7851 37.0362 21.2526C36.6414 21.5538 36.2052 21.7044 35.7274 21.7044H19.0089C17.0976 21.7044 15.311 21.1175 13.649 19.9438C13.3685 19.7464 12.9738 19.4088 12.4648 18.931C11.9351 18.3597 11.5767 17.913 11.3898 17.591C11.0781 17.1132 10.8444 16.6977 10.6886 16.3445C10.1069 15.1396 9.81606 13.7892 9.81606 12.2935V9.42654C9.81606 7.79572 10.1692 6.32591 10.8756 5.0171C11.0625 4.64315 11.317 4.21727 11.639 3.73945C11.7221 3.64597 11.8104 3.54209 11.9039 3.42783C12.0597 3.24086 12.2363 3.03831 12.4337 2.82017C12.9842 2.28003 13.4309 1.90608 13.7737 1.69834C14.3553 1.28284 14.9318 0.950444 15.5031 0.701148C16.6873 0.233716 17.8663 0 19.04 0Z" fill="#19173A"/>
<path d="M43.6114 0H59.4106C61.54 0 63.3785 0.332395 64.9263 0.997187C65.2379 1.12184 65.482 1.22571 65.6586 1.30881C65.9183 1.45423 66.1935 1.62562 66.4844 1.82298C67.8659 2.66436 68.8475 3.85371 69.4292 5.39105C69.7408 6.21165 69.8966 7.08419 69.8966 8.00866V8.21122C69.8966 9.32266 69.6629 10.3718 69.1955 11.3586C69.05 11.639 68.8683 11.9507 68.6501 12.2935C68.4632 12.5427 68.2398 12.8076 67.9801 13.0881C67.8555 13.2335 67.7308 13.3634 67.6062 13.4776L67.4504 13.6334L67.3257 13.7269L67.092 13.9139C66.9051 14.0489 66.6713 14.2047 66.3909 14.3813C66.3493 14.4021 66.3078 14.4281 66.2662 14.4592C65.9858 14.6046 65.7313 14.7345 65.5028 14.8487C65.3885 14.9007 65.2794 14.9526 65.1756 15.0046C64.7704 15.1708 64.3446 15.3214 63.8979 15.4564C65.1859 16.786 66.0689 17.752 66.5467 18.3545C66.8687 18.718 67.1855 19.0764 67.4971 19.4296C68.0892 20.1151 68.6553 20.754 69.1955 21.346C69.3617 21.5019 69.4603 21.6109 69.4915 21.6732H62.7605C62.3762 21.6732 62.0749 21.6317 61.8568 21.5486C61.7945 21.5174 61.7373 21.4863 61.6854 21.4551C61.6335 21.424 61.5763 21.3876 61.514 21.346C61.2959 21.2006 61.0518 20.9565 60.7817 20.6137C59.7949 19.44 58.751 18.1571 57.6499 16.7652L57.1046 16.0641C57.0734 16.0641 57.0111 16.0745 56.9176 16.0952C56.2736 16.0952 54.3363 16.1056 51.1059 16.1264H47.1483V19.6633C47.1483 20.3281 46.8626 20.889 46.2913 21.346C45.9485 21.585 45.5538 21.7044 45.1072 21.7044H41.5391V2.18135C41.5391 1.82818 41.5806 1.54772 41.6637 1.33997C41.7053 1.21532 41.778 1.0699 41.8819 0.903701C41.9546 0.799828 42.0429 0.701148 42.1468 0.607661C42.583 0.202554 43.0712 0 43.6114 0ZM47.1483 5.62476V10.5328H59.9092C60.9063 10.5328 61.6646 10.3614 62.184 10.0186C62.5579 9.77971 62.8332 9.46289 63.0098 9.06817C63.1552 8.76694 63.2279 8.42416 63.2279 8.03982C63.2279 7.28155 62.8799 6.64792 62.184 6.13894C62.0801 6.06622 61.971 6.0039 61.8568 5.95196C61.8256 5.94158 61.7945 5.92599 61.7633 5.90522C61.5763 5.81173 61.2907 5.72863 60.9063 5.65592C60.7817 5.65592 60.6103 5.64554 60.3922 5.62476H47.1483Z" fill="#19173A"/>
<path d="M80.741 0H97.4283C98.197 0 98.8047 0.332395 99.2513 0.997187C99.4487 1.33997 99.5474 1.69834 99.5474 2.07228V5.62476H80.8345C79.6296 5.62476 78.6428 6.11297 77.8741 7.08938C77.3859 7.7334 77.1418 8.45532 77.1418 9.25515V12.4493C77.1418 13.4049 77.4794 14.2463 78.1546 14.9734C78.4766 15.2746 78.7363 15.4772 78.9336 15.5811C79.1206 15.7057 79.3283 15.7992 79.5569 15.8615C79.9931 16.0173 80.3255 16.0952 80.5541 16.0952H99.5006V19.6945C99.5006 20.2658 99.2461 20.7851 98.7371 21.2526C98.3424 21.5538 97.9062 21.7044 97.4283 21.7044H80.7099C78.7986 21.7044 77.012 21.1175 75.35 19.9438C75.0695 19.7464 74.6748 19.4088 74.1658 18.931C73.6361 18.3597 73.2777 17.913 73.0907 17.591C72.7791 17.1132 72.5454 16.6977 72.3896 16.3445C71.8079 15.1396 71.517 13.7892 71.517 12.2935V9.42654C71.517 7.79572 71.8702 6.32591 72.5766 5.0171C72.7635 4.64315 73.018 4.21727 73.34 3.73945C73.4231 3.64597 73.5114 3.54209 73.6049 3.42783C73.7607 3.24086 73.9373 3.03831 74.1347 2.82017C74.6852 2.28003 75.1318 1.90608 75.4746 1.69834C76.0563 1.28284 76.6328 0.950444 77.2041 0.701148C78.3883 0.233716 79.5673 0 80.741 0Z" fill="#19173A"/>
<path d="M121.002 9.02143C121.034 9.03182 121.049 9.0474 121.049 9.06817V11.7481C121.049 12.361 120.732 12.8751 120.099 13.2906C119.808 13.4568 119.491 13.5399 119.148 13.5399H103.739C103.708 13.5399 103.692 13.5244 103.692 13.4932V10.86C103.692 10.1225 104.076 9.55638 104.845 9.16166C105.084 9.06817 105.375 9.02143 105.717 9.02143H121.002Z" fill="#19173A"/>
<path d="M135.914 0V19.1803C135.914 20.0736 135.498 20.8111 134.667 21.3928C134.252 21.6005 133.836 21.7044 133.421 21.7044H129.214V7.30751C129.214 7.14132 129.224 7.01667 129.245 6.93357V6.84008H125.505C125.059 6.84008 124.68 6.59598 124.368 6.10777C124.285 5.88964 124.243 5.68708 124.243 5.50011V1.66717H127.936C128.383 1.66717 128.757 1.44384 129.058 0.997187C129.183 0.78944 129.245 0.514175 129.245 0.171391V0H135.914Z" fill="#19173A"/>
</svg>
