<svg width="15" height="15" viewBox="0 0 15 15" fill="none" xmlns="http://www.w3.org/2000/svg">
    <g clip-path="url(#clip0_3530_318821)">
        <path
            d="M3.125 5.625C3.29076 5.625 3.44973 5.69085 3.56694 5.80806C3.68415 5.92527 3.75 6.08424 3.75 6.25C4.73196 6.24855 5.68561 6.57892 6.45625 7.1875H7.8125C8.64563 7.1875 9.39375 7.55 9.90875 8.125H11.875C12.4658 8.12484 13.0445 8.29215 13.5441 8.60753C14.0436 8.92291 14.4436 9.37344 14.6975 9.90687C13.2194 11.8575 10.8263 13.125 8.125 13.125C6.38125 13.125 4.90625 12.7481 3.7125 12.0887C3.66878 12.2094 3.5889 12.3136 3.48376 12.3872C3.37862 12.4608 3.25334 12.5002 3.125 12.5H1.25C1.08424 12.5 0.925268 12.4342 0.808058 12.3169C0.690848 12.1997 0.625 12.0408 0.625 11.875V6.25C0.625 6.08424 0.690848 5.92527 0.808058 5.80806C0.925268 5.69085 1.08424 5.625 1.25 5.625H3.125ZM3.75062 7.5L3.75 10.6388L3.77813 10.6588C4.9 11.4463 6.36125 11.875 8.125 11.875C10.0025 11.875 11.7494 11.1525 13.0219 9.91875L13.105 9.83563L13.03 9.77312C12.7349 9.54198 12.3771 9.40481 12.0031 9.37938L11.875 9.375H10.5556C10.6006 9.57625 10.625 9.785 10.625 10V10.625H5V9.375L9.24375 9.37437L9.2225 9.32562C9.10272 9.07534 8.91848 8.86144 8.6887 8.70591C8.45892 8.55038 8.19187 8.45882 7.915 8.44063L7.8125 8.4375H5.98125C5.69082 8.14045 5.34392 7.90449 4.96095 7.74349C4.57798 7.58249 4.16668 7.4997 3.75125 7.5H3.75062ZM2.5 6.875H1.875V11.25H2.5V6.875ZM11.25 3.125C11.7473 3.125 12.2242 3.32254 12.5758 3.67417C12.9275 4.02581 13.125 4.50272 13.125 5C13.125 5.49728 12.9275 5.97419 12.5758 6.32583C12.2242 6.67746 11.7473 6.875 11.25 6.875C10.7527 6.875 10.2758 6.67746 9.92417 6.32583C9.57254 5.97419 9.375 5.49728 9.375 5C9.375 4.50272 9.57254 4.02581 9.92417 3.67417C10.2758 3.32254 10.7527 3.125 11.25 3.125ZM11.25 4.375C11.0842 4.375 10.9253 4.44085 10.8081 4.55806C10.6908 4.67527 10.625 4.83424 10.625 5C10.625 5.16576 10.6908 5.32473 10.8081 5.44194C10.9253 5.55915 11.0842 5.625 11.25 5.625C11.4158 5.625 11.5747 5.55915 11.6919 5.44194C11.8092 5.32473 11.875 5.16576 11.875 5C11.875 4.83424 11.8092 4.67527 11.6919 4.55806C11.5747 4.44085 11.4158 4.375 11.25 4.375ZM6.875 1.25C7.37228 1.25 7.84919 1.44754 8.20083 1.79917C8.55246 2.15081 8.75 2.62772 8.75 3.125C8.75 3.62228 8.55246 4.09919 8.20083 4.45083C7.84919 4.80246 7.37228 5 6.875 5C6.37772 5 5.90081 4.80246 5.54917 4.45083C5.19754 4.09919 5 3.62228 5 3.125C5 2.62772 5.19754 2.15081 5.54917 1.79917C5.90081 1.44754 6.37772 1.25 6.875 1.25ZM6.875 2.5C6.70924 2.5 6.55027 2.56585 6.43306 2.68306C6.31585 2.80027 6.25 2.95924 6.25 3.125C6.25 3.29076 6.31585 3.44973 6.43306 3.56694C6.55027 3.68415 6.70924 3.75 6.875 3.75C7.04076 3.75 7.19973 3.68415 7.31694 3.56694C7.43415 3.44973 7.5 3.29076 7.5 3.125C7.5 2.95924 7.43415 2.80027 7.31694 2.68306C7.19973 2.56585 7.04076 2.5 6.875 2.5Z" />
    </g>
    <defs>
        <clipPath id="clip0_3530_318821">
            <rect width="15" height="15" fill="white" />
        </clipPath>
    </defs>
</svg>