<svg width="17" height="4" viewBox="0 0 17 4" fill="none" xmlns="http://www.w3.org/2000/svg">
<path d="M4.17432 2C4.17432 3.10457 3.27889 4 2.17432 4C1.06975 4 0.174316 3.10457 0.174316 2C0.174316 0.895431 1.06975 -1.90812e-09 2.17432 -4.26191e-09C3.27889 -6.6157e-09 4.17432 0.895431 4.17432 2Z" />
<path d="M10.1743 2C10.1743 3.10457 9.27889 4 8.17432 4C7.06975 4 6.17432 3.10457 6.17432 2C6.17432 0.895431 7.06975 -1.46939e-08 8.17432 -1.70476e-08C9.27889 -1.94014e-08 10.1743 0.895431 10.1743 2Z"/>
<path d="M14.1743 4C15.2789 4 16.1743 3.10457 16.1743 2C16.1743 0.895431 15.2789 -3.21872e-08 14.1743 -2.98334e-08C13.0697 -2.74796e-08 12.1743 0.895431 12.1743 2C12.1743 3.10457 13.0697 4 14.1743 4Z"/>
</svg>
