<svg width="18" height="20" viewBox="0 0 18 20" fill="none" xmlns="http://www.w3.org/2000/svg">
  <g clip-path="url(#clip0_5411_455953)">
    <path
      d="M12.0352 5.74651C12.0352 6.4095 12.2482 7.07248 12.7807 7.51447C13.2068 7.95646 13.8458 8.28795 14.4849 8.28795C15.1239 8.28795 15.763 8.06696 16.189 7.51447C16.615 7.07248 16.9346 6.4095 16.9346 5.74651C16.9346 5.08353 16.615 4.42055 16.189 3.97856C15.763 3.53657 15.1239 3.20508 14.4849 3.20508C13.8458 3.20508 13.2068 3.53657 12.7807 3.97856C12.3547 4.42055 12.0352 5.08353 12.0352 5.74651ZM13.9523 5.08353C14.0588 4.97303 14.2718 4.86254 14.4849 4.86254C14.6979 4.86254 14.9109 4.97303 15.0174 5.08353C15.1239 5.19403 15.2304 5.41502 15.2304 5.63602C15.2304 5.85701 15.1239 6.07801 15.0174 6.1885C14.9109 6.299 14.6979 6.4095 14.4849 6.4095C14.2718 6.4095 14.0588 6.299 13.9523 6.1885C13.8458 6.07801 13.7393 5.85701 13.7393 5.63602C13.7393 5.41502 13.7393 5.30453 13.9523 5.08353Z"
       />
    <path
      d="M6.81585 5.19308C7.45491 5.19308 8.09396 4.97208 8.51999 4.5301C8.94603 4.08811 9.26556 3.42512 9.26556 2.76214C9.26556 2.09916 9.05254 1.43617 8.51999 0.994184C8.09396 0.552195 7.45491 0.220703 6.81585 0.220703C6.1768 0.220703 5.64425 0.552195 5.21822 0.994184C4.79218 1.43617 4.47266 2.09916 4.47266 2.76214C4.47266 3.42512 4.68567 4.08811 5.21822 4.5301C5.64425 4.97208 6.1768 5.19308 6.81585 5.19308ZM6.28331 2.09916C6.38982 1.98866 6.60283 1.87816 6.81585 1.87816C7.02887 1.87816 7.24189 1.98866 7.4549 2.09916C7.56141 2.20965 7.66792 2.43065 7.66792 2.65164C7.66792 2.87264 7.56141 3.20413 7.4549 3.31463C7.24189 3.42512 7.02887 3.53562 6.81585 3.53562C6.60283 3.53562 6.49633 3.42512 6.28331 3.31463C6.1768 3.20413 6.07029 2.98313 6.07029 2.76214C6.07029 2.54115 6.1768 2.32015 6.28331 2.09916Z"
       />
    <path
      d="M16.5082 10.0548C15.8692 9.61279 15.1236 9.39179 14.378 9.39179H11.8218C11.5023 9.0603 11.1828 8.72881 10.7567 8.50781L10.1177 10.1653C10.2242 10.1653 10.2242 10.1653 10.3307 10.2758C10.6502 10.4968 10.8632 10.7178 10.9697 11.0492V11.1597H9.69164L8.94608 12.8172H12.7804V11.9332C12.7804 11.6017 12.7804 11.3807 12.6739 11.0492H14.378H14.591C15.0171 11.0492 15.5496 11.2702 15.8692 11.6017L15.9757 11.7122L15.8692 11.8227C14.165 13.4802 12.0348 14.3642 9.58513 14.3642C9.15909 14.3642 8.73306 14.3642 8.30702 14.2537L7.66797 15.8006C8.30702 15.9111 8.94608 15.9111 9.58513 15.9111C12.9934 15.9111 16.0822 14.2537 17.9993 11.6017C17.6798 11.0492 17.1473 10.4968 16.5082 10.0548Z"
       />
    <path
      d="M3.94083 14.6969C4.15385 14.8074 4.36686 14.9179 4.57988 15.0284L5.21894 13.4814C4.7929 13.2604 4.47337 13.0395 4.04734 12.8185V8.61956C4.57988 8.61956 5.11243 8.73006 5.64497 8.95105C5.9645 9.17205 6.39053 9.39304 6.81657 9.83503L7.45562 8.17757C6.49704 7.40409 5.21894 6.9621 4.04734 6.9621C4.04734 6.74111 3.94083 6.52011 3.83432 6.40962C3.6213 6.18862 3.40828 6.07812 3.19527 6.07812H0.852071C0.639053 6.07812 0.426036 6.18862 0.319527 6.29912C0.106509 6.52011 0 6.74111 0 6.9621V14.3654C0 14.5864 0.106509 14.8074 0.213018 14.9179C0.319527 15.0284 0.532544 15.1389 0.745562 15.1389H3.19527C3.40828 15.1389 3.51479 15.1389 3.6213 15.0284C3.83432 15.0284 3.94083 14.8074 3.94083 14.6969ZM2.3432 13.5919H1.59763V7.73558H2.4497V13.5919H2.3432Z"
       />
    <path d="M11.503 0L3.19531 19.116L5.11247 20L13.4202 0.883978L11.503 0Z"  />
  </g>
  <defs>
    <clipPath id="clip0_5411_455953">
      <rect width="18" height="20" fill="white" />
    </clipPath>
  </defs>
</svg>