<svg width="49" height="54" viewBox="0 0 49 54" fill="none" xmlns="http://www.w3.org/2000/svg">
<path d="M39.5651 45.0215L39.3457 6.74109L44.2021 0.188965H9.99999C4.47714 0.188965 0 4.66612 0 10.189V48.0381C0 51.3307 2.64843 54.0001 5.915 54.0001H33.6501C36.9167 54.0001 39.5651 51.3307 39.5651 48.0381V45.0215Z" fill="#00B7F9"/>
<path d="M44.2618 14.9963H28.9169V9.46005C28.9169 8.56658 27.8202 8.14817 27.2347 8.81873L18.1329 19.2152C17.5854 19.8419 18.0259 20.8267 18.8543 20.8267H23.4243H27.9562H44.2618C44.6915 20.8267 45.0413 20.4759 45.0413 20.041V15.7801C45.0413 15.3471 44.6915 14.9963 44.2618 14.9963Z" fill="#0096E2"/>
<path d="M18.6701 29.6405H34.015V35.1767C34.015 36.0702 35.1118 36.4886 35.6973 35.818L44.7991 25.4216C45.3465 24.7949 44.906 23.8101 44.0776 23.8101H39.5077H34.9758H18.6701C18.2405 23.8101 17.8906 24.1609 17.8906 24.5957V28.8566C17.8924 29.2878 18.2405 29.6405 18.6701 29.6405Z" fill="#0096E2"/>
<path d="M13.5047 20.4648H5.79146C5.33464 20.4648 4.96484 20.0921 4.96484 19.6317V17.4811C4.96484 17.0207 5.33464 16.6479 5.79146 16.6479H13.5047C13.9615 16.6479 14.3313 17.0207 14.3313 17.4811V19.6317C14.3313 20.0921 13.9597 20.4648 13.5047 20.4648Z" fill="#0082C4"/>
<path d="M13.5047 28.7709H5.79146C5.33464 28.7709 4.96484 28.3981 4.96484 27.9377V25.7853C4.96484 25.3249 5.33464 24.9521 5.79146 24.9521H13.5047C13.9615 24.9521 14.3313 25.3249 14.3313 25.7853V27.9359C14.3313 28.3963 13.9597 28.7709 13.5047 28.7709Z" fill="#0082C4"/>
<path d="M22.2059 37.0772H5.79146C5.33464 37.0772 4.96484 36.7044 4.96484 36.244V34.0934C4.96484 33.633 5.33464 33.2603 5.79146 33.2603H22.2059C22.6627 33.2603 23.0325 33.633 23.0325 34.0934V36.244C23.0325 36.7026 22.6609 37.0772 22.2059 37.0772Z" fill="#0082C4"/>
<path d="M28.6883 45.0215H5.79146C5.33464 45.0215 4.96484 44.6487 4.96484 44.1883V42.0378C4.96484 41.5773 5.33464 41.2046 5.79146 41.2046H28.6883C29.1451 41.2046 29.5149 41.5773 29.5149 42.0378V44.1883C29.5149 44.6487 29.1451 45.0215 28.6883 45.0215Z" fill="#0082C4"/>
<path d="M48.8799 10.8174H39.3086V5.01262C39.3086 2.34865 41.4513 0.188965 44.0943 0.188965C46.7372 0.188965 48.8799 2.34865 48.8799 5.01262V10.8174Z" fill="#0082C4"/>
<path d="M44.338 13.9016H28.9931V8.36533C28.9931 7.47186 27.8964 7.05344 27.3109 7.724L18.209 18.1204C17.6616 18.7471 18.1021 19.732 18.9305 19.732H23.5004H28.0323H44.338C44.7676 19.732 45.1175 19.3812 45.1175 18.9463V14.6854C45.1157 14.2524 44.7676 13.9016 44.338 13.9016Z" fill="white"/>
<path d="M18.7463 28.5462H34.0912V34.0825C34.0912 34.9759 35.1879 35.3944 35.7734 34.7238L44.8753 24.3274C45.4227 23.7007 44.9822 22.7158 44.1538 22.7158H39.5838H35.052H18.7463C18.3167 22.7158 17.9668 23.0666 17.9668 23.5015V27.7624C17.9668 28.1936 18.3148 28.5462 18.7463 28.5462Z" fill="white"/>
</svg>
