<svg width="27" height="26" viewBox="0 0 27 26" fill="none" xmlns="http://www.w3.org/2000/svg">
<g clip-path="url(#clip0_4630_709483)">
<path d="M4.25203 11.4322C4.31042 11.4864 4.33958 11.5194 4.37464 11.5472C6.3033 13.0165 8.23195 14.4858 10.1606 15.9551C10.2541 16.0253 10.3475 16.1191 10.4115 16.2271C11.3767 17.8778 12.3478 19.5351 13.313 21.1858C13.5921 21.668 13.8712 22.1502 14.1793 22.6889C16.621 17.1927 19.0391 11.7291 21.4867 6.21587C15.7027 7.95396 9.98913 9.68856 4.25203 11.4322ZM17.2584 8.94181C17.2642 8.94841 17.27 8.96682 17.2758 8.97342C15.0881 10.9068 12.9064 12.835 10.701 14.784C9.50873 13.8746 8.32231 12.9719 7.08916 12.0281C10.5043 10.9964 13.8784 9.96583 17.2584 8.94181ZM13.931 19.7698C13.1577 18.4432 12.4018 17.1482 11.6459 15.8532C13.8454 13.9094 16.033 11.976 18.2207 10.0426C18.2266 10.0492 18.2382 10.0624 18.25 10.0638C16.8182 13.2922 15.3806 16.514 13.931 19.7698Z" fill="white"/>
<path d="M10.1906 19.1261L7.23047 21.7422L7.93623 22.5408L10.8964 19.9247L10.1906 19.1261Z" fill="white"/>
<path d="M9.16718 16.4225L6.20703 19.0386L6.9128 19.8372L9.87295 17.2211L9.16718 16.4225Z" fill="white"/>
<path d="M6.69648 15.1727L3.73633 17.7888L4.44209 18.5874L7.40225 15.9713L6.69648 15.1727Z" fill="white"/>
</g>
<defs>
<clipPath id="clip0_4630_709483">
<rect width="20.9643" height="15" fill="white" transform="translate(0.808594 14.4756) rotate(-41.469)"/>
</clipPath>
</defs>
</svg>
