<svg width="399" height="399" viewBox="0 0 399 399" fill="none" xmlns="http://www.w3.org/2000/svg">
<circle cx="199.5" cy="199.5" r="199.5" fill="#33B2EF"/>
<path d="M57.5479 199.478C57.5479 277.891 121.108 341.452 199.477 341.452C277.847 341.452 341.452 277.891 341.452 199.522C341.452 121.153 277.891 57.5481 199.477 57.5481C121.064 57.5481 57.5479 121.064 57.5479 199.478ZM120.618 199.478C120.618 155.944 155.944 120.618 199.477 120.618C243.011 120.618 278.337 155.944 278.337 199.478C278.337 243.011 243.011 278.337 199.477 278.337C155.899 278.337 120.618 243.011 120.618 199.478Z" fill="url(#paint0_linear_805_40488)"/>
<path d="M281.968 84.1396C346.722 128.745 362.463 216.533 317.118 280.261C307.548 293.736 295.652 305.432 281.968 314.86L245.254 263.228C281.029 238.591 289.705 190.072 264.662 154.895C259.385 147.468 252.811 140.975 245.254 135.772L281.968 84.1396Z" fill="url(#paint1_linear_805_40488)"/>
<path d="M199.892 278.102C243.518 278.102 278.884 242.911 278.884 199.5C278.884 156.09 243.518 120.899 199.892 120.899C156.266 120.899 120.899 156.09 120.899 199.5C120.899 242.911 156.266 278.102 199.892 278.102Z" fill="#191919"/>
<defs>
<linearGradient id="paint0_linear_805_40488" x1="199.709" y1="336.604" x2="199.164" y2="-20.848" gradientUnits="userSpaceOnUse">
<stop stop-color="#FFBB53"/>
<stop offset="1" stop-color="#FF642B"/>
</linearGradient>
<linearGradient id="paint1_linear_805_40488" x1="241.588" y1="-1.8402" x2="313.622" y2="310.324" gradientUnits="userSpaceOnUse">
<stop stop-color="#5B0A9B"/>
<stop offset="1" stop-color="#FD2B7E"/>
</linearGradient>
</defs>
</svg>
