<svg width="208" height="208" viewBox="0 0 208 208" fill="none" xmlns="http://www.w3.org/2000/svg">
<rect x="14.8594" y="16.2075" width="178.286" height="175.584" rx="7" fill="white"/>
<g clip-path="url(#clip0_332_47340)">
<path d="M144.999 114.167C147.803 114.167 150.609 114.167 153.514 114.167C153.514 109.297 153.514 104.46 153.514 99.6226L153.49 99.652C156.059 99.652 158.628 99.652 161.279 99.652C161.279 102.02 161.279 104.38 161.279 106.833C168.01 106.833 174.66 106.833 181.393 106.833C181.393 111.613 181.393 116.299 181.393 121.058C178.871 121.058 176.344 121.058 173.717 121.058C173.717 118.795 173.717 116.557 173.717 114.258C169.549 114.258 165.48 114.258 161.319 114.258C161.319 118.979 161.319 123.646 161.319 128.447C158.761 128.447 156.29 128.447 153.773 128.447C153.773 130.792 153.773 133.003 153.773 135.282C160.356 135.282 166.886 135.282 173.512 135.282C173.512 132.951 173.512 130.653 173.512 128.287C176.251 128.287 178.897 128.287 181.613 128.287C181.613 135.593 181.613 142.86 181.613 150.218C178.956 150.218 176.312 150.218 173.567 150.218C173.567 147.767 173.567 145.295 173.567 142.744C169.579 142.744 165.686 142.744 161.74 142.744C161.74 150.509 161.74 158.243 161.74 166.094C164.381 166.094 167.001 166.094 169.713 166.094C169.713 168.478 169.713 170.746 169.713 173.108C173.646 173.108 177.486 173.108 181.402 173.108C181.402 175.584 181.402 177.965 181.402 180.426C174.841 180.426 168.279 180.426 161.631 180.426C161.631 175.701 161.631 171.003 161.631 166.231C156.315 166.231 151.084 166.231 145.78 166.231C145.78 168.485 145.78 170.75 145.78 173.133C148.489 173.133 151.194 173.133 153.961 173.133C153.961 175.63 153.961 178.01 153.961 180.449C148.484 180.449 143.051 180.449 137.514 180.449C137.514 178.13 137.514 175.863 137.514 173.535C134.844 173.535 132.277 173.535 129.584 173.535C129.584 175.814 129.584 178.109 129.584 180.452C126.95 180.452 124.44 180.452 121.822 180.452C121.822 175.285 121.822 170.158 121.822 164.983C112.103 164.983 102.493 164.983 92.8001 164.983C92.8001 167.701 92.8001 170.37 92.8001 173.129C95.2597 173.129 97.709 173.129 100.224 173.129C100.224 175.596 100.224 177.975 100.224 180.431C95.0388 180.431 89.8707 180.431 84.6557 180.431C84.6557 170.405 84.6557 160.412 84.6557 150.325C87.2319 150.325 89.7959 150.325 92.4348 150.325C92.4348 147.852 92.4348 145.474 92.4348 143.009C89.8116 143.009 87.1867 143.009 84.4626 143.009C84.44 142.657 84.4052 142.383 84.4052 142.109C84.4017 137.919 84.4261 133.728 84.3826 129.538C84.3739 128.723 84.6748 128.6 85.388 128.605C90.1421 128.638 94.8944 128.631 99.6485 128.636C100.016 128.636 100.384 128.636 100.795 128.636C100.795 123.795 100.795 119.067 100.795 114.204C99.9234 114.204 99.0919 114.202 98.2604 114.204C96.5504 114.207 94.8388 114.237 93.1306 114.206C92.5252 114.195 92.3217 114.383 92.3321 114.99C92.3652 116.809 92.3478 118.63 92.3495 120.451C92.3495 120.765 92.3495 121.081 92.3495 121.473C89.6985 121.473 87.1136 121.473 84.4139 121.473C84.4139 119.065 84.4139 116.682 84.4139 114.218C82.8396 114.218 81.3732 114.218 79.7572 114.218C79.7572 111.718 79.7572 109.302 79.7572 106.886L79.7363 106.907C83.5319 106.898 87.3293 106.892 91.1249 106.883C91.4641 106.883 91.8033 106.883 92.2434 106.883C92.2434 101.974 92.2434 97.1649 92.2434 92.3154C94.9988 92.3154 97.6533 92.3154 100.306 92.3154L100.29 92.2998C100.311 95.5033 100.336 98.7068 100.353 101.91C100.362 103.523 100.355 105.135 100.355 106.886C103.246 106.886 106.043 106.886 108.842 106.886L108.816 106.864C108.816 114.077 108.816 121.292 108.816 128.57C110.592 128.57 112.279 128.57 114.062 128.57C114.062 126.066 114.062 123.627 114.062 121.173C116.687 121.173 119.215 121.173 121.756 121.173C121.756 126.142 121.756 131.035 121.756 136.018C114.565 136.018 107.452 136.018 100.344 136.018C100.344 138.375 100.344 140.638 100.344 143.002C104.945 143.002 109.477 143.002 114.02 143.002C114.02 145.462 114.02 147.821 114.02 150.292C106.916 150.292 99.8659 150.292 92.7096 150.292C92.7096 152.649 92.6957 154.897 92.7374 157.141C92.7409 157.306 93.1358 157.596 93.355 157.601C94.5709 157.636 95.7885 157.592 97.0045 157.592C104.945 157.594 112.886 157.601 120.825 157.603C121.131 157.603 121.438 157.575 121.822 157.556C121.822 152.769 121.822 148.072 121.822 143.334C124.433 143.334 126.962 143.334 129.582 143.334C129.582 150.949 129.582 158.505 129.582 166.074C132.263 166.074 134.849 166.074 137.516 166.074C137.516 163.637 137.516 161.28 137.516 158.827C142.881 158.827 148.167 158.827 153.485 158.827C153.485 153.612 153.485 148.49 153.485 143.287C150.602 143.287 147.796 143.287 144.991 143.287L145.01 143.302C145.01 138.373 145.01 133.444 145.01 128.364C142.491 128.364 140.096 128.364 137.699 128.364L137.716 128.381C137.716 125.977 137.716 123.572 137.716 121.064C140.16 121.064 142.543 121.064 145.015 121.064C145.015 118.687 145.015 116.415 145.015 114.143L144.999 114.167Z" fill="black"/>
<path d="M24.9277 26.0239C42.2202 26.0239 59.4814 26.0239 76.8034 26.0239C76.8034 43.2901 76.8034 60.5026 76.8034 77.7844C59.5318 77.7844 42.2724 77.7844 24.9277 77.7844C24.9277 60.5408 24.9277 43.3127 24.9277 26.0239ZM32.2702 70.4149C44.7129 70.4149 57.0913 70.4149 69.4627 70.4149C69.4627 58.0293 69.4627 45.7288 69.4627 33.3658C57.0426 33.3658 44.6816 33.3658 32.2702 33.3658C32.2702 45.7288 32.2702 58.0501 32.2702 70.4149Z" fill="black"/>
<path d="M24.8867 180.454C24.8867 163.172 24.8867 145.987 24.8867 128.71C42.1896 128.71 59.4647 128.71 76.8041 128.71C76.8041 145.939 76.8041 163.168 76.8041 180.454C59.5082 180.454 42.2522 180.454 24.8867 180.454ZM69.4564 173.117C69.4564 160.698 69.4564 148.375 69.4564 136.045C57.0346 136.045 44.6754 136.045 32.2744 136.045C32.2744 148.434 32.2744 160.756 32.2744 173.117C44.6823 173.117 57.0207 173.117 69.4564 173.117Z" fill="black"/>
<path d="M129.504 77.7671C129.504 60.5234 129.504 43.3075 129.504 26.0256C146.793 26.0256 164.054 26.0256 181.399 26.0256C181.399 43.2624 181.399 60.4696 181.399 77.7671C164.12 77.7671 146.838 77.7671 129.504 77.7671ZM136.846 70.4183C149.3 70.4183 161.659 70.4183 174.03 70.4183C174.03 58.0154 174.03 45.6958 174.03 33.3831C161.601 33.3831 149.242 33.3831 136.846 33.3831C136.846 45.7634 136.846 58.064 136.846 70.4183Z" fill="black"/>
<path d="M153.516 99.6225C150.856 99.6225 148.198 99.6225 145.446 99.6225C145.446 97.1562 145.446 94.7974 145.446 92.3553C142.888 92.3553 140.421 92.3553 137.86 92.3553C137.86 94.7367 137.86 97.092 137.86 99.5167C135.124 99.5167 132.478 99.5167 129.749 99.5167C129.749 97.1423 129.749 94.7852 129.749 92.3102C124.503 92.3102 119.338 92.3102 114.066 92.3102C114.066 84.8712 114.066 77.552 114.066 70.146C111.448 70.146 108.939 70.146 106.361 70.146C106.361 67.6501 106.361 65.241 106.361 62.7365C108.927 62.7365 111.437 62.7365 114.04 62.7365C114.04 59.507 114.04 56.3729 114.04 53.1729C116.663 53.1729 119.194 53.1729 121.838 53.1729C121.838 63.7459 121.838 74.2756 121.838 84.9111C129.907 84.9111 137.864 84.9111 145.928 84.9111C145.928 87.3966 145.928 89.7762 145.928 92.2391C148.489 92.2391 150.94 92.2391 153.493 92.2391C153.493 94.7644 153.493 97.2065 153.492 99.6503C153.492 99.652 153.516 99.6225 153.516 99.6225Z" fill="black"/>
<path d="M49.8379 99.6156C52.9934 99.6017 56.1488 99.5844 59.3043 99.574C61.477 99.567 63.6496 99.574 65.8222 99.5688C66.0466 99.5688 66.2728 99.5393 66.5528 99.5202C66.5528 97.1215 66.5528 94.7661 66.5528 92.2703C65.8083 92.2703 65.069 92.2703 64.328 92.2703C62.879 92.2703 61.43 92.2512 59.9827 92.279C59.4487 92.2894 59.2765 92.1038 59.2834 91.58C59.3078 89.5576 59.3182 87.5353 59.2886 85.5147C59.28 84.8799 59.6418 84.9059 60.0697 84.9059C64.5594 84.9146 69.0508 84.9198 73.5405 84.925C74.6068 84.9267 75.6731 84.925 76.842 84.925C76.842 87.3775 76.842 89.7571 76.842 92.2339C79.4183 92.2339 81.8936 92.2339 84.4402 92.2339C84.4402 94.7089 84.4402 97.0851 84.4402 99.567C82.9216 99.567 81.4291 99.567 79.7418 99.567C79.7418 102.08 79.7418 104.493 79.7418 106.907C79.7418 106.907 79.7627 106.886 79.7609 106.886C75.1008 106.886 70.4406 106.886 65.7109 106.886C65.7109 109.334 65.7109 111.71 65.7109 114.187C67.8575 114.187 69.9849 114.187 72.1819 114.187C72.1819 116.667 72.1819 119.046 72.1819 121.488C67.4209 121.488 62.7137 121.488 57.9162 121.488C57.9162 116.649 57.9162 111.842 57.9162 106.931C55.2095 106.931 52.5898 106.931 49.8588 106.931C49.8588 104.42 49.8588 102.006 49.8588 99.593L49.8379 99.6156Z" fill="black"/>
<path d="M92.2207 70.1356C94.5273 70.1356 96.773 70.1356 99.0743 70.1356C99.0743 72.6158 99.0743 74.9989 99.0743 77.4774C96.7747 77.4774 94.5255 77.4774 92.1911 77.4774C92.1911 79.9837 92.1911 82.398 92.1911 84.8869C89.5749 84.8869 87.0474 84.8869 84.459 84.8869C84.459 70.0489 84.459 55.2386 84.459 40.3555C91.4936 40.3555 98.4916 40.3555 105.556 40.3555C105.556 42.7368 105.556 45.1234 105.556 47.6505C105.258 47.6505 104.954 47.6505 104.651 47.6505C100.769 47.6557 96.8843 47.673 93.0017 47.6522C92.3651 47.6487 92.1563 47.8204 92.1581 48.4795C92.1789 55.386 92.1685 62.2925 92.1685 69.199C92.1702 69.48 92.1998 69.7609 92.2207 70.1356Z" fill="black"/>
<path d="M108.845 106.888C108.845 104.494 108.845 102.101 108.845 99.6328C115.675 99.6328 122.499 99.6328 129.436 99.6328C129.436 102.006 129.436 104.385 129.436 106.853C134.662 106.853 139.777 106.853 144.999 106.853C144.999 109.351 144.999 111.76 144.999 114.169L145.019 114.152C144.848 114.174 144.678 114.216 144.507 114.216C137.561 114.216 130.614 114.212 123.668 114.209C123.073 114.209 122.478 114.209 121.775 114.209C121.775 111.691 121.775 109.313 121.775 106.865C117.383 106.865 113.1 106.865 108.819 106.865L108.845 106.888Z" fill="black"/>
<path d="M32.6498 121.442C32.3889 121.49 32.2236 121.546 32.0567 121.546C29.884 121.553 27.7114 121.544 25.5387 121.554C25.1021 121.556 24.8342 121.488 24.8359 120.951C24.8551 114.452 24.8586 107.953 24.8707 101.456C24.8707 101.404 24.9125 101.354 24.9629 101.237C27.4643 101.237 29.9936 101.237 32.6203 101.237C32.6203 103.116 32.6203 104.947 32.6203 106.866C35.8018 106.866 38.886 106.866 42.0901 106.866C42.0901 109.328 42.0901 111.706 42.0901 114.171C44.7742 114.171 47.34 114.171 49.9736 114.171C49.9736 116.639 49.9736 119.019 49.9736 121.476C47.3156 121.476 44.6472 121.476 41.8971 121.476C41.8971 119.065 41.8971 116.707 41.8971 114.275C38.7955 114.275 35.774 114.275 32.6516 114.275C32.6498 116.665 32.6498 119.046 32.6498 121.442Z" fill="black"/>
<path d="M100.141 33.357C100.141 30.823 100.141 28.4624 100.141 26.0325C107.36 26.0325 114.532 26.0325 121.775 26.0325C121.775 33.1922 121.775 40.3398 121.775 47.5775C119.227 47.5775 116.696 47.5775 114.081 47.5775C114.081 42.8738 114.081 38.1752 114.081 33.3587C109.412 33.357 104.823 33.357 100.141 33.357Z" fill="black"/>
<path d="M49.8573 99.5946C47.3107 99.5946 44.7623 99.5946 42.0974 99.5946C42.0974 97.1543 42.0974 94.7747 42.0974 92.3049C36.317 92.3049 30.6549 92.3049 24.918 92.3049C24.918 89.8316 24.918 87.4502 24.918 84.9873C33.1893 84.9873 41.4572 84.9873 49.8399 84.9873C49.8399 89.8784 49.8399 94.7469 49.8399 99.6137C49.8382 99.6155 49.8573 99.5946 49.8573 99.5946Z" fill="black"/>
<path d="M161.353 84.9526C168.062 84.9526 174.688 84.9526 181.399 84.9526C181.399 89.8229 181.399 94.6498 181.399 99.534C178.741 99.534 176.118 99.534 173.378 99.534C173.378 97.1387 173.378 94.7626 173.378 92.2823C169.313 92.2823 165.362 92.2823 161.353 92.2823C161.353 89.7934 161.353 87.4103 161.353 84.9526Z" fill="black"/>
<path d="M100.312 92.317C100.312 89.8992 100.312 87.4814 100.312 84.9873C103.06 84.9873 105.702 84.9873 108.412 84.9873C108.412 87.3791 108.412 89.7552 108.412 92.3014C105.706 92.3014 103.001 92.3014 100.296 92.3014C100.296 92.2996 100.312 92.317 100.312 92.317Z" fill="black"/>
<path d="M114.87 180.447C112.188 180.447 109.542 180.447 106.837 180.447C106.837 178.012 106.837 175.634 106.837 173.198C109.526 173.198 112.169 173.198 114.87 173.198C114.87 175.634 114.87 178.012 114.87 180.447Z" fill="black"/>
<path d="M181.417 157.665C181.417 160.114 181.417 162.492 181.417 164.906C178.726 164.906 176.101 164.906 173.406 164.906C173.406 162.48 173.406 160.102 173.406 157.665C176.066 157.665 178.712 157.665 181.417 157.665Z" fill="black"/>
<path d="M106.161 60.3933C103.462 60.3933 100.837 60.3933 98.1543 60.3933C98.1543 57.9616 98.1543 55.582 98.1543 53.1555C100.847 53.1555 103.47 53.1555 106.161 53.1555C106.161 55.5594 106.161 57.9373 106.161 60.3933Z" fill="black"/>
<path d="M92.1746 26.0151C92.1746 28.4485 92.1746 30.8316 92.1746 33.2668C89.5914 33.2668 87.0604 33.2668 84.4668 33.2668C84.4668 30.8282 84.4668 28.4451 84.4668 26.0151C87.0465 26.0151 89.5827 26.0151 92.1746 26.0151Z" fill="black"/>
<path d="M108.819 106.865C113.1 106.865 117.381 106.865 121.775 106.865C121.775 109.313 121.775 111.689 121.775 114.209C122.478 114.209 123.073 114.209 123.668 114.209C130.614 114.213 137.561 114.216 144.507 114.216C144.678 114.216 144.848 114.174 145.018 114.152C145.018 116.424 145.018 118.696 145.018 121.072C142.547 121.072 140.164 121.072 137.72 121.072C137.72 123.58 137.72 125.984 137.72 128.39C135.126 128.39 132.532 128.39 129.933 128.39C129.933 130.938 129.933 133.315 129.933 135.711C132.524 135.711 135.051 135.711 137.702 135.711C137.702 133.21 137.702 130.79 137.702 128.372C140.099 128.372 142.496 128.372 145.013 128.372C145.013 133.453 145.013 138.382 145.013 143.311C142.568 143.311 140.122 143.311 137.634 143.311C137.634 145.786 137.634 148.16 137.634 150.531C140.144 150.531 142.583 150.531 144.994 150.531C144.994 148.065 144.994 145.68 144.994 143.295C147.8 143.295 150.606 143.295 153.488 143.295C153.488 148.499 153.488 153.62 153.488 158.836C148.169 158.836 142.882 158.836 137.519 158.836C137.519 161.287 137.519 163.645 137.519 166.082C134.855 166.082 132.266 166.082 129.586 166.082C129.586 158.513 129.586 150.958 129.586 143.342C126.966 143.342 124.437 143.342 121.826 143.342C121.826 148.081 121.826 152.777 121.826 157.565C121.443 157.584 121.135 157.611 120.829 157.611C112.888 157.61 104.947 157.603 97.008 157.601C95.7904 157.601 94.5744 157.644 93.3585 157.61C93.1393 157.603 92.7445 157.313 92.741 157.15C92.6992 154.904 92.7132 152.658 92.7132 150.301C99.8695 150.301 106.92 150.301 114.024 150.301C114.024 147.829 114.024 145.47 114.024 143.011C109.48 143.011 104.949 143.011 100.348 143.011C100.348 140.647 100.348 138.383 100.348 136.026C107.457 136.026 114.568 136.026 121.76 136.026C121.76 131.043 121.76 126.151 121.76 121.181C119.216 121.181 116.689 121.181 114.066 121.181C114.066 123.634 114.066 126.074 114.066 128.579C112.283 128.579 110.595 128.579 108.819 128.579C108.819 121.294 108.819 114.079 108.819 106.865Z" fill="white"/>
<path d="M32.2705 70.4148C32.2705 58.0518 32.2705 45.7287 32.2705 33.3657C44.6819 33.3657 57.0429 33.3657 69.463 33.3657C69.463 45.7287 69.463 58.0293 69.463 70.4148C57.0898 70.4148 44.7115 70.4148 32.2705 70.4148ZM38.9641 63.7598C46.9189 63.7598 54.8093 63.7598 62.7432 63.7598C62.7432 55.8213 62.7432 47.9505 62.7432 40.0467C54.7937 40.0467 46.9033 40.0467 38.9641 40.0467C38.9641 47.9661 38.9641 55.8144 38.9641 63.7598Z" fill="white"/>
<path d="M69.4564 173.117C57.0207 173.117 44.6806 173.117 32.2744 173.117C32.2744 160.756 32.2744 148.434 32.2744 136.045C44.6754 136.045 57.0363 136.045 69.4564 136.045C69.4564 148.377 69.4564 160.7 69.4564 173.117ZM38.9594 166.412C46.9594 166.412 54.8428 166.412 62.7193 166.412C62.7193 158.465 62.7193 150.599 62.7193 142.719C54.7489 142.719 46.8619 142.719 38.9594 142.719C38.9594 150.646 38.9594 158.496 38.9594 166.412Z" fill="white"/>
<path d="M136.847 70.4183C136.847 58.064 136.847 45.7634 136.847 33.3831C149.244 33.3831 161.602 33.3831 174.03 33.3831C174.03 45.6958 174.03 58.0154 174.03 70.4183C161.659 70.4183 149.302 70.4183 136.847 70.4183ZM167.412 39.9964C166.978 39.9964 166.695 39.9964 166.411 39.9964C159.111 39.9912 151.81 39.9964 144.509 39.96C143.709 39.9565 143.49 40.1768 143.493 40.9729C143.523 47.9349 143.511 54.8952 143.511 61.8571C143.511 62.4815 143.511 63.1077 143.511 63.7442C143.798 63.7772 143.939 63.8084 144.078 63.8084C151.61 63.8153 159.144 63.8136 166.676 63.8396C167.34 63.8413 167.42 63.5569 167.419 63.0088C167.406 56.3937 167.41 49.7786 167.41 43.1635C167.412 42.1541 167.412 41.1481 167.412 39.9964Z" fill="white"/>
<path d="M137.704 128.371C137.704 130.79 137.704 133.21 137.704 135.709C135.053 135.709 132.526 135.709 129.936 135.709C129.936 133.314 129.936 130.934 129.936 128.388C132.534 128.388 135.128 128.388 137.722 128.388L137.704 128.371Z" fill="black"/>
<path d="M144.996 143.292C144.996 145.677 144.996 148.063 144.996 150.528C142.585 150.528 140.148 150.528 137.636 150.528C137.636 148.157 137.636 145.783 137.636 143.308C140.123 143.308 142.569 143.308 145.015 143.308L144.996 143.292Z" fill="black"/>
<path d="M38.9639 63.7597C38.9639 55.8143 38.9639 47.966 38.9639 40.0466C46.9047 40.0466 54.7951 40.0466 62.743 40.0466C62.743 47.9504 62.743 55.8212 62.743 63.7597C54.8108 63.7597 46.9204 63.7597 38.9639 63.7597Z" fill="black"/>
<path d="M38.959 166.412C38.959 158.496 38.959 150.648 38.959 142.719C46.8616 142.719 54.7485 142.719 62.719 142.719C62.719 150.599 62.719 158.465 62.719 166.412C54.8442 166.412 46.959 166.412 38.959 166.412Z" fill="black"/>
<path d="M167.412 39.9964C167.412 41.1481 167.412 42.1541 167.412 43.1618C167.412 49.7769 167.406 56.392 167.42 63.0071C167.422 63.5552 167.342 63.8414 166.678 63.8379C159.146 63.8119 151.612 63.8136 144.08 63.8067C143.939 63.8067 143.8 63.7754 143.513 63.7425C143.513 63.106 143.513 62.4816 143.513 61.8554C143.513 54.8934 143.525 47.9315 143.495 40.9712C143.492 40.1751 143.711 39.9548 144.511 39.9583C151.812 39.9947 159.112 39.9878 166.413 39.9947C166.695 39.9964 166.979 39.9964 167.412 39.9964Z" fill="black"/>
</g>
<rect x="1.5" y="1.5" width="205" height="205" rx="18.5" stroke="#33B2EF" stroke-width="3"/>
<defs>
<clipPath id="clip0_332_47340">
<rect width="156.779" height="154.439" fill="white" transform="translate(24.8359 26.0151)"/>
</clipPath>
</defs>
</svg>
