<svg width="24" height="24" viewBox="0 0 24 24" fill="none" xmlns="http://www.w3.org/2000/svg">
<path fill-rule="evenodd" clip-rule="evenodd" d="M16 7.00049C16 9.20963 14.2091 11.0005 12 11.0005C9.79086 11.0005 8 9.20963 8 7.00049C8 4.79135 9.79086 3.00049 12 3.00049C14.2091 3.00049 16 4.79135 16 7.00049ZM14 7.00049C14 8.10506 13.1046 9.00049 12 9.00049C10.8954 9.00049 10 8.10506 10 7.00049C10 5.89592 10.8954 5.00049 12 5.00049C13.1046 5.00049 14 5.89592 14 7.00049Z" fill="#33B2EF"/>
<path d="M16 15.0005C16 14.4482 15.5523 14.0005 15 14.0005H9C8.44772 14.0005 8 14.4482 8 15.0005V21.0005H6V15.0005C6 13.3436 7.34315 12.0005 9 12.0005H15C16.6569 12.0005 18 13.3436 18 15.0005V21.0005H16V15.0005Z" fill="#33B2EF"/>
</svg>
