<svg width="19" height="19" viewBox="0 0 19 19" fill="none" xmlns="http://www.w3.org/2000/svg">
<g clip-path="url(#clip0_4919_237008)">
<path d="M2.10231 6.65998C1.40741 6.65998 0.721296 6.65998 0.0175926 6.65998C0.0087963 6.59123 0 6.53967 0 6.4967C0 5.74908 0 4.99286 0 4.24524C0 4.12493 0.0351852 4.05618 0.158333 4.00462C2.1287 3.15387 4.09907 2.29453 6.06944 1.44379C7.16018 0.971151 8.24213 0.489921 9.33287 0.0258776C9.42963 -0.0170894 9.57917 -0.0170894 9.67593 0.0258776C11.013 0.601635 12.35 1.18599 13.6782 1.76174C15.3231 2.475 16.9593 3.18825 18.613 3.88431C18.8944 4.00462 19.0088 4.13352 18.9912 4.44288C18.9648 5.09598 18.9824 5.74049 18.9824 6.39358C18.9824 6.46233 18.9824 6.53108 18.9824 6.6342C18.2787 6.6342 17.6014 6.6342 16.8889 6.6342C16.8801 6.73732 16.8713 6.82325 16.8713 6.90919C16.8713 10.1747 16.8713 13.4402 16.8625 16.7057C16.8625 16.8947 16.9153 16.9463 17.1088 16.9463C17.6542 16.9377 18.1907 16.9377 18.7361 16.9463C18.8065 16.9463 18.8769 16.9549 18.9648 16.9549C18.9648 17.6337 18.9648 18.304 18.9648 18.9915C12.6491 18.9915 6.34213 18.9915 0.0087963 18.9915C0.0087963 18.3212 0.0087963 17.6423 0.0087963 16.9377C0.694907 16.9377 1.38981 16.9377 2.08472 16.9377C2.10231 13.5089 2.10231 10.1059 2.10231 6.65998ZM4.22222 16.9291C7.75833 16.9291 11.2505 16.9291 14.7602 16.9291C14.769 16.8517 14.769 16.7916 14.769 16.7228C14.769 15.6573 14.769 14.5917 14.769 13.5261C14.769 10.6129 14.769 7.69978 14.769 4.77803C14.769 4.70068 14.8042 4.61475 14.8218 4.51163C14.2676 4.27102 13.6694 4.01321 13.0801 3.75541C11.9718 3.28277 10.8634 2.80154 9.76389 2.32031C9.58796 2.24297 9.42963 2.22579 9.2537 2.31172C8.86667 2.50078 8.47083 2.66405 8.075 2.83592C6.76435 3.39449 5.4537 3.96165 4.16944 4.52022C4.18704 4.62334 4.22222 4.71787 4.22222 4.80381C4.22222 8.26694 4.22222 11.7387 4.22222 15.2018C4.22222 15.7776 4.22222 16.3447 4.22222 16.9291Z" fill="#33B2EF"/>
<path d="M9.18409 4.6402C9.18409 4.22772 9.19289 3.82383 9.18409 3.41994C9.17529 3.24807 9.23687 3.17932 9.42159 3.18792C9.6327 3.2051 9.84381 3.19651 10.0549 3.18792C10.2133 3.17932 10.2572 3.23088 10.2572 3.38557C10.2484 3.81524 10.2572 4.24491 10.2572 4.59723C10.6707 4.82066 11.0665 4.98394 11.392 5.22455C12.0869 5.73156 12.3508 6.47919 12.4563 7.28697C12.4739 7.43306 12.4915 7.58774 12.4827 7.73382C12.4827 7.78538 12.4035 7.87991 12.3596 7.87991C11.7438 7.8885 11.1369 7.88851 10.5299 7.88851C10.4771 7.57914 10.4596 7.27837 10.3716 7.00339C10.3012 6.79714 10.1869 6.57372 10.0285 6.42763C9.70307 6.12686 9.21048 6.22139 9.01696 6.61668C8.72668 7.19244 8.65631 8.12912 9.60631 8.71347C10.0725 8.99705 10.5563 9.25486 11.0225 9.52984C11.9725 10.097 12.4563 10.922 12.4827 12.0133C12.5003 12.6235 12.4123 13.1992 12.0869 13.7234C11.6998 14.3421 11.1105 14.6859 10.398 14.8577C10.31 14.8749 10.2308 14.8921 10.1165 14.9179C10.1165 15.296 10.1077 15.6655 10.1165 16.0436C10.1253 16.2241 10.0725 16.3014 9.8702 16.2928C9.60631 16.2757 9.34242 16.2928 9.06094 16.2928C9.06094 15.8288 9.06094 15.3819 9.06094 14.9952C8.62113 14.8148 8.19891 14.7031 7.83826 14.4882C6.99381 13.9898 6.65076 13.182 6.5452 12.2625C6.47483 11.6524 6.48363 11.6524 7.10816 11.6524C7.48641 11.6524 7.87344 11.661 8.25168 11.6524C8.4452 11.6438 8.51557 11.6954 8.52437 11.9016C8.54196 12.168 8.58594 12.443 8.6739 12.7008C8.82344 13.1563 9.17529 13.3711 9.6415 13.3367C10.0549 13.3109 10.3364 13.0445 10.442 12.5805C10.6179 11.8157 10.3188 11.1368 9.61511 10.7415C9.21928 10.5181 8.82344 10.3118 8.41881 10.1056C7.18733 9.47828 6.74752 8.44708 6.85307 7.14947C6.95863 5.8175 7.70631 5.00112 9.03455 4.69176C9.07853 4.68317 9.12252 4.66598 9.18409 4.6402Z" fill="#33B2EF"/>
</g>
<defs>
<clipPath id="clip0_4919_237008">
<rect width="19" height="19" fill="white"/>
</clipPath>
</defs>
</svg>
