<svg width="12" height="13" viewBox="0 0 12 13" xmlns="http://www.w3.org/2000/svg">
<g>
<path d="M9.79443 0C9.79189 0.0423956 9.78705 0.0847911 9.78705 0.127187C9.78679 3.30401 9.78679 6.48084 9.78679 9.65766C9.78679 9.69911 9.78679 9.74032 9.78679 9.78177C9.79596 9.78603 9.80513 9.7903 9.8143 9.7948C10.1428 9.47624 10.4715 9.15768 10.8184 8.82159C11.1171 9.11836 11.4058 9.40518 11.7112 9.70858C10.868 10.4933 10.006 11.2957 9.14279 12.0991C8.27674 11.286 7.41756 10.4793 6.56934 9.683C6.85225 9.41655 7.15044 9.13589 7.46544 8.83936C7.7896 9.14726 8.12191 9.46274 8.46289 9.78674C8.46594 9.75737 8.4718 9.72895 8.4718 9.70053C8.47231 6.49529 8.47231 3.29004 8.4718 0.0845543C8.4718 0.0563695 8.46696 0.0281848 8.46441 0C8.90775 0 9.35109 0 9.79443 0Z"/>
<path d="M2.63941 0C2.73032 0.0916597 2.8197 0.18474 2.9129 0.274268C3.02215 0.379428 3.13368 0.482457 3.24573 0.585011C3.38044 0.708172 3.51846 0.828016 3.65214 0.95236C3.76113 1.05349 3.86325 1.16126 3.97274 1.26192C4.25948 1.52553 4.55028 1.78511 4.836 2.04967C4.96409 2.16809 5.08377 2.2941 5.21975 2.42863C5.07231 2.56221 4.92589 2.69129 4.78405 2.82463C4.65978 2.94164 4.53755 3.06077 4.42092 3.18417C4.33587 3.27417 4.2936 3.27298 4.20727 3.18393C4.09472 3.06811 3.96994 2.96272 3.85281 2.85069C3.73236 2.73534 3.617 2.61526 3.49554 2.50063C3.43468 2.44331 3.36541 2.39357 3.2796 2.3237C3.2796 5.59313 3.2796 8.84338 3.2796 12.0993C2.83167 12.0993 2.40208 12.0993 1.95951 12.0993C1.95951 8.8448 1.95951 5.59527 1.95951 2.34573C1.94983 2.34052 1.94015 2.33555 1.93048 2.33033C1.60173 2.64581 1.27323 2.96106 0.932771 3.28743C0.615736 2.99303 0.314998 2.71355 0 2.42105C0.881842 1.60487 1.74917 0.802437 2.61624 0C2.62388 0 2.63177 0 2.63941 0Z" />
</g>
</svg>
