<svg width="18" height="18" viewBox="0 0 18 18" fill="none" xmlns="http://www.w3.org/2000/svg">
<path d="M17.9172 8.92417L17.8998 8.92578H17.8823C17.8823 8.68423 17.8823 8.44267 17.8823 8.20112C17.894 8.20032 17.906 8.20112 17.9177 8.20273C17.9172 8.44308 17.9172 8.68383 17.9172 8.92417Z" fill="#DDEEE2"/>
<path d="M9.49912 17.1069C9.49829 17.1182 9.49747 17.1294 9.49747 17.1407C9.25111 17.1407 9.00435 17.1407 8.758 17.1407C8.758 17.1294 8.75717 17.1182 8.75635 17.1069C9.00394 17.1069 9.25153 17.1069 9.49912 17.1069Z" fill="#DFEFE4"/>
<path d="M9.49874 17.1069C9.25115 17.1069 9.00356 17.1069 8.75597 17.1069C5.36099 16.8637 2.85461 15.2741 1.27968 12.3365C0.454523 10.7984 0.174389 9.13403 0.456583 7.41985C1.03251 3.91914 3.07337 1.56068 6.50007 0.422045C10.1538 -0.791749 14.3203 0.691331 16.437 3.86006C17.3198 5.18156 17.8047 6.62606 17.8842 8.20118C17.8842 8.44273 17.8842 8.68428 17.8842 8.92584C17.6791 13.3606 14.0217 16.9124 9.49874 17.1069ZM8.1681 9.75178C8.11619 9.69109 8.07541 9.64728 8.03874 9.60026C7.60371 9.04279 7.16744 8.48533 6.7353 7.92586C6.64178 7.80489 6.53137 7.71003 6.38472 7.6602C6.04897 7.54565 5.53566 7.70119 5.32845 7.97771C5.11917 8.25745 5.12246 8.68589 5.36099 8.98974C6.06792 9.89084 6.78308 10.7859 7.49537 11.683C7.65274 11.8807 7.86242 11.9744 8.11784 11.978C8.46307 11.9828 8.72136 11.818 8.92158 11.5656C9.60008 10.7108 10.2716 9.85025 10.946 8.99175C11.5829 8.18108 12.2263 7.37564 12.855 6.55894C13.3077 5.97093 13.042 5.26677 12.3355 5.17393C11.9808 5.12731 11.6788 5.24547 11.4547 5.53485C10.7202 6.48257 9.98197 7.42789 9.24497 8.3736C8.88945 8.82938 8.53269 9.28515 8.1681 9.75178Z" fill="url(#paint0_linear_613_342)"/>
<path d="M8.16931 9.75191C8.5339 9.28528 8.89066 8.82991 9.24618 8.37373C9.98318 7.42802 10.7214 6.48271 11.4559 5.53498C11.6805 5.2456 11.9824 5.12744 12.3367 5.17406C13.0432 5.2669 13.3089 5.97106 12.8562 6.55907C12.2275 7.37577 11.5841 8.18162 10.9472 8.99188C10.2728 9.84998 9.60129 10.7105 8.92279 11.5658C8.72258 11.8182 8.46428 11.9826 8.11905 11.9781C7.86322 11.9745 7.65353 11.8809 7.49658 11.6831C6.7843 10.786 6.06913 9.89097 5.3622 8.98987C5.12368 8.68602 5.12038 8.25718 5.32966 7.97784C5.53687 7.70132 6.05018 7.54578 6.38593 7.66033C6.53259 7.71017 6.64299 7.80502 6.73651 7.926C7.16907 8.48587 7.60492 9.04293 8.03996 9.60039C8.07662 9.64701 8.1174 9.69122 8.16931 9.75191Z" fill="#E6F4E7"/>
<defs>
<linearGradient id="paint0_linear_613_342" x1="15.0005" y1="5.49864" x2="-4.41709" y2="8.93921" gradientUnits="userSpaceOnUse">
<stop offset="1" stop-color="#3BC9A9"/>
</linearGradient>
</defs>
</svg>
