<svg width="27" height="27" viewBox="0 0 27 27" fill="none" xmlns="http://www.w3.org/2000/svg">
<path fill-rule="evenodd" clip-rule="evenodd" d="M6.66743 20.3323L8.56244 25.4196L13.4997 23.1623L18.437 25.4196L20.332 20.3323L25.4194 18.4372L23.162 13.5L25.4194 8.56269L20.332 6.66767L18.437 1.58032L13.4997 3.83765L8.56244 1.58032L6.66743 6.66767L1.58008 8.56269L3.8374 13.5L1.58008 18.4372L6.66743 20.3323ZM17.1728 22.3676L13.4997 20.6883L9.82662 22.3676L8.41682 18.5829L4.63207 17.1731L6.31141 13.5L4.63207 9.82686L8.41682 8.41706L9.82662 4.63231L13.4997 6.31166L17.1728 4.63231L18.5826 8.41706L22.3674 9.82686L20.688 13.5L22.3674 17.1731L18.5826 18.5829L17.1728 22.3676ZM13.4997 19.125C10.3931 19.125 7.87472 16.6066 7.87472 13.5C7.87472 10.3934 10.3931 7.87496 13.4997 7.87496C16.6063 7.87496 19.1247 10.3934 19.1247 13.5C19.1247 16.6066 16.6063 19.125 13.4997 19.125ZM16.8747 13.5C16.8747 15.3639 15.3637 16.875 13.4997 16.875C11.6358 16.875 10.1247 15.3639 10.1247 13.5C10.1247 11.636 11.6358 10.125 13.4997 10.125C15.3637 10.125 16.8747 11.636 16.8747 13.5Z" />
</svg>
