<svg width="14" height="16" viewBox="0 0 14 16" fill="none" xmlns="http://www.w3.org/2000/svg">
<path opacity="0.6" fill-rule="evenodd" clip-rule="evenodd" d="M10.8889 3.25514L10.8889 2.46567C10.8889 1.59364 10.1924 0.886719 9.33333 0.886719L4.66667 0.886719C3.80756 0.886719 3.11111 1.59364 3.11111 2.46567L3.11111 3.25514L0.777778 3.25514C0.348223 3.25514 -2.08725e-09 3.6086 -2.42161e-09 4.04461C-2.75596e-09 4.48063 0.348223 4.83409 0.777778 4.83409L1.55556 4.83409L1.55556 13.5183C1.55556 14.8263 2.60022 15.8867 3.88889 15.8867L10.1111 15.8867C11.3998 15.8867 12.4444 14.8263 12.4444 13.5183L12.4444 4.83409L13.2222 4.83409C13.6518 4.83409 14 4.48063 14 4.04461C14 3.6086 13.6518 3.25514 13.2222 3.25514L10.8889 3.25514ZM9.33333 2.46567L4.66667 2.46567L4.66667 3.25514L9.33333 3.25514L9.33333 2.46567ZM10.8889 4.83409L3.11111 4.83409L3.11111 13.5183C3.11111 13.9543 3.45933 14.3078 3.88889 14.3078L10.1111 14.3078C10.5407 14.3078 10.8889 13.9543 10.8889 13.5183L10.8889 4.83409Z" fill="#1B183F"/>
</svg>
