<svg width="14" height="15" viewBox="0 0 14 15" xmlns="http://www.w3.org/2000/svg">
<path opacity="0.6" fill-rule="evenodd" clip-rule="evenodd" d="M10.8889 2.36842L10.8889 1.57895C10.8889 0.706919 10.1924 -6.98482e-09 9.33333 -6.39607e-09L4.66667 -3.19804e-09C3.80756 -2.60929e-09 3.11111 0.706919 3.11111 1.57895L3.11111 2.36842L0.777778 2.36842C0.348223 2.36842 -2.08725e-09 2.72188 -2.42161e-09 3.15789C-2.75596e-09 3.59391 0.348223 3.94737 0.777778 3.94737L1.55556 3.94737L1.55556 12.6316C1.55556 13.9396 2.60022 15 3.88889 15L10.1111 15C11.3998 15 12.4444 13.9396 12.4444 12.6316L12.4444 3.94737L13.2222 3.94737C13.6518 3.94737 14 3.59391 14 3.15789C14 2.72188 13.6518 2.36842 13.2222 2.36842L10.8889 2.36842ZM9.33333 1.57895L4.66667 1.57895L4.66667 2.36842L9.33333 2.36842L9.33333 1.57895ZM10.8889 3.94737L3.11111 3.94737L3.11111 12.6316C3.11111 13.0676 3.45933 13.4211 3.88889 13.4211L10.1111 13.4211C10.5407 13.4211 10.8889 13.0676 10.8889 12.6316L10.8889 3.94737Z" />
</svg>
