<svg width="40" height="27" viewBox="0 0 40 27" fill="none" xmlns="http://www.w3.org/2000/svg">
<g clip-path="url(#clip0_2_2864)">
<path d="M40 0H17.1875V3.375H40V0Z" fill="#F0F0F0"/>
<path d="M40 3.375H17.1875V6.75H40V3.375Z" fill="#DB001E"/>
<path d="M40 6.75H17.1875V10.125H40V6.75Z" fill="#F0F0F0"/>
<path d="M40 10.125H17.1875V13.5H40V10.125Z" fill="#DB001E"/>
<path d="M40 13.5H0V16.875H40V13.5Z" fill="#F0F0F0"/>
<path d="M40 16.875H0V20.25H40V16.875Z" fill="#DB001E"/>
<path d="M40 20.25H0V23.625H40V20.25Z" fill="#F0F0F0"/>
<path d="M40 23.625H0V27H40V23.625Z" fill="#DB001E"/>
<path d="M20 0H0V14.5988H20V0Z" fill="#2C4FB5"/>
<path d="M3.41406 2.19727L3.85156 3.09988L4.84375 3.24116L4.125 3.94756L4.29688 4.93651L3.41406 4.46558L2.52344 4.93651L2.69531 3.94756L1.97656 3.24116L2.96875 3.09988L3.41406 2.19727Z" fill="white"/>
<path d="M7.78906 2.19727L8.22656 3.09988L9.21875 3.24116L8.5 3.94756L8.67187 4.93651L7.78906 4.46558L6.89844 4.93651L7.07031 3.94756L6.35156 3.24116L7.34375 3.09988L7.78906 2.19727Z" fill="white"/>
<path d="M12.1641 2.19727L12.6016 3.09988L13.5937 3.24116L12.875 3.94756L13.0469 4.93651L12.1641 4.46558L11.2734 4.93651L11.4453 3.94756L10.7266 3.24116L11.7187 3.09988L12.1641 2.19727Z" fill="white"/>
<path d="M16.6172 2.19727L17.0547 3.09988L18.0469 3.24116L17.3281 3.94756L17.5 4.93651L16.6172 4.46558L15.7266 4.93651L15.8984 3.94756L15.1797 3.24116L16.1719 3.09988L16.6172 2.19727Z" fill="white"/>
<path d="M3.41406 5.72949L3.85156 6.63211L4.84375 6.77339L4.125 7.47978L4.29688 8.46874L3.41406 7.99781L2.52344 8.46874L2.69531 7.47978L1.97656 6.77339L2.96875 6.63211L3.41406 5.72949Z" fill="white"/>
<path d="M7.78906 5.72949L8.22656 6.63211L9.21875 6.77339L8.5 7.47978L8.67187 8.46874L7.78906 7.99781L6.89844 8.46874L7.07031 7.47978L6.35156 6.77339L7.34375 6.63211L7.78906 5.72949Z" fill="white"/>
<path d="M12.1641 5.72949L12.6016 6.63211L13.5937 6.77339L12.875 7.47978L13.0469 8.46874L12.1641 7.99781L11.2734 8.46874L11.4453 7.47978L10.7266 6.77339L11.7187 6.63211L12.1641 5.72949Z" fill="white"/>
<path d="M16.6172 5.72949L17.0547 6.63211L18.0469 6.77339L17.3281 7.47978L17.5 8.46874L16.6172 7.99781L15.7266 8.46874L15.8984 7.47978L15.1797 6.77339L16.1719 6.63211L16.6172 5.72949Z" fill="white"/>
<path d="M3.41406 9.34033L3.85156 10.2429L4.84375 10.3842L4.125 11.0906L4.29688 12.0796L3.41406 11.6086L2.52344 12.0796L2.69531 11.0906L1.97656 10.3842L2.96875 10.2429L3.41406 9.34033Z" fill="white"/>
<path d="M7.78906 9.34033L8.22656 10.2429L9.21875 10.3842L8.5 11.0906L8.67187 12.0796L7.78906 11.6086L6.89844 12.0796L7.07031 11.0906L6.35156 10.3842L7.34375 10.2429L7.78906 9.34033Z" fill="white"/>
<path d="M12.1641 9.34033L12.6016 10.2429L13.5937 10.3842L12.875 11.0906L13.0469 12.0796L12.1641 11.6086L11.2734 12.0796L11.4453 11.0906L10.7266 10.3842L11.7187 10.2429L12.1641 9.34033Z" fill="white"/>
<path d="M16.6172 9.34033L17.0547 10.2429L18.0469 10.3842L17.3281 11.0906L17.5 12.0796L16.6172 11.6086L15.7266 12.0796L15.8984 11.0906L15.1797 10.3842L16.1719 10.2429L16.6172 9.34033Z" fill="white"/>
</g>
<defs>
<clipPath id="clip0_2_2864">
<rect width="40" height="27" fill="white"/>
</clipPath>
</defs>
</svg>
