<svg width="26" height="24" viewBox="0 0 26 24" fill="none" xmlns="http://www.w3.org/2000/svg">
<g clip-path="url(#clip0_994_74652)">
<path d="M13.0078 23.9775C10.4954 23.9775 7.98413 23.9882 5.47173 23.9721C4.58578 23.9668 3.70317 23.8949 2.8483 23.6256C1.12748 23.0816 -0.662179 20.8949 0.241531 18.5215C0.590137 17.6052 1.02756 16.7136 1.49607 15.8466C3.60214 11.9507 5.72042 8.06228 7.86423 4.18674C8.36716 3.27794 8.93891 2.3949 9.56729 1.56228C11.1416 -0.523558 14.8019 -0.501026 16.4239 1.51936C17.1811 2.46249 17.7751 3.49897 18.3468 4.54726C20.6083 8.69533 22.8643 12.8477 25.1124 17.0022C25.5021 17.7221 25.8419 18.4689 25.9595 19.2833C26.1361 20.5022 25.7131 21.5494 24.9026 22.4657C24.1366 23.3327 23.1363 23.7812 21.9794 23.867C20.9314 23.9453 19.8778 23.9797 18.8264 23.9904C16.8869 24.0086 14.9474 23.9958 13.0078 23.9958C13.0078 23.9893 13.0078 23.984 13.0078 23.9775ZM12.9756 21.6814C15.5247 21.6814 18.0737 21.6943 20.6217 21.6717C21.1978 21.6664 21.7885 21.6009 22.3436 21.4582C23.2728 21.2179 23.8257 20.1749 23.5337 19.2919C23.3916 18.8606 23.2162 18.4335 22.9986 18.0333C20.6006 13.6116 18.1981 9.19318 15.7778 4.78224C15.4336 4.15455 15.0018 3.57086 14.591 2.97966C13.9571 2.0655 12.0686 2.0494 11.4069 2.98181C11.0583 3.4743 10.6864 3.95713 10.3977 4.48181C7.97747 8.88202 5.57165 13.2897 3.17249 17.7007C2.9027 18.1953 2.66734 18.7146 2.48304 19.2447C2.14443 20.2168 2.77947 21.294 3.82085 21.5097C4.33154 21.6159 4.86333 21.6717 5.38513 21.6749C7.91419 21.691 10.4455 21.6814 12.9756 21.6814Z" fill="#FF9292"/>
<path d="M14.2145 11.9735C14.2145 12.9284 14.2201 13.8834 14.2123 14.8383C14.2078 15.4134 13.8337 15.8523 13.2697 15.9767C12.7601 16.0894 12.2028 15.8394 11.9774 15.3684C11.8953 15.1956 11.8475 14.9917 11.8464 14.8018C11.8309 12.937 11.8264 11.0722 11.8242 9.20634C11.8231 8.50355 12.3105 8.01213 12.9911 8.00784C13.6738 8.00355 14.1701 8.4896 14.1768 9.18917C14.1845 10.1173 14.179 11.0454 14.179 11.9735C14.1923 11.9735 14.2034 11.9735 14.2145 11.9735Z" fill="#FF9292"/>
<path d="M11.8264 18.2654C11.8375 17.6334 12.3782 17.1259 13.0232 17.141C13.6893 17.157 14.1956 17.6796 14.1789 18.3319C14.1623 18.9661 13.6327 19.4489 12.9688 19.436C12.316 19.4221 11.8142 18.9081 11.8264 18.2654Z" fill="#FF9292"/>
</g>
<defs>
<clipPath id="clip0_994_74652">
<rect width="26" height="24" fill="white"/>
</clipPath>
</defs>
</svg>
