<svg width="17" height="17" viewBox="0 0 17 17" fill="none" xmlns="http://www.w3.org/2000/svg">
<g clip-path="url(#clip0_4622_644469)">
<path d="M8.49203 0.00787082C10.9934 0.00787082 13.4948 0.0158633 15.9963 -0.000121662C16.5937 -0.00811414 17 0.375525 17 1.01492C16.9841 3.75634 16.992 6.50576 16.992 9.24718C16.992 9.91055 16.6654 10.2462 16.0042 10.2462C10.9934 10.2462 5.98266 10.2462 0.971884 10.2462C0.629335 10.2462 0.326617 10.1663 0.151359 9.8626C0.0637301 9.71873 0.00796626 9.52691 0.00796626 9.35907C0 6.53773 0 3.71638 0 0.903028C0 0.343555 0.350516 0.00787082 0.924086 0.00787082C3.44939 0.00787082 5.96673 0.00787082 8.49203 0.00787082ZM8.4761 8.53585C10.4199 8.53585 12.3636 8.53585 14.3074 8.53585C14.4428 8.53585 14.5305 8.51986 14.5942 8.368C14.7057 8.12024 14.9049 7.93641 15.1518 7.81652C15.2554 7.76857 15.2952 7.71262 15.2952 7.59273C15.2952 5.93829 15.2952 4.29184 15.2873 2.6374C15.2873 2.56546 15.2235 2.46955 15.1598 2.43758C14.9208 2.30171 14.7137 2.13387 14.6022 1.8861C14.5384 1.74224 14.4508 1.70228 14.2994 1.70228C12.6106 1.71027 10.9297 1.70228 9.24086 1.70228C7.05014 1.70228 4.85942 1.70228 2.6687 1.70228C2.53327 1.70228 2.45361 1.72625 2.38988 1.86213C2.27835 2.11789 2.07919 2.3097 1.82427 2.4216C1.72868 2.46955 1.68885 2.51751 1.68885 2.6294C1.68885 4.29184 1.68885 5.94628 1.69681 7.60872C1.69681 7.67266 1.76054 7.76857 1.81631 7.80054C2.06326 7.93641 2.27038 8.11224 2.38988 8.368C2.45361 8.51187 2.53327 8.53585 2.67666 8.53585C4.61246 8.53585 6.5403 8.53585 8.4761 8.53585Z" fill="white"/>
<path d="M5.10547 13.6512C5.94193 13.6512 6.78635 13.6512 7.64671 13.6512C7.64671 13.0757 7.64671 12.5243 7.64671 11.9568C8.22028 11.9568 8.76198 11.9568 9.33555 11.9568C9.33555 12.5163 9.33555 13.0757 9.33555 13.6512C10.172 13.6512 10.9846 13.6512 11.7812 13.6512C10.6659 14.7701 9.54268 15.8971 8.43537 17C7.35195 15.9051 6.23668 14.7861 5.10547 13.6512Z" fill="white"/>
<path d="M11.0497 5.13124C11.0497 6.53791 9.89462 7.68883 8.49256 7.68084C7.0905 7.68084 5.94336 6.52193 5.94336 5.11525C5.94336 3.69259 7.0905 2.54967 8.5085 2.55766C9.91852 2.57364 11.0497 3.71657 11.0497 5.13124Z" fill="white"/>
<path d="M4.24692 5.97833C3.78488 5.97833 3.39453 5.60268 3.39453 5.13113C3.39453 4.65957 3.78488 4.25995 4.25489 4.26794C4.71693 4.27593 5.09931 4.66756 5.09931 5.12313C5.09931 5.5867 4.70896 5.97034 4.24692 5.97833Z" fill="white"/>
<path d="M13.5975 5.12302C13.5975 5.58658 13.2151 5.97022 12.7531 5.97821C12.283 5.97821 11.8847 5.58658 11.8927 5.11502C11.9007 4.65146 12.291 4.26782 12.7451 4.26782C13.2151 4.26782 13.5975 4.65945 13.5975 5.12302Z" fill="white"/>
</g>
<defs>
<clipPath id="clip0_4622_644469">
<rect width="17" height="17" fill="white"/>
</clipPath>
</defs>
</svg>
