<svg width="17" height="17" viewBox="0 0 17 17" fill="none" xmlns="http://www.w3.org/2000/svg">
<g clip-path="url(#clip0_484_7216)">
<path d="M8.49917 1.35571e-07C13.1752 -0.00083116 16.9983 3.82147 17 8.49834C17.0017 13.1719 13.176 16.9983 8.50083 16.9992C3.82729 17.0008 -0.00083116 13.1744 1.35365e-07 8.50083C0.000831431 3.82396 3.82313 0.000831431 8.49917 1.35571e-07ZM12.7438 8.49751C12.7429 6.1491 10.8451 4.25374 8.49751 4.2554C6.14826 4.2579 4.25374 6.15325 4.2554 8.50083C4.25707 10.8501 6.15325 12.7446 8.50083 12.7429C10.8501 12.7429 12.7454 10.8459 12.7438 8.49751ZM12.9707 3.04005C10.4511 0.836284 6.44421 0.931883 4.07169 3.01179C4.39839 3.34098 4.72675 3.671 5.0601 4.00685C6.0776 3.23707 7.23726 2.82973 8.53159 2.83638C9.82425 2.84303 10.9789 3.2645 11.9765 4.03095C12.3181 3.69095 12.6448 3.36509 12.9707 3.04005ZM3.01012 4.06919C0.901125 6.48993 0.867873 10.491 3.03423 12.9624C3.36176 12.634 3.69095 12.3048 4.02763 11.9673C3.25535 10.9615 2.83971 9.80513 2.83721 8.51081C2.83472 7.21897 3.24538 6.06181 4.00103 5.06259C3.65936 4.7201 3.33433 4.39423 3.01012 4.06919ZM4.09164 14.0165C6.81579 16.2776 10.7744 15.926 12.94 13.9699C12.6149 13.6441 12.289 13.3174 11.9715 12.999C9.67462 14.556 7.37443 14.5651 5.07589 13.0322C4.75002 13.3573 4.42416 13.684 4.09164 14.0165ZM13.9907 12.9316C16.1363 10.4585 16.0789 6.46665 14.0107 4.10078C13.6848 4.42582 13.3581 4.75169 13.0339 5.07506C14.5685 7.37609 14.556 9.67878 13.0156 11.9515C13.3415 12.2791 13.6665 12.6058 13.9907 12.9316Z" fill="white"/>
<path d="M7.78775 7.79342C7.78775 7.08266 7.78775 6.39435 7.78775 5.68774C8.26076 5.68774 8.71963 5.68774 9.20012 5.68774C9.20012 6.37606 9.20012 7.07019 9.20012 7.78594C9.91587 7.78594 10.6092 7.78594 11.3166 7.78594C11.3166 8.26642 11.3166 8.72447 11.3166 9.20579C10.6166 9.20579 9.92252 9.20579 9.21342 9.20579C9.21342 9.91655 9.21342 10.6049 9.21342 11.3115C8.74041 11.3115 8.28154 11.3115 7.80105 11.3115C7.80105 10.6231 7.80105 9.92902 7.80105 9.21327C7.0853 9.21327 6.392 9.21327 5.68457 9.21327C5.68457 8.73278 5.68457 8.27474 5.68457 7.79342C6.38452 7.79342 7.07865 7.79342 7.78775 7.79342Z" fill="white"/>
</g>
<defs>
<clipPath id="clip0_484_7216">
<rect width="17" height="17" fill="white"/>
</clipPath>
</defs>
</svg>
